<?xml version="1.0" encoding="utf-8"?>
<!-- Generator: Adobe Illustrator 22.1.0, SVG Export Plug-In . SVG Version: 6.00 Build 0)  -->
<svg version="1.1" id="Layer_1" xmlns="http://www.w3.org/2000/svg" xmlns:xlink="http://www.w3.org/1999/xlink" x="0px" y="0px"
	 viewBox="0 0 962.4 192.7" style="enable-background:new 0 0 962.4 192.7;" xml:space="preserve">
<style type="text/css">
	.st0{fill:#FFFFFF;}
</style>
<path d="M33.2,141.1c1.6-7.3,3.4-14.5,4.7-21.8c3.4-17.8,6.3-35.8,7.4-53.9c0.5-7.6,0.3-15.2,0.7-22.8c0.1-1.7,0.6-4.3,1.7-4.8
	c1.4-0.6,3.7,0.1,5.4,0.9c3.7,1.7,5.7,4.5,6.4,8.9c3.2,19.6,6.8,39.2,10.2,58.8c1.7,10.2,3.1,20.5,4.6,30.7c0.1,0.9,0.4,1.8,1.2,2.8
	c1.5-10.3,3.1-20.6,4.6-30.9c1.7-12.2,3.5-24.4,4.8-36.6c1.2-10.8,1.8-21.6,2.8-32.4c0.9-10.1,1.9-20.2,2.9-30.3
	c0.3-3.2,2.8-5.4,5.9-5.4c3.2,0,6,2.4,6,5.6c0,3.8-0.3,7.6-0.6,11.4C100.4,38.6,99,56,97.1,73.2c-1.4,12.7-3.1,25.4-5.2,38
	c-3.7,22.8-7.7,45.6-11.8,68.3c-0.9,5.1-5.2,7.9-9.4,10.1c-2.1,1-4.1,0.1-4.7-2.5c-0.2-1-0.4-2.1-0.4-3.2c-0.4-8.5-0.3-17-1.2-25.4
	c-1.7-15.7-4-31.3-6.2-47c-0.8-5.8-1.8-11.5-2.8-17.2c-0.2,0-0.5,0-0.7,0c-1,5.1-1.9,10.3-3,15.5c-3.9,18.9-7.8,37.8-11.6,56.7
	c-0.9,4.3-1.8,8.6-2.7,12.9c-0.5,2.6-2.1,3.5-4.7,3.3c-5.3-0.5-7.2-2.8-7.8-8c-1.2-9.9-2.7-19.7-4.2-29.5c-2.3-15.2-4.9-30.4-7-45.7
	s-3.3-30.7-5.7-45.9c-1.5-9.6-4.3-19-6.6-28.5C1,22.9,0.2,20.8,0,18.6c-0.3-3.3,1.8-5.7,4.9-6.3c2.8-0.5,5.7,1.2,6.5,4.2
	c1.9,6.6,3.7,13.4,5.4,20.1c4.3,16.7,5.8,33.8,8.1,50.8c2.4,17.3,4.8,34.6,7.2,51.9c0.1,0.6,0.3,1.2,0.5,1.8
	C32.8,141.1,33,141.1,33.2,141.1z"/>
<path d="M155.6,25.8c0.4,5.1,1,10.1,1.3,15.1c0.7,14.1,1.2,28.3,1.8,42.4c0.3,8.1,0.7,16.2,1,24.3c0.1,1.4,0,2.7-0.1,4.1
	c-0.3,4.9,0,5.2,5,4.7c2-0.2,4.1-0.5,6.1-0.6c3.4-0.1,6,2.1,6.4,5.2c0.3,3.1-1.6,5.9-5,6.5c-4.3,0.7-8.6,1-13.6,1.6
	c-0.7,16-1.4,32.3-2.1,48.9c2.6,0.2,4.4,0.5,6.2,0.5c7.3-0.1,14.6-0.2,21.9-0.5c4.3-0.2,7.2,1.6,7.6,5c0.4,3.8-2.1,6.9-6.5,7.1
	c-7.7,0.3-15.4,0.3-23.1,0.3c-3,0-6.1-0.3-9-0.8c-5.5-1-8.3-3.8-8.3-9.3c0-12.6,0.2-25.2,0.7-37.7c0.8-17.7,2.2-35.3,1.1-53
	c-0.9-15-1-30.1-1.8-45.1c-0.4-7.7-1.6-15.3-2.5-23c-0.4-4,1.4-6.4,5.4-7.4c4.8-1.2,9.4-0.6,14.2,0.4c5.6,1.2,11.3,2,17,2.9
	c4.7,0.7,7.1,3.6,6.4,7.7c-0.6,3.4-4.3,5.1-8.6,4.3C170,28.1,162.9,27,155.6,25.8z"/>
<path d="M245.4,25.8c0.4,5,1,9.9,1.2,14.8c0.6,13.5,1.2,26.9,1.7,40.4c0.4,9.2,0.7,18.3,1.1,27.5c0,1.3,0,2.5-0.1,3.8
	c-0.3,4.3-0.1,4.5,4.4,4.2c2.2-0.2,4.5-0.6,6.7-0.6c3.4-0.1,6,2,6.4,5.1c0.4,3-1.7,6-5,6.5c-4.3,0.7-8.6,1-13.6,1.6
	c-0.7,15.9-1.4,32.2-2.1,48.9c2.7,0.2,4.7,0.5,6.7,0.5c7.2-0.1,14.4-0.2,21.6-0.5c4.1-0.2,7,1.7,7.3,5c0.4,3.6-1.9,6.9-5.8,7
	c-10.7,0.2-21.5,0.2-32.1-0.4c-6.3-0.4-9-3.8-9-10.1c-0.2-13.4-0.2-26.7,0.9-40.1c1.5-18,2.1-36,0.8-54.1c-1-13.9-1-27.9-1.7-41.9
	c-0.4-7.2-1.6-14.4-2.3-21.5c-0.5-4.7,1.3-6.8,5.8-7.8c4.7-1.1,9.2-0.4,13.9,0.5c5.8,1.1,11.7,2,17.6,2.9c3.5,0.6,5.4,2.5,5.6,5.7
	c0.2,2.9-1.2,5.2-4,6c-1.4,0.4-3.1,0.2-4.6,0C259.7,28.3,252.6,27,245.4,25.8z"/>
<path d="M574.1,84c0.7,25.9-4.2,51-11.8,75.5c-2.1,6.7-5.3,13.4-9.4,19c-5.7,7.7-13.8,12.1-24,10.2c-4.8-0.9-8.6-3.7-11.5-7.5
	c-4.6-6.2-7.8-13-8.7-20.8c-1.3-11-3.2-22-3.8-33.1c-1.2-22.5-1.7-45.1-2.6-67.6c-0.3-8.4-1.4-16.7-1.7-25.1
	c-0.2-5.3,0.1-10.7,0.7-16c0.4-3.7,4.3-6,7.8-5.4c3.8,0.6,6.5,3.7,5.8,7.5c-1.7,9.9,0.2,19.6,0.6,29.5c0.4,10.9,0.8,21.9,1.2,32.8
	c0.7,16.6,1.2,33.2,2.4,49.7c0.7,10,2.2,20,4.2,29.8c0.8,4.1,3.8,7.8,6.2,11.4c1.3,1.9,3.6,2,5.9,1.1c4.5-1.8,7.5-5.1,9.5-9.4
	c5.4-11,7.6-22.9,10.5-34.6c5-20.3,5.4-41,4.2-61.7c-0.8-14-2-28-3.3-42c-0.5-4.9-1.7-9.8-2.4-14.7c-0.3-2.1-0.5-4.3-0.3-6.4
	c0.2-3.3,3-5.7,6.3-5.9c3.3-0.1,6.6,2.2,7.1,5.3C571.2,31.4,573.1,57.7,574.1,84z M570.4,84c0.3,0,0.5,0,0.8,0
	c-1.1-14.4-2.1-28.8-3.5-43.2c-1.1-11.2-2.7-22.4-4-33.7c-0.3-2.5-1.5-3.6-3.8-3.5c-2.3,0.2-3,1.9-2.8,4c0.1,1.4,0.2,2.7,0.4,4.1
	c0.8,4.9,2,9.8,2.4,14.7c1.2,13.7,2.4,27.4,3.2,41.1c1.3,21.5,0.9,42.9-4.2,64c-2.9,11.9-5.3,24-10.6,35.2
	c-2.5,5.2-6.2,9.2-11.7,11.3c-3.5,1.4-6.9,1-9.4-1.8c-3.4-3.9-6.4-8.2-7.4-13.5c-0.9-5-1.9-10-2.4-15c-1-11.4-1.9-22.7-2.5-34.1
	c-0.9-18.4-1.4-36.9-2.2-55.3c-0.3-7.1-1.1-14.2-1.4-21.3c-0.2-5.3,0-10.7,0.2-16c0.1-2.2-0.3-3.9-2.6-4.5c-2-0.5-4,0.8-4.2,3.3
	c-0.4,4.6-0.7,9.4-0.5,14c0.4,8.2,1.4,16.3,1.7,24.5c1.3,33.3,1,66.8,6.1,99.9c1.2,7.7,3.7,14.7,8.4,20.9c4.1,5.4,10.8,7.7,16.9,5.8
	c7-2.2,12.6-6.3,15.9-13c2.2-4.4,4.5-9,5.9-13.7C566.3,134.1,571.2,109.5,570.4,84z"/>
<path d="M746.1,176.9c5.2,0,10.1-0.1,14.9,0c3.2,0.1,5.4,1.8,6.4,4.7c1,2.9,0.4,5.7-2,7.3c-1.7,1.2-4.1,1.6-6.3,1.7
	c-7.5,0.6-15,0.9-22.5,1.4c-0.9,0-1.7,0.3-2.6,0.5c-3.8,0.7-7.3-1.3-8.3-4.8c-1-3.6,0.6-7,4.3-8.5c0.6-0.3,1.3-0.5,1.6-0.6
	c1.5-53.2-0.8-106.3,2.6-160c-3.1,0-6.5,0-9.8,0c-3.5,0-6.3-1.8-7.3-4.8c-0.9-2.6,0-6,2.4-7.6c1.4-0.9,3.3-1.6,4.9-1.5
	c12.4,0.1,24.8,0,36.6,4.8c4.2,1.7,6.2,5.4,4.8,9.3c-1.3,3.5-5,5.2-9.2,3.9c-2.5-0.8-4.9-1.7-7.8-2.7c-0.5,3.5-1.3,6.5-1.3,9.6
	c-0.5,27.6-0.9,55.3-1.2,82.9c-0.2,19.8-0.4,39.6-0.6,59.5C745.7,173.5,746,175.1,746.1,176.9z M742.8,180.4
	c-0.2-2.7-0.6-5.7-0.6-8.7c0.1-19.3,0.3-38.7,0.5-58c0.2-23.6,0.3-47.3,0.8-70.9c0.2-8.9,1.2-17.8,1.8-27.4c4.8,1.5,8.6,2.8,12.5,4
	c2,0.6,3.9,0.3,4.6-1.8c0.8-2.2-0.2-3.9-2.4-4.6c-4.1-1.2-8.2-2.9-12.4-3.3c-7.6-0.9-15.4-1.1-23.1-1.4c-2.3-0.1-4.3,0.8-4.2,3.7
	c0.1,2.1,1.8,3.2,4.7,3.1c4.5-0.1,8.9,0,13.5,0c0,1.4,0.1,2.1,0,2.7c-2.5,16-2.5,32.1-2.8,48.2c-0.2,11.5,0.3,23,0.3,34.6
	c0,13.8-0.4,27.5-0.5,41.3c-0.1,13.2-0.2,26.5-0.3,39.8c-1.5,0.3-2.5,0.4-3.4,0.7c-2,0.6-3.2,1.9-2.8,4.1c0.5,2.2,2.2,2.8,4.2,2.7
	c8.8-0.7,17.7-1.4,26.5-2c2.2-0.2,4.2-0.5,4.3-3.2c0.1-2.3-1.5-3.5-4.3-3.6C754.4,180.3,748.8,180.4,742.8,180.4z"/>
<path d="M344.7,17c-2.9,4.2-4.3,8.6-4,13c0.4,6.1,1.9,12.1,2.9,18.1c1.5,8.9,5.3,16.9,8.8,25c4.5,10.5,9.7,20.7,13.1,31.6
	c3.2,10.2,5.5,20.9,6.1,31.5c0.8,13.3-0.5,26.7-5.5,39.4c-3.9,9.9-15,16.2-25.4,13.7c-5.4-1.3-10.7-3.5-15.8-5.7
	c-2.8-1.2-4-4-3.5-7.1c0.8-4.9,5.3-7,10-5c3.4,1.4,6.8,2.9,10.4,3.8c6,1.7,10-0.4,11.9-6.2c4-12.7,5.5-25.7,3.2-39
	c-1.1-6.3-2-12.8-3.7-18.9c-1.8-6.1-4.5-12-7-18c-4.4-10.5-9.5-20.8-13.3-31.5c-2.6-7.4-3.5-15.3-5-23c-1.2-6.2-1.9-12.5,0.4-18.5
	c1.6-4.3,3.6-8.7,6.2-12.4c3.3-4.8,8.3-5.5,14.8-3.4c5.3,1.8,9.7,7.1,9.9,12c0.1,3.1-2,6.1-4.8,6.9c-3,0.9-6.5-0.6-8-3.4
	C345.7,19.1,345.3,18.3,344.7,17z M362.2,140.7c-0.2,0.1-0.5,0.1-0.7,0.2c-0.4,5.2-0.5,10.4-1.3,15.4c-0.9,5.2-2.2,10.3-3.8,15.3
	c-1.6,5.1-6.5,8.4-11.8,7.6c-4.7-0.8-9.3-2.6-13.9-4.2c-2.1-0.7-4.1-1.6-5.4,0.7c-1.3,2.3-0.3,4.3,2,5.3c4,1.7,8.1,3.5,12.3,4.5
	c10.8,2.7,19.8-2.4,23.7-12.8c4.4-11.7,5.4-23.9,4.7-36c-0.6-10.5-2.9-21.1-6-31.2c-3.2-10.5-8.3-20.3-12.7-30.5
	c-3.6-8.5-7.7-16.9-9.2-26.1c-0.8-5.1-1.5-10.2-2.6-15.2c-1.3-6.4,0.4-12.2,3.4-17.6c2-3.6,5.5-3.4,7.5,0.4c0.4,0.7,0.5,1.7,1.1,2
	c1.2,0.6,2.8,1.5,3.8,1.1c1-0.4,2.2-2.4,2-3.4c-0.9-4.7-3.9-7.7-8.6-8.9c-4.5-1.2-7.7-0.5-10.2,3.4c-2,3.1-3.6,6.7-4.9,10.2
	c-2.1,5.8-1.4,11.8-0.2,17.6c1.6,8.1,2.8,16.4,5.5,24.1c3.7,10.4,8.6,20.5,13.2,30.6c3.3,7.3,6.4,14.6,7.7,22.6
	C359,124.1,360.7,132.4,362.2,140.7z"/>
<path d="M440.6,23c0.6,8.8,1.2,17,1.8,25.1c1.4,21.3,2.9,42.6,4.1,64c1,18.6,1.5,37.2,2.2,55.9c0.2,5,0.1,10,0.1,14.9
	c0,4.6-2.9,7.7-7,7.7c-4,0-6.7-3-6.8-7.5c-0.5-16.1-0.9-32.2-1.5-48.3c-0.6-16.5-0.9-33-1.9-49.4c-1-16.3-2.9-32.5-4.1-48.7
	c-0.4-4.9-0.1-9.9-0.1-14.9c-3.9-0.7-7.4-1.4-10.8-2c-4.7-0.9-7.3-4.2-6.5-8.4c0.8-4.1,4.5-5.9,9.2-5.2c10.4,1.6,20.9,2.9,31.3,4.3
	c1.8,0.2,3.7,0.6,5.5,1c4.1,1,6.6,4.4,5.8,8.1c-0.8,4-4.3,6.1-8.7,5.4C449.4,24.3,445.4,23.7,440.6,23z M430.9,18.6
	c0,5.8-0.3,11.3,0.1,16.7c1.5,20.9,3.7,41.8,4.7,62.8c1.4,28.3,2,56.6,2.9,84.8c0.1,2.2,0.6,4,3.1,4c2.5,0,3.6-1.5,3.6-4
	c0-5.2,0-10.3-0.1-15.5c-0.7-19.2-1.3-38.4-2.2-57.6c-0.8-16-1.8-32-2.8-47.9c-0.7-11.6-1.6-23.1-2.5-34.7c-0.2-2.5-0.8-5.1-1.2-7.8
	c0.2,0,1-0.1,1.9,0c5.2,0.7,10.4,1.3,15.6,2.1c2.3,0.3,4-0.4,4.5-2.7c0.5-2.2-0.9-3.5-3-3.9c-1.8-0.4-3.6-0.7-5.5-1
	c-10.3-1.4-20.7-2.8-31-4.2c-3.2-0.5-4.9,0.2-5.3,2.4c-0.5,2.2,1,3.7,4.1,4.2C422.2,17.1,426.7,17.9,430.9,18.6z"/>
<path d="M624,174.5c1.4-14.8,1-29.4,0.3-44c-0.5-11.1-0.9-22.2-1.6-33.4c-1.2-19.5-2.6-39-3.8-58.5c-0.3-4.7-0.2-9.4-0.2-14.1
	c0-1.6-0.2-2.6-2.1-3.2c-3-1-4.4-3.9-4.1-7c0.3-3.1,2.3-5.8,5.4-6.1c3.6-0.4,7.5-0.7,11,0c11.7,2.5,22.3,7.6,31.7,15.1
	c2.8,2.2,5.1,5.1,7,8.2c7.5,12.1,11.8,25.2,10.8,39.7c-0.4,5.7,0.1,11.5-0.2,17.3c-0.5,13.2-1.1,26.5-3.3,39.6
	c-2.1,12.3-4.3,24.6-8.9,36.3c-4.2,10.9-19,25.4-35.6,24.3c-2.3-0.2-4.7,0-7,0c-4-0.1-6.9-2.5-7.2-5.9c-0.4-3.8,1.9-6.8,6-7.7
	C622.7,174.9,623.1,174.7,624,174.5z M622.2,18c0,1.5,0,2.6,0,3.8c0.1,5.7,0,11.3,0.3,17c1.2,19.4,2.5,38.8,3.7,58.1
	c0.6,10.1,1.2,20.3,1.3,30.4c0.2,15.2,0,30.4,0,45.6c0,1.5,0.3,3.5-0.5,4.5c-0.7,0.9-3,0.4-4.2,1.1c-1.2,0.7-2.7,2.1-2.8,3.4
	c-0.1,0.9,1.7,2.9,2.7,3c9.1,0.6,18.1,0.4,26.1-5.2c10-7,15.4-16.8,17.9-28.5c1.9-8.8,3.7-17.5,5.2-26.4c1.1-6.3,1.9-12.8,2.2-19.2
	c0.5-11.6,0.3-23.2,0.9-34.8c0.6-12-2.4-22.9-7.8-33.5c-3.4-6.5-8-11.7-14.3-15.5c-7.5-4.5-15.3-8.4-23.8-10.1
	c-3.2-0.7-6.5-0.4-9.8-0.2c-2.4,0.1-3.4,1.9-3,4.1c0.4,2.3,2,3,4.1,2.5C620.8,18.1,621.3,18.1,622.2,18z"/>
<path d="M806.1,118.1c1-14.6,1.5-29.3,3.2-43.8c2-17.2,4.9-34.4,7.5-51.5c0.5-3.3,1.5-6.7,2.7-9.8c0.7-1.9,2.2-3.6,3.7-5.1
	c7.8-8,17.5-7.9,24.8,0.5c9.8,11.2,15.8,24.4,18.5,38.9c5.7,30.1,9.3,60.4,5.9,91.1c-1.4,12.9-5.5,25.2-11.4,36.7
	c-4.6,8.9-11.9,14.7-21.8,16.6c-9,1.7-16.3-1.1-21.8-8.6c-5-6.8-7.2-14.7-8.4-22.9C806.8,146.2,805.8,132.2,806.1,118.1z M809.3,118
	c0.2,0,0.5,0,0.7,0.1c-0.8,13.6,0.3,27.1,2.2,40.6c1.1,7.8,3,15.3,7.6,21.9c4.6,6.6,11.3,9.3,19.1,7.6c8.5-1.9,14.9-6.9,18.8-14.6
	c5.8-11.5,9.9-23.6,11.2-36.4c1.8-17.8,1.7-35.7-0.6-53.5c-1.9-14.3-3-28.7-7-42.7c-3.5-12-9-22.8-17.6-32
	c-2.9-3.1-6.7-4.6-10.6-2.9c-4.8,2-9,4.4-10.9,10.5c-4.3,13.9-6.2,28.2-7.7,42.5C812.3,78.7,810.9,98.3,809.3,118z"/>
<path class="st0" d="M570.4,84c0.8,25.5-4,50.1-11.4,74.3c-1.4,4.7-3.7,9.2-5.9,13.7c-3.3,6.6-8.9,10.8-15.9,13
	c-6.1,1.9-12.8-0.4-16.9-5.8c-4.7-6.2-7.2-13.2-8.4-20.9c-5.1-33.1-4.8-66.5-6.1-99.9c-0.3-8.2-1.3-16.3-1.7-24.5
	c-0.2-4.6,0.1-9.4,0.5-14c0.2-2.5,2.2-3.9,4.2-3.3c2.3,0.6,2.7,2.3,2.6,4.5c-0.2,5.3-0.4,10.7-0.2,16c0.3,7.1,1.1,14.2,1.4,21.3
	c0.8,18.4,1.3,36.9,2.2,55.3c0.6,11.4,1.5,22.8,2.5,34.1c0.5,5,1.5,10,2.4,15c1,5.3,3.9,9.6,7.4,13.5c2.5,2.8,5.9,3.2,9.4,1.8
	c5.5-2.1,9.2-6,11.7-11.3c5.4-11.2,7.7-23.3,10.6-35.2c5.1-21.1,5.5-42.5,4.2-64c-0.8-13.7-2-27.4-3.2-41.1
	c-0.5-4.9-1.6-9.8-2.4-14.7c-0.2-1.3-0.3-2.7-0.4-4.1c-0.2-2.1,0.5-3.8,2.8-4c2.2-0.1,3.5,1,3.8,3.5c1.3,11.2,2.9,22.4,4,33.7
	c1.4,14.4,2.3,28.8,3.5,43.2C570.9,84,570.6,84,570.4,84z"/>
<path class="st0" d="M742.8,180.4c6,0,11.5,0,17.1,0c2.9,0,4.5,1.3,4.3,3.6c-0.2,2.7-2.1,3.1-4.3,3.2c-8.8,0.6-17.7,1.3-26.5,2
	c-2.1,0.2-3.8-0.5-4.2-2.7c-0.5-2.2,0.8-3.5,2.8-4.1c0.9-0.3,1.9-0.4,3.4-0.7c0.1-13.3,0.2-26.5,0.3-39.8
	c0.2-13.8,0.5-27.5,0.5-41.3c0-11.5-0.5-23-0.3-34.6c0.2-16.1,0.3-32.2,2.8-48.2c0.1-0.6,0-1.3,0-2.7c-4.6,0-9-0.1-13.5,0
	c-2.9,0-4.7-1-4.7-3.1c-0.1-2.9,2-3.8,4.2-3.7c7.7,0.3,15.4,0.5,23.1,1.4c4.2,0.5,8.3,2.1,12.4,3.3c2.2,0.7,3.2,2.4,2.4,4.6
	c-0.8,2.1-2.7,2.4-4.6,1.8c-3.9-1.2-7.8-2.5-12.5-4c-0.7,9.6-1.7,18.5-1.8,27.4c-0.5,23.6-0.5,47.3-0.8,70.9
	c-0.2,19.3-0.4,38.7-0.5,58C742.2,174.7,742.6,177.7,742.8,180.4z"/>
<path d="M962.2,136.2c-1-15.1-4.2-29.9-10.5-43.9c-4.2-9.5-8.7-19-12.8-28.5c-4.6-10.7-6.6-22-7.6-33.5c-0.4-4.5,1.1-9,4-13.3
	c0.7,1.3,1.1,2.2,1.5,3c1.6,2.7,5.1,4.2,8,3.3c2.9-0.9,4.9-3.8,4.8-7c-0.2-5-4.7-10.2-10.2-12c-6.3-2.1-11.3-1.2-14.7,3.7
	c-2.6,3.8-4.5,8.2-6.1,12.5c-2.1,5.9-1.4,12.1-0.2,18.2c1.5,7.6,2.4,15.5,4.9,22.8c3.3,9.7,7.3,19.2,11.9,28.3
	c6.1,12,9.7,24.6,11.9,37.8c2.5,14.2,1.4,28.2-3,41.8c-1.7,5.3-5.7,7.5-11.2,6.1c-3.5-0.9-6.8-2.2-10.1-3.7c-4.3-1.9-8-1.2-10,2.2
	c-2,3.6-1,7.8,3.2,9.8c4.6,2.2,9.5,4.1,14.5,5.3c11.8,2.8,22.4-3.3,26.6-14.7C961.7,162.1,963,149.1,962.2,136.2z M958.9,143.5
	c-1,9.9-1.4,19.8-5,29.3c-4,10.5-13.2,15.6-24,12.8c-4.1-1.1-8.1-2.8-12-4.5c-2.3-1-3.3-3-2-5.3c1.3-2.3,3.3-1.5,5.4-0.8
	c4.5,1.6,9,3.4,13.6,4.1c5.7,0.9,10.4-2.3,12.2-7.8c4.9-14.5,6.1-29.3,3.5-44.4c-2.3-13.3-5.8-26.1-12-38.3
	c-4.7-9.2-8.7-18.8-12.1-28.5c-3-8.4-4.3-17.3-5.2-26.3c-0.9-8.3,0.8-15.7,5.2-22.5c2.2-3.5,5.4-5.3,9.7-4.4c5,1.1,8.6,3.8,9.7,8.9
	c0.2,1.1-0.8,3.1-1.9,3.7c-0.8,0.5-2.6-0.4-3.8-1c-0.6-0.4-0.8-1.5-1.2-2.3c-2-3.5-5.5-3.6-7.4-0.1c-3.1,5.6-4.8,11.4-3.4,17.9
	c1,4.8,1.6,9.8,2.4,14.6c1.5,9.5,5.7,18,9.4,26.7c4.3,9.9,9.3,19.6,12.5,29.9c3.1,10.1,4.4,20.8,6.3,31.2
	C959.3,138.7,958.9,141.1,958.9,143.5z"/>
<path class="st0" d="M362.2,140.7c-1.5-8.3-3.2-16.6-4.5-25c-1.2-8-4.4-15.3-7.7-22.6c-4.5-10.1-9.5-20.1-13.2-30.6
	c-2.7-7.7-3.9-16-5.5-24.1c-1.2-5.9-1.9-11.8,0.2-17.6c1.3-3.5,2.9-7,4.9-10.2c2.5-3.9,5.7-4.6,10.2-3.4c4.7,1.2,7.7,4.2,8.6,8.9
	c0.2,1-1,3-2,3.4c-1,0.4-2.6-0.5-3.8-1.1c-0.6-0.3-0.7-1.3-1.1-2c-2.1-3.7-5.5-4-7.5-0.4c-3,5.5-4.7,11.2-3.4,17.6
	c1,5,1.7,10.1,2.6,15.2c1.5,9.3,5.6,17.6,9.2,26.1c4.3,10.1,9.5,20,12.7,30.5c3.1,10.1,5.4,20.7,6,31.2c0.7,12.1-0.4,24.3-4.7,36
	c-3.9,10.4-12.9,15.5-23.7,12.8c-4.2-1.1-8.3-2.8-12.3-4.5c-2.3-1-3.3-3-2-5.3c1.3-2.3,3.3-1.5,5.4-0.7c4.6,1.6,9.1,3.4,13.9,4.2
	c5.3,0.9,10.2-2.4,11.8-7.6c1.6-5,3-10.1,3.8-15.3c0.8-5.1,0.9-10.3,1.3-15.4C361.7,140.9,362,140.8,362.2,140.7z"/>
<path class="st0" d="M430.9,18.6c-4.2-0.7-8.7-1.5-13.2-2.3c-3.1-0.6-4.5-2-4.1-4.2c0.5-2.2,2.2-2.9,5.3-2.4
	c10.3,1.5,20.7,2.8,31,4.2c1.8,0.2,3.7,0.6,5.5,1c2.1,0.5,3.4,1.8,3,3.9c-0.5,2.3-2.2,3-4.5,2.7c-5.2-0.7-10.4-1.4-15.6-2.1
	c-0.8-0.1-1.7,0-1.9,0c0.4,2.7,1,5.3,1.2,7.8c0.9,11.6,1.8,23.1,2.5,34.7c1,16,2.1,31.9,2.8,47.9c0.9,19.2,1.5,38.4,2.2,57.6
	c0.2,5.2,0.1,10.3,0.1,15.5c0,2.4-1,4-3.6,4c-2.5,0-3.1-1.9-3.1-4c-0.9-28.3-1.5-56.6-2.9-84.8c-1-20.9-3.2-41.8-4.7-62.8
	C430.5,29.9,430.9,24.5,430.9,18.6z"/>
<path class="st0" d="M622.2,18c-0.9,0.1-1.4,0.2-1.9,0.3c-2.2,0.5-3.8-0.2-4.1-2.5c-0.4-2.3,0.7-4,3-4.1c3.3-0.2,6.7-0.4,9.8,0.2
	c8.6,1.8,16.3,5.7,23.8,10.1c6.3,3.8,10.9,9,14.3,15.5c5.4,10.5,8.4,21.5,7.8,33.5c-0.5,11.6-0.4,23.2-0.9,34.8
	c-0.3,6.4-1.1,12.8-2.2,19.2c-1.5,8.8-3.3,17.6-5.2,26.4c-2.5,11.7-7.9,21.5-17.9,28.5c-8,5.6-17,5.8-26.1,5.2c-1-0.1-2.8-2.1-2.7-3
	c0.1-1.2,1.6-2.6,2.8-3.4c1.2-0.7,3.5-0.2,4.2-1.1c0.8-1,0.5-3,0.5-4.5c0-15.2,0.2-30.4,0-45.6c-0.1-10.1-0.7-20.3-1.3-30.4
	c-1.2-19.4-2.5-38.8-3.7-58.1c-0.3-5.6-0.2-11.3-0.3-17C622.2,20.6,622.2,19.5,622.2,18z M634.1,178.4c6.4-1.3,11.7-4.2,16.3-9
	c5.6-5.9,7.8-13.2,9.8-20.6c5.5-20.4,7.6-41.2,7.8-62.2c0-5-0.1-10,0.1-14.9c0.5-9-0.6-17.8-4.5-25.9c-2.5-5.2-4.8-10.8-9.6-14.5
	c-7.3-5.8-15.7-9.6-25.1-12.6c0.3,8.9,0.5,17.6,0.9,26.2c0.8,13.6,1.9,27.2,2.6,40.9C634,116.5,636.8,147.3,634.1,178.4z"/>
<path class="st0" d="M809.3,118c1.7-19.6,3.1-39.3,5.2-58.9c1.5-14.3,3.4-28.6,7.7-42.5C824,10.4,828.2,8,833,6
	c3.9-1.6,7.8-0.1,10.6,2.9c8.6,9.2,14.1,20,17.6,32c4,14,5.1,28.4,7,42.7c2.3,17.8,2.4,35.6,0.6,53.5c-1.3,12.8-5.3,25-11.2,36.4
	c-3.9,7.7-10.3,12.7-18.8,14.6c-7.8,1.7-14.5-1-19.1-7.6c-4.6-6.6-6.5-14.1-7.6-21.9c-1.8-13.5-3-27-2.2-40.6
	C809.7,118,809.5,118,809.3,118z M863.6,112.7c-0.8-10.5-1.2-21-2.6-31.5c-1.5-12-3.5-23.9-5.9-35.8c-2.3-11.1-7.4-21.2-14.6-29.9
	c-3.5-4.2-5-4.2-9.2-0.8c-0.9,0.7-1.7,1.7-2,2.7c-1.4,4.3-3.1,8.5-3.7,12.9c-2.4,17.1-5,34.2-6.6,51.3c-2.4,24.7-3.6,49.5-0.4,74.2
	c0.9,7.3,2.3,14.5,6.7,20.7c3,4.2,7.3,5.9,12.3,4.7c6.5-1.6,11.5-5.3,14.3-11.5c1.9-4,3.7-8.2,5.2-12.4
	C862.5,143.1,863.1,128,863.6,112.7z"/>
<path d="M634.1,178.4c2.7-31.2-0.1-61.9-1.7-92.7c-0.7-13.6-1.8-27.2-2.6-40.9c-0.5-8.6-0.6-17.3-0.9-26.2c9.4,3,17.8,6.8,25.1,12.6
	c4.7,3.8,7,9.3,9.6,14.5c3.9,8.1,5,16.9,4.5,25.9c-0.2,5-0.1,10-0.1,14.9c-0.2,21-2.3,41.8-7.8,62.2c-2,7.4-4.2,14.7-9.8,20.6
	C645.8,174.3,640.4,177.1,634.1,178.4z M632.3,23.5c2.4,50.4,7.6,100,6.1,150.6c3-2.2,5.9-4,8.4-6.2c6-5.2,8-12.6,10-19.8
	c5.3-19.6,7.4-39.7,7.7-59.9c0.1-5.8-0.1-11.5,0.1-17.3c0.3-8.4-1.2-16.4-4.3-24.2C655.2,34.2,645,28.2,632.3,23.5z"/>
<path d="M863.6,112.7c-0.5,15.2-1.1,30.3-6.6,44.7c-1.6,4.2-3.3,8.3-5.2,12.4c-2.9,6.1-7.8,9.9-14.3,11.5c-4.9,1.2-9.3-0.5-12.3-4.7
	c-4.4-6.2-5.7-13.4-6.7-20.7c-3.2-24.8-2-49.5,0.4-74.2c1.7-17.2,4.2-34.2,6.6-51.3c0.6-4.4,2.3-8.6,3.7-12.9c0.3-1,1.1-2,2-2.7
	c4.2-3.4,5.7-3.4,9.2,0.8c7.2,8.8,12.3,18.8,14.6,29.9c2.5,11.8,4.4,23.8,5.9,35.8C862.4,91.7,862.8,102.2,863.6,112.7z
	 M820.4,115.2c-0.9,13.2,0,26.9,1.6,40.6c0.8,6.4,1.9,12.8,5.7,18.3c2.6,3.9,5.4,4.8,9.8,3.5c4.9-1.3,8.5-4.2,10.8-8.7
	c5-9.8,8.7-20.1,9.9-31c2.1-18.3,1.9-36.6-0.5-54.9c-1.8-13.6-3-27.4-7.1-40.6c-2.8-8.9-6.9-17-12.7-24.2c-2.1-2.6-3.9-2.3-5.5,0.7
	c-0.5,0.9-0.9,1.8-1.1,2.7c-1.9,8.9-4.1,17.7-5.4,26.6C822.8,70.1,821.2,92.3,820.4,115.2z"/>
<path class="st0" d="M632.3,23.5c12.7,4.6,22.9,10.6,28,23.2c3.2,7.9,4.6,15.8,4.3,24.2c-0.2,5.8,0,11.5-0.1,17.3
	c-0.3,20.3-2.4,40.3-7.7,59.9c-2,7.3-4,14.6-10,19.8c-2.5,2.2-5.4,4-8.4,6.2C639.8,123.5,634.7,73.9,632.3,23.5z"/>
<path class="st0" d="M820.4,115.2c0.7-22.9,2.3-45.1,5.6-67.1c1.3-8.9,3.5-17.8,5.4-26.6c0.2-0.9,0.6-1.9,1.1-2.7
	c1.6-3,3.4-3.3,5.5-0.7c5.8,7.2,9.9,15.4,12.7,24.2c4.1,13.2,5.2,27,7.1,40.6c2.4,18.3,2.5,36.6,0.5,54.9c-1.2,11-4.9,21.2-9.9,31
	c-2.3,4.5-5.9,7.4-10.8,8.7c-4.5,1.2-7.2,0.3-9.8-3.5c-3.7-5.5-4.9-11.9-5.7-18.3C820.4,142.1,819.5,128.4,820.4,115.2z"/>
</svg>
