<?xml version="1.0" encoding="utf-8"?>
<!-- Generator: Adobe Illustrator 24.0.0, SVG Export Plug-In . SVG Version: 6.00 Build 0)  -->
<svg version="1.1" id="Layer_1" xmlns="http://www.w3.org/2000/svg" xmlns:xlink="http://www.w3.org/1999/xlink" x="0px" y="0px"
	 viewBox="0 0 1024 1024" style="enable-background:new 0 0 1024 1024;" xml:space="preserve">
<style type="text/css">
	.st0{fill:url(#SVGID_1_);}
</style>
<linearGradient id="SVGID_1_" gradientUnits="userSpaceOnUse" x1="716.2192" y1="297.5129" x2="136.2766" y2="877.4554">
	<stop  offset="0" style="stop-color:#5CD477"/>
	<stop  offset="1" style="stop-color:#00A99D"/>
</linearGradient>
<path class="st0" d="M85.75,262.29c35.94,0,63.69,10.04,83.23,30.11c19.55,20.07,29.32,47.45,29.32,82.13s-9.77,62.06-29.32,82.13
	c-19.55,20.07-47.29,30.11-83.23,30.11H0V262.29H85.75z M85.12,450.19c22.07,0,39.09-6.46,51.07-19.39
	c11.98-12.93,17.97-31.69,17.97-56.28s-5.99-43.35-17.97-56.28c-11.98-12.93-29-19.39-51.07-19.39H42.56v151.33H85.12z
	 M367.29,486.76h-39.72c-2.1-3.78-3.58-10.4-4.41-19.86c-11.14,15.76-28.59,23.64-52.34,23.64c-17.66,0-31.84-4.26-42.56-12.77
	c-10.72-8.51-16.08-20.54-16.08-36.1c0-29.84,20.81-46.76,62.42-50.76l24.59-2.21c7.99-1.05,13.82-2.94,17.5-5.67
	c3.67-2.73,5.52-7.04,5.52-12.93c0-6.72-2.21-11.77-6.62-15.13c-4.41-3.36-12.09-5.04-23.01-5.04c-11.56,0-19.86,1.89-24.91,5.67
	c-5.04,3.78-7.99,10.51-8.83,20.18h-39.09c2.31-36.99,26.69-55.49,73.14-55.49c45.19,0,67.78,16.29,67.78,48.87v86.7
	C360.67,470.16,362.88,480.45,367.29,486.76z M280.27,462.17c11.77,0,21.7-3.31,29.79-9.93c8.09-6.62,12.14-16.55,12.14-29.79
	v-14.82c-3.78,3.36-9.99,5.57-18.6,6.62l-21.44,2.52c-10.72,1.26-18.29,3.78-22.7,7.57c-4.41,3.78-6.62,9.04-6.62,15.76
	c0,6.94,2.31,12.35,6.94,16.24C264.4,460.23,271.24,462.17,280.27,462.17z M386.99,486.76V324.08h39.72v162.68H386.99z
	 M387.3,302.96v-37.2h39.09v37.2H387.3z M458.87,486.76V262.29h39.72v224.47H458.87z M637.48,324.08h41.62L616.35,500
	c-6.52,18.07-14.93,30.74-25.22,37.99c-10.3,7.25-25.22,10.88-44.77,10.88c-6.52,0-12.3-0.32-17.34-0.95v-31.21h15.13
	c9.03,0,15.76-2.47,20.18-7.41c4.41-4.94,6.62-11.19,6.62-18.76c0-7.57-2.52-18.49-7.57-32.79L516.1,324.08h42.88l13.24,40.67
	c9.67,30.69,18.29,60.96,25.85,90.8c6.94-25.85,15.65-56.01,26.17-90.48L637.48,324.08z M144.08,622.95
	c12.82,4.63,22.54,11.82,29.16,21.6c6.62,9.77,9.93,20.55,9.93,32.31c0,19.97-6.62,35.68-19.86,47.13
	c-13.24,11.46-32.69,17.18-58.33,17.18H0V516.71h101.52c24.38,0,42.56,5.52,54.54,16.55c11.98,11.04,17.97,24.86,17.97,41.46
	C174.03,596.78,164.05,612.86,144.08,622.95z M98.37,551.7h-55.8v58.64h55.8c10.93,0,19.23-2.68,24.91-8.04
	c5.67-5.36,8.51-12.77,8.51-22.23c0-8.62-2.89-15.5-8.67-20.65C117.33,554.28,109.08,551.7,98.37,551.7z M102.78,705.87
	c11.98,0,21.12-2.68,27.43-8.04c6.31-5.36,9.46-12.98,9.46-22.86c0-20.81-12.3-31.21-36.89-31.21H42.56v62.11H102.78z M311.18,578.5
	h39.72v162.68h-38.46v-23.64c-12.4,18.28-29.43,27.43-51.07,27.43c-17.24,0-31-5.04-41.3-15.13c-10.3-10.09-15.45-24.59-15.45-43.51
	V578.5h39.72v101.2c0,20.6,10.19,30.9,30.58,30.9c9.67,0,18.13-3.47,25.38-10.4c7.25-6.94,10.88-17.13,10.88-30.58V578.5z
	 M386.06,741.18V516.71h39.72v224.47H386.06z M457.94,741.18V516.71h39.72v224.47H457.94z M680.35,662.68v9.46H558.66
	c1.47,14.08,5.88,24.59,13.24,31.53c7.35,6.94,17.02,10.41,29.01,10.41c18.29,0,30.68-7.77,37.2-23.33h38.15
	c-4.21,16.61-13.03,29.79-26.48,39.57c-13.45,9.77-29.85,14.66-49.18,14.66c-24.17,0-43.72-7.72-58.64-23.17
	c-14.93-15.45-22.38-36.1-22.38-61.95c0-25.43,7.35-45.98,22.07-61.64c14.71-15.66,34.15-23.49,58.33-23.49
	c24.59,0,44.14,8.09,58.64,24.28C673.1,615.18,680.35,636.4,680.35,662.68z M599.65,605.61c-10.93,0-19.97,3.21-27.11,9.61
	c-7.15,6.41-11.67,16.13-13.56,29.16h81.66c-1.68-11.77-6.05-21.17-13.08-28.22C620.5,609.13,611.2,605.61,599.65,605.61z
	 M782.51,608.77h-32.16v87.96c0,5.26,1.42,8.94,4.26,11.03c2.84,2.1,7.62,3.15,14.34,3.15h13.56v30.27
	c-9.67,0.84-16.61,1.26-20.81,1.26c-17.45,0-30.27-3.26-38.46-9.77c-8.2-6.51-12.3-17.13-12.3-31.84v-92.06h-25.22V578.5h25.22
	v-47.29h39.41v47.29h32.16V608.77z M805.83,741.18V578.5h39.73v162.68H805.83z M806.15,557.37v-37.2h39.09v37.2H806.15z
	 M966.93,574.72c17.44,0,31.32,5.04,41.62,15.13c10.3,10.09,15.45,24.59,15.45,43.51v107.82h-39.72v-101.2
	c0-20.6-10.2-30.9-30.58-30.9c-9.67,0-18.13,3.47-25.38,10.41c-7.25,6.94-10.88,17.13-10.88,30.58v91.11h-39.72V578.5h38.46v23.33
	C928.36,583.75,945.28,574.72,966.93,574.72z"/>
</svg>
