
<svg xmlns="http://www.w3.org/2000/svg" version="1.1" xmlns:xlink="http://www.w3.org/1999/xlink" preserveAspectRatio="none" x="0px" y="0px" width="50px" height="50px" viewBox="0 0 50 50">
<defs>
<g id="platform_icons_10_Layer2_0_FILL">
<path fill="#FFFFFF" stroke="none" d="
M 45.9 37.3
L 45.9 12.7
Q 45.9 4.1 37.3 4.1
L 12.7 4.1
Q 4.1 4.1 4.1 12.7
L 4.1 37.3
Q 4.1 45.95 12.7 45.95
L 37.3 45.95
Q 45.9 45.95 45.9 37.3
M 43 12.7
L 43 37.3
Q 43 43.05 37.3 43.05
L 12.7 43.05
Q 6.95 43.05 6.95 37.3
L 6.95 12.7
Q 6.95 7 12.7 7
L 37.3 7
Q 43 7 43 12.7
M 17.25 11.3
Q 16 10 14.25 10 12.5 10 11.25 11.3 10 12.5 10 14.25 10 16.05 11.25 17.25 12.5 18.5 14.25 18.5 16 18.5 17.25 17.25 18.55 16.05 18.55 14.25 18.55 12.5 17.25 11.3
M 40.9 37.65
L 41.05 12.1 33.15 12.1 33.45 26.95 30.6 27.25 29.9 17.95 21.1 18.15 21.4 31.7 19.6 31.85 18.85 21.35 9.05 22.05 9.05 37.65
Q 9.05 40.15 11 40.75 11.6 40.95 12.35 40.95
L 37.5 40.85
Q 38.35 40.8 39.25 40.45 40.25 40 40.65 39.25 40.9 38.6 40.9 37.65
M 25.8 20.5
L 25.9 24.25 23.05 24.3 22.95 20.55 25.8 20.5
M 39.5 14.5
L 39.6 17.2 37 17.15 36.8 14.55 39.5 14.5
M 35.3 21.1
L 38.1 21.1 38.15 25.35 35.35 25.55 35.3 21.1
M 10.75 24.1
L 13.6 23.95 13.75 26.35 10.7 26.55 10.75 24.1
M 14.85 31.65
L 14.75 27.1 17.5 26.85 17.9 31.5 14.85 31.65
M 29.3 28.45
L 29.55 32.55 26.55 32.75 26.45 28.5 29.3 28.45 Z"/>
</g>
</defs>

<g transform="matrix( 1, 0, 0, 1, 0,0) ">
<g transform="matrix( 1, 0, 0, 1, 0,0) ">
<use xlink:href="#platform_icons_10_Layer2_0_FILL"/>
</g>
</g>
</svg>
