<svg xmlns="http://www.w3.org/2000/svg" width="28px" height="28px" viewBox="0 0 28 28"><path fill="#14bf96" d="M2.31,5.8A3.56,3.56,0,0,0,.66,8.6V19.4a3.56,3.56,0,0,0,1.65,2.8L12,27.62a3.75,3.75,0,0,0,3.3,0L25,22.2a3.56,3.56,0,0,0,1.65-2.8V8.6A3.56,3.56,0,0,0,25,5.8L15.31.38a3.75,3.75,0,0,0-3.3,0Z"></path><path fill="#ffffff" d="M23.61,11.32c-5.38,0-9.4,4.46-9.4,9.93v.23H13.13v-.23c0-5.47-4-9.91-9.42-9.93,0,.34,0,.69,0,1a9.91,9.91,0,0,0,6.4,9.32,10.47,10.47,0,0,0,3.59.64,10.64,10.64,0,0,0,3.62-.64,9.92,9.92,0,0,0,6.39-9.32C23.66,12,23.64,11.66,23.61,11.32Z"></path><circle fill="#ffffff" cx="13.66" cy="8.74" r="3"></circle></svg>