<svg data-name="Layer 1" xmlns="http://www.w3.org/2000/svg" xmlns:xlink="http://www.w3.org/1999/xlink" viewBox="0 0 29.96 29.95"><defs><linearGradient id="b" x1="350.86" y1="530.15" x2="239.01" y2="608.47" gradientTransform="matrix(.17 0 0 .17 -35.56 -81.52)" gradientUnits="userSpaceOnUse"><stop offset="0" stop-color="#00aeef"/><stop offset="1" stop-color="#1c75bc"/></linearGradient><linearGradient id="a" x1="641.34" y1="640.11" x2="152.74" y2="536.77" gradientTransform="matrix(.17 0 0 .17 -35.56 -81.52)" gradientUnits="userSpaceOnUse"><stop offset="0" stop-color="#05679f"/><stop offset="1" stop-color="#fff" stop-opacity="0"/></linearGradient><linearGradient id="c" x1="65" y1="783.97" x2="317.11" y2="549.2" xlink:href="#a"/></defs><title>mb-logo-globe</title><path d="M4.55 4.48a14.88 14.88 0 0 1 21 0 14.88 14.88 0 0 1 0 21 14.88 14.88 0 0 1-21 0 14.88 14.88 0 0 1 0-21z" fill="#203a52"/><path d="M23.41 6.57a11.19 11.19 0 1 0 .11.1zm.36 3.43A10 10 0 0 1 25 13.62a12.73 12.73 0 0 1-1.7-.64 14.51 14.51 0 0 0 .51-3zm-3.56 1L22 9.23a12.77 12.77 0 0 1-.36 2.83A12.81 12.81 0 0 1 20.21 11zm.79 2.85a12.77 12.77 0 0 1-2.2 3.56l-2.53-2.53 2.59-2.59A14.62 14.62 0 0 0 21 13.85zM18.92 9.7a12.85 12.85 0 0 1-1.07-1.41 12.74 12.74 0 0 1 2.83-.36zm1-3.56a14.51 14.51 0 0 0-3 .51 12.71 12.71 0 0 1-.64-1.71 9.91 9.91 0 0 1 3.63 1.21zM17.67 11L15 13.62l-2.53-2.53a12.77 12.77 0 0 1 3.56-2.2 14.64 14.64 0 0 0 1.57 2.17zm-4 3.95l-2.59 2.59A14.62 14.62 0 0 0 9 16a12.77 12.77 0 0 1 2.23-3.5zm.66-10a14.55 14.55 0 0 0 .82 2.37 14.6 14.6 0 0 0-4 2.53l-2.56-2.6A9.92 9.92 0 0 1 14.38 5zM6.29 19.84a10 10 0 0 1-1.14-3.62 12.71 12.71 0 0 1 1.7.64 14.51 14.51 0 0 0-.56 2.98zM5 14.37a10 10 0 0 1 2.31-5.79l2.59 2.59a14.6 14.6 0 0 0-2.53 4A14.54 14.54 0 0 0 5 14.32zm3.41 3.41a12.81 12.81 0 0 1 1.41 1.07l-1.74 1.78a12.76 12.76 0 0 1 .36-2.83zm2.7 2.36a12.82 12.82 0 0 1 1.07 1.41 12.76 12.76 0 0 1-2.83.36zm-1 3.56a14.51 14.51 0 0 0 3-.5 12.72 12.72 0 0 1 .64 1.71 9.91 9.91 0 0 1-3.62-1.21zm2.28-4.85L15 16.26l2.53 2.53A12.77 12.77 0 0 1 14 21a14.62 14.62 0 0 0-1.61-2.15zM15.61 25a14.57 14.57 0 0 0-.81-2.37 14.6 14.6 0 0 0 4-2.53l2.59 2.59a9.92 9.92 0 0 1-5.79 2.28zm7.08-3.58l-2.59-2.64a14.6 14.6 0 0 0 2.56-4 14.55 14.55 0 0 0 2.37.81 10 10 0 0 1-2.28 5.79z" transform="translate(-.06 .04)" fill="url(#b)"/><path d="M14.94.04a15 15 0 1 0 15 15 15 15 0 0 0-15-15zm0 28.13a13.15 13.15 0 1 1 13.19-13.19 13.18 13.18 0 0 1-13.19 13.16z" fill="#f2f2f2"/><path d="M15 .87a14.06 14.06 0 1 0 14.1 14.07A14.06 14.06 0 0 0 15 .87zm0 27.22a13.15 13.15 0 1 1 13.19-13.15A13.18 13.18 0 0 1 15 28.1z" transform="translate(-.06 .04)" fill="url(#a)"/><path d="M15 0a15 15 0 1 0 15 15A15 15 0 0 0 15 0zm0 29a14.06 14.06 0 1 1 14.1-14.06A14.06 14.06 0 0 1 15 29z" transform="translate(-.06 .04)" fill="url(#c)"/><path d="M14.94.04a15 15 0 1 0 15 15 15 15 0 0 0-15-15zm0 28.13a13.15 13.15 0 1 1 13.19-13.19 13.18 13.18 0 0 1-13.19 13.16z" fill="none"/></svg>