<?xml version="1.0" encoding="UTF-8"?>
<svg width="28px" height="36px" viewBox="0 0 28 36" version="1.1" xmlns="http://www.w3.org/2000/svg" xmlns:xlink="http://www.w3.org/1999/xlink">
  <title>PowerSchool</title>
  <g id="PowerSchool" stroke="none" stroke-width="1" fill="none" fill-rule="evenodd">
    <path d="M15.0310916,0 L8.89083786,0 C8.73081485,0 8.58488192,0.052 8.46410985,0.138 C8.25376514,0.266 8.11185795,0.494 8.11185795,0.758 L8.11185795,34.543 L5.49915531,34.543 L5.49915531,0.758 C5.49915531,0.355 5.17105783,0.029 4.76647137,0.029 L0.733690378,0.029 C0.329103914,0.029 0,0.355 0,0.758 L0,35.24 C0,35.62 0.280795083,35.96 0.662233565,35.996 C1.09902592,36.038 1.46637432,35.697 1.46637432,35.271 L1.46637432,1.486 L4.03278099,1.486 L4.03278099,35.271 C4.03278099,35.674 4.36087847,36 4.76647137,36 L8.84554833,36 C9.25013479,36 9.57823227,35.674 9.57823227,35.271 L9.57823227,2.007 C9.57823227,1.703 9.82581503,1.457 10.131771,1.457 L15.0310916,1.457 C21.4813271,1.457 26.5336257,6.577 26.5336257,13.113 C26.5336257,19.649 21.4813271,24.77 15.0310916,24.77 L13.6100068,24.77 L13.6100068,22.571 L14.2651954,22.571 C19.4785234,22.571 23.7297006,18.414 23.8051831,13.275 C23.883685,7.985 19.4352468,3.655 14.1102045,3.655 L12.8763165,3.655 C12.47173,3.655 12.1436325,3.981 12.1436325,4.384 L12.1436325,8.225 C12.1436325,8.488 12.2845333,8.717 12.4958844,8.845 C12.6237015,8.953 12.7877503,9.021 12.9689084,9.021 L13.6995795,9.021 C15.8452967,9.021 17.6739873,10.676 17.7555084,12.805 C17.8400489,15.044 16.031487,16.893 13.7972036,16.893 L12.9085223,16.893 C12.525071,16.893 12.1828834,17.17 12.1466518,17.549 C12.105388,17.983 12.4475756,18.35 12.8763165,18.35 L13.6814636,18.35 C16.634341,18.35 19.134323,16.053 19.2218828,13.12 C19.3134682,10.072 16.8446857,7.564 13.7972036,7.564 L13.6100068,7.564 L13.6100068,5.112 L14.1192624,5.112 C18.624061,5.112 22.4032206,8.774 22.3388088,13.25 C22.2774163,17.597 18.6794148,21.114 14.2651954,21.114 L12.8763165,21.114 C12.47173,21.114 12.1436325,21.44 12.1436325,21.843 L12.1436325,25.498 C12.1436325,25.9 12.47173,26.227 12.8763165,26.227 L15.0310916,26.227 C22.3035836,26.227 28,20.467 28,13.113 C28,5.76 22.3035836,0 15.0310916,0" id="P" fill="#FFFFFF"></path>
  </g>
</svg>
