<?xml version="1.0" encoding="utf-8"?>
<!-- Generator: Adobe Illustrator 22.1.0, SVG Export Plug-In . SVG Version: 6.00 Build 0)  -->
<svg version="1.1" id="Layer_1" xmlns="http://www.w3.org/2000/svg" xmlns:xlink="http://www.w3.org/1999/xlink" x="0px" y="0px"
	 viewBox="0 0 1024 870.4" style="enable-background:new 0 0 1024 870.4;" xml:space="preserve">
<style type="text/css">
	.st0{fill:url(#SVGID_1_);}
	.st1{fill:url(#SVGID_2_);}
	.st2{fill:url(#SVGID_3_);}
	.st3{fill:url(#SVGID_4_);}
	.st4{fill:url(#SVGID_5_);}
	.st5{fill:url(#SVGID_6_);}
</style>
<g>
	
		<linearGradient id="SVGID_1_" gradientUnits="userSpaceOnUse" x1="256" y1="2" x2="256" y2="872.4" gradientTransform="matrix(1 0 0 -1 0 872.4)">
		<stop  offset="0" style="stop-color:#DD1E15"/>
		<stop  offset="1" style="stop-color:#FC9A5D"/>
	</linearGradient>
	<polygon class="st0" points="0,694.2 414.9,0 512,176.2 113.8,870.4 	"/>
	
		<linearGradient id="SVGID_2_" gradientUnits="userSpaceOnUse" x1="416.945" y1="2" x2="416.945" y2="696.19" gradientTransform="matrix(1 0 0 -1 0 872.4)">
		<stop  offset="0" style="stop-color:#C1000F"/>
		<stop  offset="1" style="stop-color:#E23D30"/>
	</linearGradient>
	<polygon class="st1" points="512,176.2 720.1,176.2 313.2,870.4 113.8,870.4 	"/>
	
		<linearGradient id="SVGID_3_" gradientUnits="userSpaceOnUse" x1="512" y1="258.795" x2="820.45" y2="258.795" gradientTransform="matrix(1 0 0 -1 0 872.4)">
		<stop  offset="0" style="stop-color:#DB6027"/>
		<stop  offset="1" style="stop-color:#EA2F16"/>
	</linearGradient>
	<polygon class="st2" points="614.2,356.8 820.5,694.2 720.1,870.4 512,531.2 	"/>
	
		<linearGradient id="SVGID_4_" gradientUnits="userSpaceOnUse" x1="720.03" y1="90.125" x2="1023.95" y2="90.125" gradientTransform="matrix(1 0 0 -1 0 872.4)">
		<stop  offset="0" style="stop-color:#C1000F"/>
		<stop  offset="1" style="stop-color:#E23D30"/>
	</linearGradient>
	<polygon class="st3" points="820.4,694.2 1024,694.2 922.2,870.4 720,870.4 	"/>
	
		<linearGradient id="SVGID_5_" gradientUnits="userSpaceOnUse" x1="615.6925" y1="591.8126" x2="1026.6174" y2="180.8875" gradientTransform="matrix(1 0 0 -1 0 872.4)">
		<stop  offset="1.226837e-03" style="stop-color:#E3A143"/>
		<stop  offset="0.214" style="stop-color:#E98B3E"/>
		<stop  offset="0.5079" style="stop-color:#EF7239"/>
		<stop  offset="0.778" style="stop-color:#F36336"/>
		<stop  offset="1" style="stop-color:#F45E35"/>
	</linearGradient>
	<polygon class="st4" points="1024,694.1 720.1,176.2 614.2,356.8 820.5,694.1 	"/>
	
		<linearGradient id="SVGID_6_" gradientUnits="userSpaceOnUse" x1="444.975" y1="902.435" x2="685.65" y2="661.76" gradientTransform="matrix(1 0 0 -1 0 872.4)">
		<stop  offset="0" style="stop-color:#FBCC5B"/>
		<stop  offset="1" style="stop-color:#EE4727"/>
	</linearGradient>
	<polygon class="st5" points="414.9,0 614.2,0 720.1,176.2 512,176.2 	"/>
</g>
</svg>
