<?xml version="1.0" encoding="utf-8"?>
<!-- Generator: Adobe Illustrator 22.1.0, SVG Export Plug-In . SVG Version: 6.00 Build 0)  -->
<svg version="1.1" id="Layer_1" xmlns="http://www.w3.org/2000/svg" xmlns:xlink="http://www.w3.org/1999/xlink" x="0px" y="0px"
	 viewBox="0 0 396.3 373.9" style="enable-background:new 0 0 396.3 373.9;" xml:space="preserve">
<style type="text/css">
	.st0{fill:#33CCFF;}
	.st1{fill:#A5FFFF;}
	.st2{font-family:'ArialMT';}
	.st3{font-size:52.5356px;}
</style>
<g transform="matrix( 0.471099853515625, 0, 0, 0.4666595458984375, 34.25,34.55) ">
	<g transform="matrix( 1, 0, 0, 1, 0,0) ">
		<g>
			<g id="BrainPOP_Logo_Line_0_0_Layer0_0_FILL">
				<path class="st0" d="M-40.7-13.3c-21.6,18.8-32.3,46-32,81.6c0.2,34.7,10.5,74.9,31,120.7C1.5,285.8,75.6,383.6,180.6,482.4
					c105,98.5,210.2,169.1,315.6,211.8c49.6,20.3,93.6,31.2,131.9,32.7c39.5,1.8,70.2-6.8,91.8-25.7c21.6-18.7,32.3-45.9,32-81.6
					c-0.2-34.6-10.5-74.7-31-120.3c-43.3-96.9-117.5-194.8-222.7-293.8C393.2,106.9,288,36.3,182.7-6.3
					C133.2-26.8,89.2-37.8,50.8-39.4C11.4-40.8-19.1-32.2-40.7-13.3z"/>
			</g>
		</g>
	</g>
	<g transform="matrix( 1, 0, 0, 1, 0,0) ">
		<g>
			<g id="BrainPOP_Logo_Line_0_0_Layer0_0_MEMBER_0_FILL">
				<path class="st1" d="M198.5-41.1C149-61.3,105.1-72.2,66.6-73.8c-39.4-1.7-69.8,6.9-91.5,25.7c-21.7,18.8-32.5,46-32.4,81.6
					c0.3,34.9,10.6,75.1,31,120.7c43.4,97,117.6,194.8,222.7,293.4C301.4,546.3,406.6,617,512,659.7c49.6,20.4,93.6,31.4,131.9,33.1
					c39.5,1.6,70-7.1,91.5-26c21.8-18.7,32.6-45.9,32.4-81.6c-0.3-34.6-10.7-74.7-31.3-120.3c-43.1-96.9-117.1-194.7-222-293.4
					C409.3,72.6,304,1.7,198.5-41.1z"/>
			</g>
		</g>
	</g>
	<g transform="matrix( 1, 0, 0, 1, 0,0) ">
		<g>
			<g id="BrainPOP_Logo_Line_0_0_Layer0_1_MEMBER_0_FILL">
				<path d="M237.2,112.6c-2.4,4.1-3.5,8.3-3.5,12.7c0,13.6,5.5,20.3,16.5,20c5.1,0,9.4-2.2,13-6.7v-0.4c3-4.2,4.5-9.1,4.6-14.8
					c0-9.3-3.5-18-10.5-26.4c-7.6-8.4-17.4-12.6-29.2-12.7c-21-0.2-40,13.3-57,40.5V95.7c0-1-0.4-1.8-1.1-2.5
					c-0.7-0.7-1.5-1.1-2.5-1.1h-51.4c-1,0-1.8,0.4-2.5,1.1c-0.7,0.7-1,1.5-1.1,2.5v14.1c0,1,0.4,1.8,1.1,2.5c0.7,0.7,1.5,1,2.5,1.1
					h35.2v125.6h-26c-1,0-1.8,0.4-2.5,1.1c-0.7,0.7-1.1,1.5-1.1,2.5v14.4c0,1,0.4,1.8,1.1,2.5c0.7,0.7,1.5,1,2.5,1.1h78.4
					c1,0,1.8-0.4,2.5-1.1c0.7-0.7,1.1-1.5,1.1-2.5v-14.4c0-1-0.4-1.8-1.1-2.5c-0.7-0.7-1.5-1-2.5-1.1h-32.7v-72.5
					c0.1-4.7,2.1-11.2,6-19.3c4.1-8.3,8.9-15.8,14.4-22.5c11.9-13.4,23.7-20.2,35.2-20.4c3.5,0,6.6,0.7,9.1,2.1h-0.4
					c1.8,1.2,2.7,2.5,2.8,3.9c0,0.8-0.2,1.5-0.7,2.1C237.5,112.4,237.4,112.5,237.2,112.6 M21.9,297.7c-1,0-1.8,0.4-2.5,1.1
					c-0.7,0.7-1,1.5-1.1,2.5v18.6c0,1,0.4,1.8,1.1,2.5c0.7,0.7,1.5,1,2.5,1.1h31.7v274.1H23.3c-1,0-1.8,0.4-2.5,1.1
					c-0.7,0.7-1,1.5-1.1,2.5v18.6c0,1,0.4,1.8,1.1,2.5c0.7,0.7,1.5,1,2.5,1.1h91.5c1,0,1.8-0.4,2.5-1.1c0.7-0.7,1.1-1.5,1.1-2.5
					v-18.6c0-1-0.4-1.8-1.1-2.5c-0.7-0.7-1.5-1-2.5-1.1H75.4V483.8h58.4c25.8,0,45.9-8.3,60.5-25c14.5-16.4,21.8-39.1,21.8-68.2
					c0-28.9-7.1-51.5-21.1-67.9c-14.1-16.6-33.5-25-58-25L21.9,297.7 M132.1,323.4c40.3,0.1,60.5,22.6,60.5,67.5
					c0,44.5-21.1,66.8-63.3,66.8H75.4V323.4H132.1 M-58.6,17.3c-0.7,0.7-1,1.5-1.1,2.5v14.1c0,1,0.4,1.8,1.1,2.5
					c0.7,0.7,1.5,1,2.5,1.1h27.4v205.1h-27.4c-1,0-1.8,0.4-2.5,1.1c-0.7,0.7-1,1.5-1.1,2.5V260c0,1,0.4,1.8,1.1,2.5
					c0.7,0.7,1.5,1,2.5,1.1h88.3c21.9,0,39.2-6.2,51.7-18.6c12.7-12.5,19-29.7,19-51.4c0-21.4-6.6-38.9-19.7-52.4
					c-5.1-5.2-12-9.6-20.8-13.4C85,116.1,96.2,98.1,96.2,73.6c0-17.5-5.5-31.4-16.5-41.9v-0.3c-10.9-10.1-25.6-15.1-44-15.1h-91.8
					C-57.1,16.2-57.9,16.6-58.6,17.3 M-9,37.3h46.4c12.1,0,21.6,3.2,28.5,9.5c6.8,6.5,10.2,15.4,10.2,26.7
					c0,13.8-5.1,24.9-15.5,33.1c-11,8.7-25.5,13-43.6,13H-9V37.3 M-9,140.8h40.1c15.6,0,28.2,4.9,37.6,14.8c9.6,9.9,14.4,23,14.4,39
					c0,14.7-4.3,26.4-13,35.2c-8.8,8.5-20.6,12.7-35.5,12.7H-9V140.8 M476.1,403.2c-5.3-23.3-12.3-41.6-21.1-54.9
					c-24-37.5-59.2-56.3-105.5-56.3c-23,0-44.2,6.2-63.7,18.6v0.4c-19.6,13.7-35.1,33.9-46.4,60.9c-11.2,27.2-16.9,57.8-16.9,91.8
					c0,24.4,2.6,48,7.7,70.7l0,0c5.3,23.3,12.3,41.7,21.1,55.2c24.5,37.5,59.1,56.3,103.8,56.3c33.2,0,59.9-10,80.2-29.9
					c14-13.8,23.8-27.7,29.2-41.9v0.3c12.9-30.7,19.3-63.5,19.4-98.5C483.9,450.7,481.3,426.4,476.1,403.2 M434.6,369.1
					c13.6,26.7,20.4,60.7,20.4,102c0,48.2-8.7,85.1-26,110.8c-16.8,25.4-41,38-72.8,38c-31.7,0-57-13-76-39
					c-19.2-26.7-28.9-62.3-28.9-106.9c0-22.5,2.4-44.2,7-65.1c4.6-20.6,10.4-36.4,17.6-47.5c18.9-29.3,45.3-43.9,79.2-44
					c16.7,0,32.4,5,47.1,14.8C415.9,341.5,426.7,353.8,434.6,369.1 M487.4,300.5c-0.7,0.7-1,1.5-1.1,2.5v18.6c0,1,0.4,1.8,1.1,2.5
					c0.7,0.7,1.5,1,2.5,1.1h31.3v274.1h-29.9c-1,0-1.8,0.4-2.5,1.1c-0.7,0.7-1,1.5-1.1,2.5v18.6c0,1,0.4,1.8,1.1,2.5
					c0.7,0.7,1.5,1,2.5,1.1h91.1c1,0,1.8-0.4,2.5-1.1c0.7-0.7,1-1.5,1.1-2.5v-18.6c0-1-0.4-1.8-1.1-2.5c-0.7-0.7-1.5-1-2.5-1.1h-39
					V485.9h58.4c25.8,0,45.9-8.5,60.5-25.3c14.5-16.4,21.8-39.1,21.8-68.2c0-28.9-7-51.5-21.1-67.9c-14.1-16.6-33.5-25-58-25h-115
					C488.9,299.4,488.1,299.8,487.4,300.5 M597.1,459.9h-53.8V325.1h56.3c40.6,0.1,60.9,22.7,60.9,67.9
					C660.5,437.5,639.4,459.8,597.1,459.9 M354.4,79.6c26.4,0,39.6,12,39.8,35.9v13c-7.4,1.7-17,3.3-28.9,4.9
					c-19.2,2.9-34,6.2-44.3,10.2l0,0c-10.4,4.4-18.8,10.3-25.3,17.9l0,0c-8.7,10.9-13,23.1-13,36.6c0,11.9,3.5,21.8,10.5,29.5
					c8.6,10.6,22.2,15.8,40.8,15.8c13.8,0,25.5-2.5,35.2-7.4c8.1-4.3,16.8-11.3,26-21.1c3.4,19.2,13.4,28.7,29.9,28.5
					c7.2,0,14.3-2.1,21.5-6.3c0.5-0.2,0.9-0.5,1.1-1.1c0.5-0.5,0.7-1.1,0.7-1.8v-14.4c0-0.9-0.4-1.7-1.1-2.5
					c-0.5-0.6-1.2-0.9-2.1-1.1c-0.9-0.1-1.7,0.2-2.5,0.7c-7.1,5-12.8,7.6-16.9,7.7c-3.3,0-6.1-1.6-8.4-4.6
					c-2.6-3.4-3.9-7.5-3.9-12.3v-90.1c0-20.6-4.7-35.5-14.1-44.7c-8.9-9.4-23.6-14.1-44-14.1c-19.5,0-35.2,4.8-47.1,14.4l0,0
					c-11.6,10-17.3,20.9-17.2,32.7c0,5.3,1.7,9.9,4.9,13.7c3.4,4,7.6,6,12.7,6c5.3,0,9.6-2.1,13-6.3h0.4c3.3-4.1,5-9.2,4.9-15.5
					c0-6.1-1.8-11.2-5.3-15.5C331.2,82.6,342.2,79.5,354.4,79.6 M394.2,150.6v33.8c-17.4,25.9-37.6,38.9-60.9,39
					c-9.4,0-17-2.6-22.9-7.7c-5.4-4.9-8.1-11.3-8.1-19.3c0-6.9,2.2-13.1,6.7-18.6c5.4-6.2,11.9-10.9,19.7-14.1h0.4
					c8.3-3.4,21.2-6.3,38.7-8.8L394.2,150.6 M573.9,114.7v14.1c0,1,0.4,1.8,1.1,2.5c0.7,0.7,1.5,1.1,2.5,1.1h26.7v125.9h-24.6
					c-1,0-1.8,0.4-2.5,1.1c-0.7,0.7-1,1.5-1.1,2.5v14.1c0,1,0.4,1.8,1.1,2.5c0.7,0.7,1.5,1,2.5,1.1h68.2c1,0,1.8-0.4,2.5-1.1
					c0.7-0.7,1-1.5,1.1-2.5v-14.4c0-1-0.4-1.8-1.1-2.5c-0.7-0.7-1.5-1-2.5-1.1h-23.9v-84.1c14.4-30,32.2-45.1,53.5-45.4
					c20.2,0.2,30.3,13,30.3,38.3v91.1h-22.9c-1,0-1.8,0.4-2.5,1.1c-0.7,0.7-1,1.5-1.1,2.5v14.4c0,1,0.4,1.8,1.1,2.5
					c0.7,0.7,1.5,1,2.5,1.1h65.4c1,0,1.8-0.4,2.5-1.1c0.7-0.7,1-1.5,1.1-2.5v-14.4c0-1-0.4-1.8-1.1-2.5c-0.7-0.7-1.5-1-2.5-1.1
					h-22.9v-92.5c0-18.1-4.4-32.3-13-42.6c-8.2-10.1-20.1-15.1-35.5-15.1c-12.5,0-23.3,3.2-32.4,9.5v-0.4
					c-7.1,5-14.5,12.6-22.2,22.9v-25c0-1-0.4-1.8-1.1-2.5c-0.7-0.7-1.5-1.1-2.5-1.1h-43.3c-1,0-1.8,0.4-2.5,1.1
					C574.3,113,573.9,113.8,573.9,114.7 M521.5,80.6c-0.7-0.7-1.5-1.1-2.5-1.1H454c-1,0-1.8,0.4-2.5,1.1c-0.7,0.7-1,1.5-1.1,2.5
					v14.1c0,1,0.4,1.8,1.1,2.5c0.7,0.7,1.5,1.1,2.5,1.1h48.9v125.9h-45.7c-1,0-1.8,0.4-2.5,1.1c-0.7,0.7-1,1.5-1.1,2.5v14.4
					c0,1,0.4,1.8,1.1,2.5c0.7,0.7,1.5,1,2.5,1.1h115c1,0,1.8-0.4,2.5-1.1c0.7-0.7,1-1.5,1.1-2.5v-14.4c0-1-0.4-1.8-1.1-2.5
					c-0.7-0.7-1.5-1-2.5-1.1h-49.6V83.1C522.6,82.1,522.2,81.3,521.5,80.6 M522.2-0.3L522.2-0.3c-4.6-5-10.1-7.4-16.5-7.4
					c-6.2,0-11.5,2.6-15.8,7.7v0.3c-4.2,4.8-6.3,10.7-6.3,17.6c0,7.2,2.1,13.3,6.3,18.3c4.6,5.4,10,8.1,16.2,8.1
					c6.4,0,11.8-2.7,16.2-8.1c4.4-5,6.7-11.1,6.7-18.3C528.9,11,526.6,4.9,522.2-0.3z"/>
			</g>
		</g>
	</g>
	<g transform="matrix( 1, 0, 0, 1, -18.6,-6.4) ">
		<g>
			<text transform="matrix(2.1429 0 0 2.1429 704.0452 384.2957)" class="st2 st3">®</text>
		</g>
	</g>
</g>
</svg>
