<?xml version="1.0" encoding="utf-8"?>
<!-- Generator: Adobe Illustrator 24.0.0, SVG Export Plug-In . SVG Version: 6.00 Build 0)  -->
<svg version="1.1" id="Layer_1" xmlns="http://www.w3.org/2000/svg" xmlns:xlink="http://www.w3.org/1999/xlink" x="0px" y="0px"
	 viewBox="0 0 1280 680" style="enable-background:new 0 0 1280 680;" xml:space="preserve">
<style type="text/css">
	.st0{fill:url(#SVGID_1_);}
</style>
<linearGradient id="SVGID_1_" gradientUnits="userSpaceOnUse" x1="844.2192" y1="518.1193" x2="264.2825" y2="-61.8175" gradientTransform="matrix(1 0 0 -1 0 682)">
	<stop  offset="0" style="stop-color:#5CD477"/>
	<stop  offset="1" style="stop-color:#00A99D"/>
</linearGradient>
<path class="st0" d="M213.75,128.66c35.94,0,63.69,10.04,83.23,30.11c19.55,20.07,29.32,47.45,29.32,82.13s-9.77,62.06-29.32,82.13
	s-47.29,30.11-83.23,30.11H128V128.66H213.75z M213.12,316.56c22.07,0,39.09-6.46,51.07-19.39c11.98-12.93,17.97-31.69,17.97-56.28
	s-5.99-43.35-17.97-56.28c-11.98-12.93-29-19.39-51.07-19.39h-42.56v151.33h42.56V316.56z M495.29,353.13h-39.72
	c-2.1-3.78-3.58-10.4-4.41-19.86c-11.14,15.76-28.59,23.64-52.34,23.64c-17.66,0-31.84-4.26-42.56-12.77
	c-10.72-8.51-16.08-20.54-16.08-36.1c0-29.84,20.81-46.76,62.42-50.76l24.59-2.21c7.99-1.05,13.82-2.94,17.5-5.67
	c3.67-2.73,5.52-7.04,5.52-12.93c0-6.72-2.21-11.77-6.62-15.13s-12.09-5.04-23.01-5.04c-11.56,0-19.86,1.89-24.91,5.67
	c-5.04,3.78-7.99,10.51-8.83,20.18h-39.09c2.31-36.99,26.69-55.49,73.14-55.49c45.19,0,67.78,16.29,67.78,48.87v86.7
	C488.67,336.53,490.88,346.82,495.29,353.13z M408.27,328.54c11.77,0,21.7-3.31,29.79-9.93s12.14-16.55,12.14-29.79V274
	c-3.78,3.36-9.99,5.57-18.6,6.62l-21.44,2.52c-10.72,1.26-18.29,3.78-22.7,7.57c-4.41,3.78-6.62,9.04-6.62,15.76
	c0,6.94,2.31,12.35,6.94,16.24C392.4,326.6,399.24,328.54,408.27,328.54z M514.99,353.13V190.45h39.72v162.68H514.99z M515.3,169.33
	v-37.2h39.09v37.2H515.3z M586.87,353.13V128.66h39.72v224.47H586.87z M765.48,190.45h41.62l-62.75,175.92
	c-6.52,18.07-14.93,30.74-25.22,37.99c-10.3,7.25-25.22,10.88-44.77,10.88c-6.52,0-12.3-0.32-17.34-0.95v-31.21h15.13
	c9.03,0,15.76-2.47,20.18-7.41c4.41-4.94,6.62-11.19,6.62-18.76s-2.52-18.49-7.57-32.79L644.1,190.45h42.88l13.24,40.67
	c9.67,30.69,18.29,60.96,25.85,90.8c6.94-25.85,15.65-56.01,26.17-90.48L765.48,190.45z M272.08,489.32
	c12.82,4.63,22.54,11.82,29.16,21.6c6.62,9.77,9.93,20.55,9.93,32.31c0,19.97-6.62,35.68-19.86,47.13
	c-13.24,11.46-32.69,17.18-58.33,17.18H128V383.08h101.52c24.38,0,42.56,5.52,54.54,16.55c11.98,11.04,17.97,24.86,17.97,41.46
	C302.03,463.15,292.05,479.23,272.08,489.32z M226.37,418.07h-55.8v58.64h55.8c10.93,0,19.23-2.68,24.91-8.04
	c5.67-5.36,8.51-12.77,8.51-22.23c0-8.62-2.89-15.5-8.67-20.65C245.33,420.65,237.08,418.07,226.37,418.07z M230.78,572.23
	c11.98,0,21.12-2.68,27.43-8.04s9.46-12.98,9.46-22.86c0-20.81-12.3-31.21-36.89-31.21h-60.22v62.11L230.78,572.23L230.78,572.23z
	 M439.18,444.87h39.72v162.68h-38.46V583.9c-12.4,18.28-29.43,27.43-51.07,27.43c-17.24,0-31-5.04-41.3-15.13
	s-15.45-24.59-15.45-43.51V444.87h39.72v101.2c0,20.6,10.19,30.9,30.58,30.9c9.67,0,18.13-3.47,25.38-10.4
	c7.25-6.94,10.88-17.13,10.88-30.58V444.87z M514.06,607.54V383.08h39.72v224.47H514.06z M585.94,607.54V383.08h39.72v224.47H585.94
	z M808.35,529.04v9.46H686.66c1.47,14.08,5.88,24.59,13.24,31.53c7.35,6.94,17.02,10.41,29.01,10.41c18.29,0,30.68-7.77,37.2-23.33
	h38.15c-4.21,16.61-13.03,29.79-26.48,39.57c-13.45,9.77-29.85,14.66-49.18,14.66c-24.17,0-43.72-7.72-58.64-23.17
	c-14.93-15.45-22.38-36.1-22.38-61.95c0-25.43,7.35-45.98,22.07-61.64c14.71-15.66,34.15-23.49,58.33-23.49
	c24.59,0,44.14,8.09,58.64,24.28C801.1,481.55,808.35,502.77,808.35,529.04z M727.65,471.98c-10.93,0-19.97,3.21-27.11,9.61
	c-7.15,6.41-11.67,16.13-13.56,29.16h81.66c-1.68-11.77-6.05-21.17-13.08-28.22C748.5,475.5,739.2,471.98,727.65,471.98z
	 M910.51,475.14h-32.16v87.96c0,5.26,1.42,8.94,4.26,11.03c2.84,2.1,7.62,3.15,14.34,3.15h13.56v30.27
	c-9.67,0.84-16.61,1.26-20.81,1.26c-17.45,0-30.27-3.26-38.46-9.77c-8.2-6.51-12.3-17.13-12.3-31.84v-92.06h-25.22v-30.27h25.22
	v-47.29h39.41v47.29h32.16V475.14z M933.83,607.54V444.87h39.73v162.68H933.83z M934.15,423.74v-37.2h39.09v37.2H934.15z
	 M1094.93,441.09c17.44,0,31.32,5.04,41.62,15.13s15.45,24.59,15.45,43.51v107.82h-39.72v-101.2c0-20.6-10.2-30.9-30.58-30.9
	c-9.67,0-18.13,3.47-25.38,10.4c-7.25,6.94-10.88,17.13-10.88,30.58v91.11h-39.72V444.87h38.46v23.33
	C1056.36,450.12,1073.28,441.09,1094.93,441.09z"/>
</svg>
