<?xml version="1.0" encoding="utf-8"?>
<!-- Generator: Adobe Illustrator 22.1.0, SVG Export Plug-In . SVG Version: 6.00 Build 0)  -->
<svg version="1.1" id="Layer_1" xmlns="http://www.w3.org/2000/svg" xmlns:xlink="http://www.w3.org/1999/xlink" x="0px" y="0px"
	 viewBox="0 0 41.8 41.9" style="enable-background:new 0 0 41.8 41.9;" xml:space="preserve">
<g transform="matrix( 1, 0, 0, 1, 0,0) ">
	<g transform="matrix( 1, 0, 0, 1, 0,0) ">
		<g>
			<g id="platform_icons_10_Layer2_0_FILL">
				<path d="M41.8,33.2V8.6c0-5.7-2.9-8.6-8.6-8.6H8.6C2.9,0,0,2.9,0,8.6v24.6c0,5.8,2.9,8.7,8.6,8.7h24.6
					C38.9,41.9,41.8,39,41.8,33.2 M38.9,8.6v24.6c0,3.8-1.9,5.8-5.7,5.8H8.6c-3.8,0-5.8-1.9-5.8-5.8V8.6c0-3.8,2-5.7,5.8-5.7h24.6
					C37,2.9,38.9,4.8,38.9,8.6 M13.1,7.2c-0.8-0.9-1.8-1.3-3-1.3c-1.2,0-2.2,0.4-3,1.3C6.3,8,5.9,9,5.9,10.1c0,1.2,0.4,2.2,1.2,3
					s1.8,1.2,3,1.2c1.2,0,2.2-0.4,3-1.2c0.9-0.8,1.3-1.8,1.3-3C14.4,9,14,8,13.1,7.2 M36.8,33.6L36.9,8H29l0.4,14.9l-2.9,0.3
					l-0.7-9.3L17,14.1l0.3,13.6l-1.8,0.1l-0.8-10.5L5,17.9v15.6c0,1.7,0.6,2.7,1.9,3.1c0.4,0.1,0.9,0.2,1.4,0.2l25.1-0.1
					c0.6,0,1.1-0.2,1.8-0.4c0.7-0.3,1.1-0.7,1.4-1.2C36.7,34.7,36.8,34.2,36.8,33.6 M21.7,16.4l0.1,3.8h-2.9v-3.8H21.7 M35.4,10.4
					l0.1,2.7L32.9,13l-0.2-2.6H35.4 M31.2,17H34l0.1,4.2l-2.8,0.2L31.2,17 M6.7,20l2.9-0.1l0.1,2.4l-3.1,0.2L6.7,20 M10.8,27.5
					L10.7,23l2.8-0.2l0.4,4.6L10.8,27.5 M25.2,24.4l0.2,4.1l-3,0.2l-0.1-4.2L25.2,24.4z"/>
			</g>
		</g>
	</g>
</g>
</svg>
