<?xml version="1.0" encoding="utf-8"?>
<!-- Generator: Adobe Illustrator 24.0.0, SVG Export Plug-In . SVG Version: 6.00 Build 0)  -->
<svg version="1.1" id="Layer_1" xmlns="http://www.w3.org/2000/svg" xmlns:xlink="http://www.w3.org/1999/xlink" x="0px" y="0px"
	 viewBox="0 0 50 50" style="enable-background:new 0 0 50 50;" xml:space="preserve">
<g transform="matrix( 1, 0, 0, 1, 0,0) ">
	<g transform="matrix( 1, 0, 0, 1, 0,0) ">
		<g>
			<g id="platform_icons_10_Layer2_0_FILL">
				<path d="M45.9,37.3V12.7c0-5.7-2.9-8.6-8.6-8.6H12.7C7,4.1,4.1,7,4.1,12.7v24.6c0,5.8,2.9,8.7,8.6,8.7h24.6
					C43,46,45.9,43.1,45.9,37.3 M43,12.7v24.6c0,3.8-1.9,5.8-5.7,5.8H12.7c-3.8,0-5.8-1.9-5.8-5.8V12.7C6.9,8.9,8.9,7,12.7,7h24.6
					C41.1,7,43,8.9,43,12.7 M17.2,11.3c-0.8-0.9-1.8-1.3-3-1.3s-2.2,0.4-3,1.3c-0.8,0.8-1.2,1.8-1.2,2.9c0,1.2,0.4,2.2,1.2,3
					c0.8,0.8,1.8,1.2,3,1.2s2.2-0.4,3-1.2c0.9-0.8,1.3-1.8,1.3-3C18.5,13.1,18.1,12.1,17.2,11.3 M40.9,37.7L41,12.1h-7.9L33.5,27
					l-2.9,0.3L29.9,18l-8.8,0.2l0.3,13.6l-1.8,0.1l-0.8-10.5L9.1,22v15.6c0,1.7,0.6,2.7,1.9,3.1c0.4,0.1,0.9,0.2,1.4,0.2l25.1-0.1
					c0.6,0,1.1-0.2,1.8-0.4c0.7-0.3,1.1-0.7,1.4-1.2C40.8,38.8,40.9,38.3,40.9,37.7 M25.8,20.5l0.1,3.8l-2.9,0L23,20.5L25.8,20.5
					 M39.5,14.5l0.1,2.7L37,17.1l-0.2-2.6L39.5,14.5 M35.3,21.1h2.8l0.1,4.2l-2.8,0.2L35.3,21.1 M10.8,24.1l2.9-0.1l0.1,2.4
					l-3.1,0.2L10.8,24.1 M14.9,31.6l-0.1-4.5l2.8-0.2l0.4,4.6L14.9,31.6 M29.3,28.5l0.2,4.1l-3,0.2l-0.1-4.2L29.3,28.5z"/>
			</g>
		</g>
	</g>
</g>
</svg>
