<?xml version="1.0" encoding="utf-8"?>
<!-- Generator: Adobe Illustrator 24.0.0, SVG Export Plug-In . SVG Version: 6.00 Build 0)  -->
<svg version="1.1" id="Layer_1" xmlns="http://www.w3.org/2000/svg" xmlns:xlink="http://www.w3.org/1999/xlink" x="0px" y="0px"
	 viewBox="0 0 1280 680" style="enable-background:new 0 0 1280 680;" xml:space="preserve">
<style type="text/css">
	.st0{fill:url(#SVGID_1_);}
</style>
<linearGradient id="SVGID_1_" gradientUnits="userSpaceOnUse" x1="950.1871" y1="44.9812" x2="248.8246" y2="746.3436">
	<stop  offset="0" style="stop-color:#FFA942"/>
	<stop  offset="1" style="stop-color:#FF5760"/>
</linearGradient>
<path class="st0" d="M208.55,132.87h40.2v220.19h-46.39l-61.23-98.03c-17.94-28.24-31.03-50.3-39.28-66.18
	c0.82,25.98,1.24,61.54,1.24,106.69v57.52h-40.2V132.87h46.39l61.54,98.03c17.94,29.07,30.93,51.13,38.97,66.18
	c-0.83-34.64-1.24-70.2-1.24-106.69V132.87z M433.37,276.05v9.28H314c1.44,13.82,5.77,24.12,12.99,30.93
	c7.21,6.8,16.7,10.21,28.45,10.21c17.94,0,30.1-7.62,36.49-22.88h37.42c-4.13,16.29-12.79,29.22-25.98,38.81
	c-13.2,9.59-29.28,14.38-48.24,14.38c-23.71,0-42.88-7.58-57.52-22.73c-14.64-15.15-21.96-35.41-21.96-60.77
	c0-24.94,7.21-45.1,21.65-60.46c14.43-15.36,33.5-23.04,57.21-23.04c24.12,0,43.29,7.94,57.52,23.81
	C426.26,229.46,433.37,250.28,433.37,276.05z M354.2,220.07c-10.72,0-19.59,3.15-26.6,9.43c-7.01,6.29-11.44,15.82-13.3,28.61h80.1
	c-1.65-11.54-5.93-20.77-12.83-27.68C374.66,223.53,365.54,220.07,354.2,220.07z M647.68,193.48h41.75l-52.57,159.57h-40.82
	l-20.1-65.56c-5.36-18.14-9.9-34.02-13.61-47.62c-6.6,24.12-11.03,40-13.3,47.62l-19.79,65.56h-40.82l-52.57-159.57h41.75
	l17.94,59.69c4.53,14.84,9.79,33.3,15.77,55.36c5.15-20.61,10.21-39.17,15.15-55.67l17.63-59.38h37.11l17.63,59.38
	c4.95,16.5,10,35.05,15.15,55.67c5.98-21.85,11.23-40.3,15.77-55.36L647.68,193.48z M765.81,357.38
	c-46.39,0-70.72-18.35-72.98-55.05h38.04c1.03,9.9,4.28,16.91,9.74,21.03c5.46,4.13,14.07,6.19,25.82,6.19
	c21.03,0,31.54-6.39,31.54-19.17c0-5.77-2.22-10.21-6.65-13.3c-4.44-3.09-12.63-5.67-24.59-7.73l-18.25-3.09
	c-34.84-5.98-52.26-22.06-52.26-48.24c0-15.05,5.72-26.85,17.16-35.41c11.44-8.55,27.78-12.83,49.02-12.83
	c45.56,0,69.06,18.04,70.51,54.12h-36.8c-0.42-9.69-3.46-16.49-9.12-20.41c-5.67-3.91-13.87-5.88-24.59-5.88
	c-18.55,0-27.83,6.18-27.83,18.55c0,5.57,2.11,9.79,6.34,12.68c4.22,2.89,10.98,5.16,20.26,6.8l20.1,3.09
	c19.38,3.51,33.45,9.07,42.21,16.7c8.76,7.63,13.14,18.25,13.14,31.85c0,16.08-6.19,28.45-18.55,37.11
	C805.7,353.05,788.28,357.38,765.81,357.38z M1122.68,353.05h-48.86l-16.08-18.25c-18.76,15.46-40.72,23.19-65.87,23.19
	c-23.3,0-41.7-6.03-55.2-18.09c-13.51-12.06-20.26-27.47-20.26-46.23c0-14.43,3.97-26.64,11.91-36.65
	c7.93-10,19.95-19.02,36.03-27.06c-8.46-9.69-14.53-18.25-18.25-25.67c-3.71-7.42-5.57-15.26-5.57-23.5
	c0-15.05,5.57-27.62,16.7-37.73c11.13-10.1,26.18-15.15,45.15-15.15c17.94,0,32.67,4.64,44.22,13.92
	c11.54,9.28,17.32,21.65,17.32,37.11c0,23.3-15.15,42.78-45.46,58.45l38.35,42.68c4.53-11.13,7.01-22.88,7.42-35.25h35.87
	c-1.03,22.88-7.22,43.71-18.55,62.47L1122.68,353.05z M995.27,324.6c15.25,0,28.76-4.84,40.51-14.53l-51.64-57.52
	c-17.94,9.9-26.91,22.58-26.91,38.04c0,9.28,3.4,17.27,10.21,23.97C974.24,321.25,983.52,324.6,995.27,324.6z M1003.62,159.15
	c-6.8,0-12.48,2.01-17.01,6.03c-4.54,4.02-6.8,9.23-6.8,15.62c0,9.07,6.29,20.52,18.86,34.33l0.62,0.62
	c18.97-10.51,28.45-22.16,28.45-34.95c0-6.18-2.27-11.34-6.8-15.46C1016.4,161.22,1010.62,159.15,1003.62,159.15z M155.18,608.19
	c-28.17,0-50.52-7.55-67.06-22.66c-16.55-15.11-24.82-36.64-24.82-64.6V384.02h41.63v137.21c0,16.86,4.37,29.55,13.1,38.08
	c8.73,8.53,21.12,12.8,37.16,12.8s28.42-4.26,37.16-12.8c8.73-8.53,13.1-21.22,13.1-38.08V384.02h41.63v136.91
	c0,28.17-8.17,49.75-24.51,64.75C206.21,600.69,183.75,608.19,155.18,608.19z M365.77,440.76c21.79,0,39.11,7.55,51.96,22.66
	c12.84,15.11,19.27,35.31,19.27,60.59c0,25.28-6.43,45.48-19.27,60.59c-12.85,15.11-30.17,22.66-51.96,22.66
	c-21.58,0-38.03-8.12-49.34-24.36V664h-38.85V444.46h37.31v22.82C326.41,449.6,343.37,440.76,365.77,440.76z M326.61,561.94
	c7.19,8.84,17.16,13.26,29.91,13.26c12.74,0,22.76-4.57,30.06-13.72c7.29-9.14,10.95-22.05,10.95-38.7
	c0-16.44-3.6-28.88-10.79-37.31c-7.2-8.43-17.27-12.64-30.22-12.64c-12.75,0-22.77,4.37-30.06,13.1
	c-7.3,8.74-10.95,21.43-10.95,38.08C315.51,540.66,319.21,553.3,326.61,561.94z M574.83,384.02h38.85v219.54h-37.62v-22.2
	c-11.72,17.27-28.47,25.9-50.26,25.9c-22,0-39.42-7.55-52.26-22.66c-12.85-15.11-19.27-35.31-19.27-60.59
	c0-25.28,6.42-45.48,19.27-60.59c12.84-15.11,30.27-22.66,52.26-22.66c21.38,0,37.72,8.12,49.03,24.36V384.02z M504.84,562.55
	c7.19,8.43,17.16,12.64,29.91,12.64c12.74,0,22.76-4.36,30.06-13.1c7.29-8.73,10.95-21.43,10.95-38.08
	c0-16.65-3.65-29.34-10.95-38.08c-7.3-8.73-17.32-13.1-30.06-13.1c-12.54,0-22.46,4.58-29.76,13.72
	c-7.3,9.15-10.95,22.05-10.95,38.7C494.04,541.69,497.64,554.13,504.84,562.55z M788.2,603.56h-38.85
	c-2.06-3.7-3.5-10.18-4.32-19.43c-10.9,15.42-27.96,23.13-51.19,23.13c-17.27,0-31.14-4.16-41.63-12.49
	c-10.48-8.33-15.73-20.09-15.73-35.31c0-29.19,20.35-45.74,61.05-49.64l24.05-2.16c7.81-1.03,13.51-2.88,17.11-5.55
	c3.59-2.67,5.4-6.88,5.4-12.64c0-6.58-2.16-11.51-6.48-14.8c-4.32-3.29-11.82-4.93-22.51-4.93c-11.31,0-19.43,1.85-24.36,5.55
	c-4.93,3.7-7.81,10.28-8.63,19.73H643.9c2.26-36.18,26.1-54.27,71.54-54.27c44.19,0,66.29,15.93,66.29,47.79v84.8
	C781.73,587.33,783.89,597.4,788.2,603.56z M703.1,579.51c11.51,0,21.22-3.24,29.14-9.71c7.91-6.48,11.87-16.19,11.87-29.14v-14.49
	c-3.7,3.29-9.77,5.45-18.19,6.48l-20.97,2.47c-10.48,1.23-17.88,3.7-22.2,7.4c-4.32,3.7-6.48,8.84-6.48,15.42
	c0,6.78,2.26,12.08,6.78,15.88C687.58,577.61,694.26,579.51,703.1,579.51z M889.34,474.06h-31.45v86.03c0,5.14,1.39,8.74,4.16,10.79
	c2.78,2.06,7.45,3.08,14.03,3.08h13.26v29.6c-9.46,0.82-16.24,1.23-20.35,1.23c-17.07,0-29.6-3.18-37.62-9.56
	c-8.02-6.37-12.03-16.75-12.03-31.14v-90.04h-24.67v-29.6h24.67v-46.25h38.54v46.25h31.45V474.06z M1059.23,526.79v9.25H940.21
	c1.44,13.77,5.75,24.05,12.95,30.83c7.19,6.78,16.65,10.18,28.37,10.18c17.88,0,30.01-7.6,36.39-22.82h37.31
	c-4.11,16.24-12.75,29.14-25.9,38.7c-13.16,9.56-29.19,14.34-48.1,14.34c-23.64,0-42.76-7.55-57.35-22.66
	c-14.6-15.11-21.89-35.31-21.89-60.59c0-24.87,7.19-44.97,21.58-60.28c14.39-15.31,33.4-22.97,57.04-22.97
	c24.05,0,43.17,7.92,57.35,23.74C1052.14,480.33,1059.23,501.09,1059.23,526.79z M980.3,470.98c-10.69,0-19.53,3.14-26.52,9.4
	c-6.99,6.27-11.41,15.78-13.26,28.52h79.86c-1.65-11.51-5.91-20.71-12.8-27.6C1000.7,474.42,991.6,470.98,980.3,470.98z
	 M1146.5,607.88c-46.25,0-70.51-18.29-72.77-54.89h37.93c1.03,9.87,4.26,16.86,9.71,20.97c5.44,4.11,14.03,6.17,25.75,6.17
	c20.97,0,31.45-6.37,31.45-19.12c0-5.75-2.21-10.18-6.63-13.26c-4.42-3.08-12.59-5.65-24.51-7.71l-18.19-3.08
	c-34.74-5.96-52.11-21.99-52.11-48.1c0-15,5.7-26.77,17.11-35.31c11.41-8.53,27.7-12.8,48.87-12.8c45.43,0,68.86,17.99,70.3,53.96
	h-36.69c-0.41-9.66-3.44-16.44-9.1-20.35c-5.66-3.9-13.83-5.86-24.51-5.86c-18.5,0-27.75,6.17-27.75,18.5
	c0,5.55,2.11,9.77,6.32,12.64c4.21,2.88,10.95,5.14,20.2,6.78l20.04,3.08c19.32,3.5,33.35,9.05,42.09,16.65
	c8.73,7.61,13.1,18.19,13.1,31.76c0,16.03-6.17,28.37-18.5,37C1186.27,603.56,1168.9,607.88,1146.5,607.88z"/>
</svg>
