<?xml version="1.0" encoding="utf-8"?>
<!-- Generator: Adobe Illustrator 24.0.3, SVG Export Plug-In . SVG Version: 6.00 Build 0)  -->
<svg version="1.1" id="Layer_1" xmlns="http://www.w3.org/2000/svg" xmlns:xlink="http://www.w3.org/1999/xlink" x="0px" y="0px"
	 viewBox="0 0 300 300" style="enable-background:new 0 0 300 300;" xml:space="preserve">
<style type="text/css">
	.st0{clip-path:url(#SVGID_3_);fill:url(#SVGID_4_);}
</style>
<g>
	<g>
		<defs>
			<path id="SVGID_1_" d="M108.9,0.5c-3.4,0-6.1,2.7-6.1,6.1v280.7H83.4V6.6c0-3.4-2.7-6.1-6.1-6.1H45.7c-3.4,0-6.1,2.7-6.1,6.1
				v286.8c0,3.4,2.7,6.1,6.1,6.1c3.4,0,6.1-2.7,6.1-6.1V12.7h19.3v280.7c0,3.4,2.7,6.1,6.1,6.1h31.6c3.4,0,6.1-2.7,6.1-6.1V12.7
				h23.3c64.7,0,109.9,39.4,109.9,95.8c0,54.3-42.4,92.8-103.8,95.2v-18.3c47.5-2.5,81.4-34.1,81.4-77.1c0-45.5-36-77.2-87.5-77.2
				c-1.6,0-3.2,0.6-4.3,1.8c-1.1,1.1-1.8,2.7-1.8,4.3l0,31.8c0,3.4,2.7,6.1,6.1,6.1c19.3,0,38.8,10.3,38.8,33.2
				c0,19.5-16,33.2-38.8,33.2c-3.4,0-6.1,2.7-6.1,6.1c0,3.4,2.7,6.1,6.1,6.1c29.6,0,51-19.1,51-45.4c0-24.9-18.2-42.8-44.9-45.1
				l0-19.7c41,2.3,69.2,28.3,69.2,64.8c0,38.3-31,65-75.3,65c-3.4,0-6.1,2.7-6.1,6.1v30.5c0,3.4,2.7,6.1,6.1,6.1
				c70.8,0,122.1-45.2,122.1-107.5c0-63.6-50.2-108-122.1-108H108.9z"/>
		</defs>
		<linearGradient id="SVGID_2_" gradientUnits="userSpaceOnUse" x1="39.6284" y1="150" x2="260.3716" y2="150">
			<stop  offset="0" style="stop-color:#DE4C5A"/>
			<stop  offset="0.2498" style="stop-color:#FAA82F"/>
			<stop  offset="0.3652" style="stop-color:#C2AE41"/>
			<stop  offset="0.5118" style="stop-color:#7EB557"/>
			<stop  offset="0.5273" style="stop-color:#7DB55C"/>
			<stop  offset="0.6704" style="stop-color:#71B783"/>
			<stop  offset="0.8017" style="stop-color:#69B8A0"/>
			<stop  offset="0.9158" style="stop-color:#64B9B1"/>
			<stop  offset="1" style="stop-color:#62B9B7"/>
		</linearGradient>
		<use xlink:href="#SVGID_1_"  style="overflow:visible;fill:url(#SVGID_2_);"/>
		<clipPath id="SVGID_3_">
			<use xlink:href="#SVGID_1_"  style="overflow:visible;"/>
		</clipPath>
		<linearGradient id="SVGID_4_" gradientUnits="userSpaceOnUse" x1="39.6284" y1="150" x2="260.3716" y2="150">
			<stop  offset="0" style="stop-color:#DE4C5A"/>
			<stop  offset="0.2498" style="stop-color:#FAA82F"/>
			<stop  offset="0.3652" style="stop-color:#C2AE41"/>
			<stop  offset="0.5118" style="stop-color:#7EB557"/>
			<stop  offset="0.5273" style="stop-color:#7DB55C"/>
			<stop  offset="0.6704" style="stop-color:#71B783"/>
			<stop  offset="0.8017" style="stop-color:#69B8A0"/>
			<stop  offset="0.9158" style="stop-color:#64B9B1"/>
			<stop  offset="1" style="stop-color:#62B9B7"/>
		</linearGradient>
		<rect x="39.6" y="0.5" class="st0" width="220.7" height="299"/>
	</g>
</g>
</svg>
