<?xml version="1.0" encoding="utf-8"?>
<!-- Generator: Adobe Illustrator 22.1.0, SVG Export Plug-In . SVG Version: 6.00 Build 0)  -->
<svg version="1.1" id="Layer_1" xmlns="http://www.w3.org/2000/svg" xmlns:xlink="http://www.w3.org/1999/xlink" x="0px" y="0px"
	 viewBox="0 0 157.7 109.9" style="enable-background:new 0 0 157.7 109.9;" xml:space="preserve">
<style type="text/css">
	.st0{fill:#067178;}
	.st1{fill:#FEFEFE;}
	.st2{fill:#FDFEFE;}
</style>
<g>
	<path class="st0" d="M153.4,51.4c-0.1,11.8-5.8,25.2-18.5,35.1c-2.1,1.6-2,3-1.1,5.1c3.4,8.8,10.3,13.3,20.3,13.2
		c1.3,0,3.4-1.2,3.7,1c0.2,1.8-2,1.8-3.4,2.2c-5.1,1.7-10.4,2.4-15.8,1.9c-7.6-0.8-13.3-4.4-15.7-11.9c-1-3-1.9-4-5.4-3.3
		c-29.2,5.9-48.6-14.7-53.1-35.2C58.6,33.5,73.8,7.2,97.7,1.3C126.5-5.8,153.4,16.5,153.4,51.4z"/>
	<path class="st0" d="M18.2,71.9c0,4.7,0,9.3,0,14c0,1.7,0.1,3.3,1.1,4.7c0.8,1.1,3.1,1.6,1.9,3.5c-0.9,1.3-2.8,0.6-4.2,0.6
		c-4.7,0.1-9.3,0.1-14,0c-2.7,0-4.3-0.9-1.7-3.4c1.9-1.9,2-4.1,2-6.4c0-24.6,0-49.3,0-73.9c0-2.5-0.1-4.9-2.3-6.8
		c-1.7-1.5-1.2-2.8,1-2.8C13.7,1.7,25.4,0.3,37,2.3C52,4.9,60.4,14.8,60,28.5c-0.3,13-10.9,24.1-25,26.2c-4.6,0.7-9.3,0.9-13.9-0.1
		c-2.3-0.5-3,0.1-2.9,2.4C18.3,61.9,18.2,66.9,18.2,71.9z"/>
	<path class="st1" d="M116.9,85.1c-8.6,4-19.7,1.2-27-6.4c-13.5-14-15.1-44.2-3.2-59.6c11.2-14.5,32.2-14.3,42.8,0.4
		c10.6,14.6,11,41.5,1,55.9c-1.8,2.6-2.9,3.6-5.9,1c-6.2-5.4-13.6-5.6-21.2-4c-1.2,0.3-3.1,0-3,1.8c0.1,1.5,1.8,1.2,2.8,1.4
		C108.9,77.2,113.3,80.4,116.9,85.1z"/>
	<path class="st2" d="M18.2,28.2c0-5.2,0-10.3,0-15.5c0-1.5-0.2-2.8,2-3.3c14.8-3.3,25.3,5.8,24.1,20.8c-1,12.9-12.3,17.9-23.9,16.7
		c-2.5-0.3-2.1-2.1-2.1-3.7C18.2,38.2,18.2,33.2,18.2,28.2z"/>
</g>
</svg>
