<?xml version="1.0" encoding="utf-8"?>
<!-- Generator: Adobe Illustrator 22.1.0, SVG Export Plug-In . SVG Version: 6.00 Build 0)  -->
<svg version="1.1" id="Layer_1" xmlns="http://www.w3.org/2000/svg" xmlns:xlink="http://www.w3.org/1999/xlink" x="0px" y="0px"
	 viewBox="0 0 54.5 51.7" style="enable-background:new 0 0 54.5 51.7;" xml:space="preserve">
<style type="text/css">
	.st0{fill:#4257B2;}
</style>
<path class="st0" d="M27,0c15.4,0,27,11.4,27,25.9c0,6.7-2.5,12.6-6.7,17l7.2,8H42.4l-2.5-2.8c-3.6,2.5-8.1,3.6-12.9,3.6
	c-15.3,0-27-11.3-27-25.8C0,10.9,12.1,0,27,0z M27,41.7c2,0,3.8-0.4,5.6-1.2L22.2,28.9h12.1l5.6,6.4c2-2.5,3-5.5,3-9.4
	c0-8.7-6.6-15.8-15.9-15.8c-9.3,0-15.8,7-15.8,15.8C11.2,34.8,17.7,41.7,27,41.7L27,41.7z"/>
</svg>
