<?xml version="1.0" encoding="utf-8"?>
<!-- Generator: Adobe Illustrator 22.1.0, SVG Export Plug-In . SVG Version: 6.00 Build 0)  -->
<svg version="1.1" id="Layer_1" xmlns="http://www.w3.org/2000/svg" xmlns:xlink="http://www.w3.org/1999/xlink" x="0px" y="0px"
	 viewBox="0 0 1012 949.5" style="enable-background:new 0 0 1012 949.5;" xml:space="preserve">
<style type="text/css">
	.st0{fill:#5CB531;}
	.st1{fill:#EDAA00;}
</style>
<path class="st0" d="M968.6,949.5V556c-4.2,7.6-16.7,10.1-24.7,11.6c-6.8,1.3-14.3-0.5-14.3-0.5v344.3c0,0-244.4-1-260.8,0
	c-17.5,1-27-4.8-27-4.8c-51.3-33.3-66.1-111-63.3-124.8c3.5-17.6-4.7-52.7-10.5-84.3c-5.8-31.7,20-124.1,24.6-142.9
	c4.7-18.7,33.9-35.2,35.1-39.8c1.2-4.7-7-2.4-7-5.8c0-3.5,19.9-17.6,32.7-17.6c12.9,0,39.9-23.4,41-31.6
	c1.2-8.2,26.9-42.1,35.2-49.1c8.2-7,19.9-31.6,21.1-37.5c1.2-5.9-5.9,5.9-14,18.8c-8.2,12.8-68,74.9-110.1,94.8
	c-42.1,19.9-58.5,91.4-67.9,102.3c-9.3,10.9-24.6-124.5-25.8-152.6c-1.1-28.1-15.2-49.2-15.2-55c0-5.8,1.6-44.5,1.6-44.5
	s-4.6-6.5-3-0.6c1.5,5.9-3.2,31.1-4.4,53.4c-1.2,22.2,15.2,78.5,21,114.8c5.9,36.3,3.5,49.2-2.3,67.9c-5.8,18.8,7.1,60.8,11.7,76.1
	c4.7,15.2-7,76.1-8.2,80.7c-1.2,4.7-45.7-29.2-44.1-43.9c1.6-14.7-14.4-31-19.1-43.8c-4.7-13-24.6-59.7-29.3-69.1
	c-4.7-9.3-5.8-56.2-1.2-69.1s-4.7-30.4-14.1-35.1c-9.3-4.7-24.5-34-28-30.8c-3.4,3.2,43.2,53,33.8,65.9c-9.4,12.9-10.5,21.1-7,37.5
	c3.5,16.4,11.6,39.8,8.2,46.9c-3.5,7-14-3.6-15.2,0c-1.2,3.5,19.9,21,29.3,31.6c9.4,10.5,15.2,52.7,15.2,52.7s-31.6-5.9-42.2-5.9
	c-10.5,0-37.5-14-50.3-21c-12.9-7-21.1,0-34-9.4c-12.9-9.4-37.5-16.4-42.1-28.1c-4.7-11.7-22.2-16.4-28.1-24.6
	c-5.9-8.2-12.9-16.4-12.9-12.9s11.7,23.4,21,33.9c9.4,10.5,22.3,17.6,19.9,21.1c-2.3,3.5-17.6-1.2-22.2-1.2c-4.7,0-24.6,0-30.4,1.2
	c-5.9,1.2,5.9,4.7,17.5,4.7s32.8,0,43.3,3.5c10.5,3.5,16.4,7.1,35.1,16.5c18.8,9.3,35.1,16.3,48,18.7c12.8,2.3,37.4,8.2,45.7,8.2
	c8.2,0,24.5,8.2,32.8,17.6c8.2,9.3,7,21.1,8.2,29.2c1.1,8.2,25.8,27,33.9,30.5c8.3,3.5,12.9,7,29.3,26.9c16.3,19.9,10.5,55-4.7,91.3
	c-15.2,36.3-105.2,77.5-105.2,77.5L968.6,949.5L968.6,949.5z"/>
<path class="st0" d="M62.3,445.3c0,0-8.9-10.1-38.1-9.4V36.6h411.2c0,0-14.6,16.2-18.7,38.5L62.6,75L62.3,445.3z"/>
<path class="st0" d="M24.1,568.8c0,0,26.3,25.7,38.5,24.4v317.6h352.6l-47.6,38.8H24.2L24.1,568.8z"/>
<path class="st0" d="M568.2,75.2c0,0-14.4-37.5-23.1-39h423.6v408c0,0-18.2-11.3-38.3-5.5L930,75.2L568.2,75.2z"/>
<path class="st1" d="M781.5,448.6c0,0-51,7.1-65.4,67c-14.4,59.8,48.6,94.8,100.5,80.5c51.8-14.4,55.8-112.4,8-136.4
	C824.6,459.7,805.4,446.2,781.5,448.6L781.5,448.6z"/>
<path class="st1" d="M533.9,169.6c0,0-44.2,6.2-56.7,58c-12.4,51.8,42.1,82.2,87.1,69.8c44.9-12.5,48.3-97.4,6.9-118.1
	C571.2,179.3,554.7,167.5,533.9,169.6z"/>
<path class="st1" d="M152.3,528.8c-29.6,4.9-57.2,31.5-65.5,66.4c-29.2,121.5,221.6,92.6,124.8-39.5
	C194.8,532.7,173,525.4,152.3,528.8L152.3,528.8z"/>
<g>
	<path class="st0" d="M482.2,170.1c0,0,32.2-21.4,51.9-16.1c0,0,21.5-64.5-3.5-100.3C505.5,17.9,478.6,0,478.6,0
		s-53.7,78.8-39.4,120C453.5,161.2,482.2,170.1,482.2,170.1z"/>
	<path class="st0" d="M268.3,124.1c0,0-11.1,92.1,27,123.8c38.1,31.8,95.2,19.1,95.2,19.1s4.3-69.3-19-95.2
		C328.7,124.1,268.3,124.1,268.3,124.1L268.3,124.1z"/>
	<path class="st0" d="M598.8,477.2c0,0,82.3-48.2,88.2-94.9c5.9-46.6-33.3-85.8-33.3-85.8s-63.8,31.9-72.7,63.8
		C564.8,418.7,598.8,477.2,598.8,477.2z"/>
	<path class="st0" d="M764.8,358.3c0,0,71.3-39.4,79.5-85.6c8.2-46.1-14.3-90.4-14.3-90.4s-68.6,26.7-80,64.8
		C729,317,764.8,358.3,764.8,358.3z"/>
	<path class="st0" d="M587.3,671.9c0,0,78.3,11.8,106.2-22.2c27.9-34,18.2-86.2,18.2-86.2s-59-5.3-81.6,15.5
		C588.6,617,587.3,671.9,587.3,671.9z"/>
	<path class="st0" d="M739.2,423.3c0,0,64.6,33.1,98.4,13.3c33.7-19.8,40-65.9,40-65.9s-49.8-21.9-75.2-11.5
		C755.7,378.3,739.2,423.3,739.2,423.3z"/>
	<path class="st0" d="M887.2,686.1c0,0-28.7-66.7-67.4-73c-38.7-6.2-72.8,25.2-72.8,25.2s24.4,48.6,50.6,56.8
		C845.9,710.2,887.2,686.1,887.2,686.1L887.2,686.1z"/>
	<path class="st0" d="M456.5,219.3c-4.4-3.2-7.1-4.8-7.1-4.8s-42.4,64.6-26.6,108.6c15.9,43.9,69.2,50.8,69.2,50.8
		s19.4-25.1,12.5-63.3c0,0-28.7-4.5-41.9-28.2C449.5,258.7,456.5,219.3,456.5,219.3L456.5,219.3z"/>
	<path class="st0" d="M180.7,732.6c0,0,65.6,14.5,90.2-6.3c24.5-20.8,31.8-63.5,31.8-63.5s-55-9.2-74.3,2.9
		C192.9,687.7,180.7,732.6,180.7,732.6L180.7,732.6z"/>
	<path class="st0" d="M142.7,268.5c0,0-9.4,78,22.9,104.8c32.3,26.9,80.6,16.1,80.6,16.1s3.6-58.6-16.2-80.6
		C193.7,268.5,142.7,268.5,142.7,268.5L142.7,268.5z"/>
	<path class="st0" d="M335.3,454c0,0-39.5,73.2-16.8,112.5c22.7,39.4,76.4,48,76.4,48s26.2-56.5,14.4-86
		C387.6,474.2,335.3,454,335.3,454z"/>
	<path class="st0" d="M277.1,333.9c0,0,14.9,82.9,57.3,96.2c42.4,13.4,99.1-19,99.1-19s-20.2-64-48.3-77.5
		C333.9,308.8,277.1,333.9,277.1,333.9z"/>
	<path class="st0" d="M0,462.2c0,0,3.2,87.4,68.3,107.9c0,0,25.4-47.6,49.2-46C117.5,524.2,76.3,436.9,0,462.2z"/>
	<path class="st0" d="M171.5,511.5c0,0,47.3,11.4,57.2,39.7c8.1,23.3,6.4,30.2,6.4,30.2s22.2-44.5,20.6-79.4
		c-1.6-34.9-30.2-58.7-30.2-58.7S179.4,467,171.5,511.5L171.5,511.5z"/>
	<path class="st0" d="M611.3,203.5c0,0,25.5,19.6,9,56.4l7.6,12.7c0,0,94.5-31,105.6-96.1c11.1-65.1,0-76.2,0-76.2
		S643.2,95.3,611.3,203.5L611.3,203.5z"/>
	<path class="st0" d="M872.5,480.4c0,0,18,15.5,10.3,43.9c0,0,38.8,36.1,77.5,10.3c38.7-25.9,51.7-46.5,51.7-46.5
		S931.9,421,872.5,480.4L872.5,480.4z"/>
</g>
</svg>
