<?xml version="1.0" encoding="utf-8"?>
<!-- Generator: Adobe Illustrator 24.0.0, SVG Export Plug-In . SVG Version: 6.00 Build 0)  -->
<svg version="1.1" id="Layer_1" xmlns="http://www.w3.org/2000/svg" xmlns:xlink="http://www.w3.org/1999/xlink" x="0px" y="0px"
	 viewBox="0 0 1024 1024" style="enable-background:new 0 0 1024 1024;" xml:space="preserve">
<style type="text/css">
	.st0{fill:url(#SVGID_1_);}
	.st1{fill:url(#SVGID_2_);}
	.st2{fill:url(#SVGID_3_);}
	.st3{fill:url(#SVGID_4_);}
	.st4{fill:url(#SVGID_5_);}
	.st5{fill:url(#SVGID_6_);}
</style>
<g>
	<linearGradient id="SVGID_1_" gradientUnits="userSpaceOnUse" x1="255.999" y1="947.1984" x2="255.999" y2="76.8016">
		<stop  offset="0" style="stop-color:#DD1E15"/>
		<stop  offset="1" style="stop-color:#FC9A5D"/>
	</linearGradient>
	<polygon class="st0" points="0,770.95 414.94,76.8 512,253.01 113.81,947.2 	"/>
	<linearGradient id="SVGID_2_" gradientUnits="userSpaceOnUse" x1="416.9447" y1="947.1984" x2="416.9447" y2="253.0092">
		<stop  offset="0" style="stop-color:#C1000F"/>
		<stop  offset="1" style="stop-color:#E23D30"/>
	</linearGradient>
	<polygon class="st1" points="512,253.01 720.08,253.01 313.22,947.2 113.81,947.2 	"/>
	<linearGradient id="SVGID_3_" gradientUnits="userSpaceOnUse" x1="511.9981" y1="690.406" x2="820.4531" y2="690.406">
		<stop  offset="0" style="stop-color:#DB6027"/>
		<stop  offset="1" style="stop-color:#EA2F16"/>
	</linearGradient>
	<polygon class="st2" points="614.23,433.61 820.45,770.95 720.08,947.2 512,608.04 	"/>
	<linearGradient id="SVGID_4_" gradientUnits="userSpaceOnUse" x1="720.0315" y1="859.0718" x2="1023.9498" y2="859.0718">
		<stop  offset="0" style="stop-color:#C1000F"/>
		<stop  offset="1" style="stop-color:#E23D30"/>
	</linearGradient>
	<polygon class="st3" points="820.41,770.95 1023.95,770.95 922.18,947.2 720.03,947.2 	"/>
	<linearGradient id="SVGID_5_" gradientUnits="userSpaceOnUse" x1="615.6915" y1="357.389" x2="1026.6187" y2="768.3163">
		<stop  offset="1.226837e-03" style="stop-color:#E3A143"/>
		<stop  offset="0.214" style="stop-color:#E98B3E"/>
		<stop  offset="0.5079" style="stop-color:#EF7239"/>
		<stop  offset="0.778" style="stop-color:#F36336"/>
		<stop  offset="1" style="stop-color:#F45E35"/>
	</linearGradient>
	<polygon class="st4" points="1024,770.93 720.08,253 614.23,433.6 820.46,770.93 	"/>
	<linearGradient id="SVGID_6_" gradientUnits="userSpaceOnUse" x1="444.9733" y1="46.7656" x2="685.6474" y2="287.4397">
		<stop  offset="0" style="stop-color:#FBCC5B"/>
		<stop  offset="1" style="stop-color:#EE4727"/>
	</linearGradient>
	<polygon class="st5" points="414.94,76.8 614.23,76.8 720.08,253.01 512,253.01 	"/>
</g>
</svg>
