<?xml version="1.0" encoding="utf-8"?>
<!-- Generator: Adobe Illustrator 24.0.0, SVG Export Plug-In . SVG Version: 6.00 Build 0)  -->
<svg version="1.1" id="Layer_1" xmlns="http://www.w3.org/2000/svg" xmlns:xlink="http://www.w3.org/1999/xlink" x="0px" y="0px"
	 viewBox="0 0 414.24 414.24" style="enable-background:new 0 0 414.24 414.24;" xml:space="preserve">
<style type="text/css">
	.st0{fill:#FFFFFF;}
	.st1{fill:#33CCFF;}
	.st2{fill:#A5FFFF;}
	.st3{font-family:'ArialMT';}
	.st4{font-size:52.5356px;}
</style>
<g transform="matrix( 1, 0, 0, 1, 0,0) ">
	<g>
		<g id="Layer0_0_FILL">
			<path class="st0" d="M70,69.95v-70H-0.05v70H70z"/>
		</g>
	</g>
</g>
<g transform="matrix( 0.471099853515625, 0, 0, 0.4666595458984375, 34.25,34.55) ">
	<g transform="matrix( 1, 0, 0, 1, 0,0) ">
		<g>
			<g id="BrainPOP_Logo_Line_0_0_Layer0_0_FILL">
				<path class="st1" d="M-22.03,29.94c-21.61,18.8-32.28,46.01-32.01,81.62c0.21,34.7,10.53,74.92,30.96,120.67
					c43.25,96.8,117.36,194.6,222.34,293.41c105.01,98.52,210.2,169.12,315.57,211.79c49.62,20.31,93.6,31.22,131.93,32.72
					c39.54,1.79,70.15-6.77,91.82-25.68c21.61-18.68,32.28-45.89,32.01-81.62c-0.21-34.58-10.53-74.69-30.96-120.32
					C696.33,445.6,622.1,347.68,516.94,248.76C411.81,150.12,306.62,79.52,201.37,36.97C151.87,16.48,107.89,5.46,69.44,3.9
					C30.08,2.41-0.41,11.09-22.03,29.94z"/>
			</g>
		</g>
	</g>
	<g transform="matrix( 1, 0, 0, 1, 0,0) ">
		<g>
			<g id="BrainPOP_Logo_Line_0_0_Layer0_0_MEMBER_0_FILL">
				<path class="st2" d="M217.2,2.14c-49.5-20.2-93.48-31.1-131.93-32.72C45.91-32.24,15.42-23.68-6.19-4.89
					c-21.67,18.8-32.46,46-32.37,81.62c0.32,34.93,10.64,75.15,30.96,120.67c43.42,97.04,117.65,194.84,222.69,293.41
					c105.01,98.76,210.2,169.47,315.57,212.14c49.62,20.37,93.6,31.39,131.93,33.07c39.49,1.61,69.98-7.07,91.47-26.03
					c21.78-18.68,32.57-45.89,32.37-81.62c-0.27-34.58-10.7-74.69-31.31-120.32c-43.13-96.86-117.13-194.66-221.99-293.41
					C427.99,115.82,322.69,44.99,217.2,2.14z"/>
			</g>
		</g>
	</g>
	<g transform="matrix( 1, 0, 0, 1, 0,0) ">
		<g>
			<g id="BrainPOP_Logo_Line_0_0_Layer0_1_MEMBER_0_FILL">
				<path d="M255.9,155.88c-2.35,4.08-3.52,8.3-3.52,12.67c0,13.62,5.51,20.3,16.53,20.05c5.09,0.02,9.43-2.2,13.02-6.68v-0.35
					c3-4.19,4.53-9.12,4.57-14.78c0.02-9.26-3.49-18.05-10.55-26.39c-7.62-8.4-17.35-12.63-29.2-12.67
					c-21.04-0.22-40.04,13.27-56.99,40.46V139c-0.01-0.96-0.36-1.78-1.06-2.46c-0.68-0.7-1.5-1.05-2.46-1.06h-51.36
					c-0.96,0.01-1.78,0.36-2.46,1.06c-0.7,0.68-1.05,1.5-1.06,2.46v14.07c0.01,0.96,0.36,1.78,1.06,2.46
					c0.68,0.7,1.5,1.05,2.46,1.06h35.18v125.59h-26.03c-0.96,0.01-1.78,0.36-2.46,1.06c-0.7,0.68-1.05,1.5-1.06,2.46v14.42
					c0.01,0.96,0.36,1.78,1.06,2.46c0.68,0.7,1.5,1.05,2.46,1.06h78.45c0.96-0.01,1.78-0.36,2.46-1.06c0.7-0.68,1.05-1.5,1.06-2.46
					V285.7c-0.01-0.96-0.36-1.78-1.06-2.46c-0.68-0.7-1.5-1.05-2.46-1.06h-32.72v-72.47c0.07-4.75,2.06-11.2,5.98-19.35
					c4.07-8.29,8.88-15.8,14.42-22.52c11.94-13.45,23.67-20.25,35.18-20.4c3.53,0,6.58,0.7,9.15,2.11h-0.35
					c1.75,1.19,2.69,2.48,2.81,3.87c0,0.82-0.23,1.52-0.7,2.11C256.19,155.64,256.07,155.76,255.9,155.88 M40.6,340.93
					c-0.96,0.01-1.78,0.36-2.46,1.06c-0.7,0.68-1.05,1.5-1.06,2.46v18.65c0.01,0.96,0.36,1.78,1.06,2.46
					c0.68,0.7,1.5,1.05,2.46,1.06h31.66v274.06H42c-0.96,0.01-1.78,0.36-2.46,1.06c-0.7,0.68-1.05,1.5-1.06,2.46v18.65
					c0.01,0.96,0.36,1.78,1.06,2.46c0.68,0.7,1.5,1.05,2.46,1.06h91.47c0.96-0.01,1.78-0.36,2.46-1.06c0.7-0.68,1.05-1.5,1.06-2.46
					v-18.65c-0.01-0.96-0.36-1.78-1.06-2.46c-0.68-0.7-1.5-1.05-2.46-1.06h-39.4V527.04h58.4c25.76-0.02,45.93-8.35,60.51-24.98
					c14.53-16.36,21.81-39.11,21.81-68.25c-0.01-28.9-7.05-51.53-21.11-67.9c-14.12-16.65-33.47-24.98-58.05-24.98H40.6
					 M150.71,366.61c40.34,0.12,60.51,22.63,60.51,67.55c0,44.5-21.11,66.79-63.33,66.84H94.07V366.61H150.71 M-39.97,60.54
					c-0.7,0.68-1.05,1.5-1.06,2.46v14.07c0.01,0.96,0.36,1.78,1.06,2.46c0.68,0.7,1.5,1.05,2.46,1.06h27.44v205.1h-27.44
					c-0.96,0.01-1.78,0.36-2.46,1.06c-0.7,0.68-1.05,1.5-1.06,2.46v14.07c0.01,0.96,0.36,1.78,1.06,2.46
					c0.68,0.7,1.5,1.05,2.46,1.06h88.3c21.93-0.02,39.17-6.23,51.72-18.65c12.66-12.54,18.99-29.67,19-51.36
					c-0.02-21.42-6.59-38.89-19.7-52.42c-5.08-5.17-12-9.62-20.76-13.37c22.59-11.61,33.84-29.67,33.77-54.18
					c0.01-17.46-5.5-31.42-16.53-41.86v-0.35C87.37,64.51,72.71,59.46,54.32,59.49h-91.82C-38.47,59.5-39.29,59.85-39.97,60.54
					 M9.64,80.6h46.44c12.08,0.02,21.58,3.19,28.5,9.5c6.78,6.53,10.18,15.44,10.2,26.74c0.04,13.84-5.12,24.86-15.48,33.07
					c-10.98,8.66-25.52,13-43.62,13.02H9.64V80.6 M9.64,184.03h40.11c15.61,0.01,28.16,4.94,37.64,14.78
					c9.63,9.94,14.44,22.96,14.42,39.05c0.01,14.67-4.33,26.4-13.02,35.18c-8.79,8.46-20.63,12.68-35.53,12.67H9.64V184.03
					 M494.78,446.47c-5.29-23.27-12.32-41.57-21.11-54.88c-24.03-37.52-59.21-56.28-105.54-56.29c-22.98-0.01-44.21,6.2-63.68,18.65
					v0.35c-19.65,13.66-35.13,33.94-46.44,60.86c-11.23,27.16-16.86,57.76-16.89,91.82c0.03,24.4,2.61,47.97,7.74,70.71l0,0
					c5.29,23.27,12.32,41.68,21.11,55.23c24.51,37.53,59.11,56.29,103.78,56.29c33.16-0.02,59.9-9.99,80.21-29.9
					c14.03-13.77,23.76-27.72,29.2-41.86v0.35c12.87-30.7,19.32-63.53,19.35-98.51C502.54,493.96,499.96,469.68,494.78,446.47
					 M453.26,412.35c13.59,26.68,20.39,60.69,20.4,102.02c-0.02,48.16-8.7,85.1-26.03,110.82c-16.77,25.36-41.04,38.03-72.82,38
					c-31.66-0.02-56.99-13.04-75.99-39.05c-19.24-26.69-28.86-62.34-28.85-106.95c0.03-22.51,2.37-44.2,7.04-65.08
					c4.57-20.57,10.43-36.4,17.59-47.49c18.87-29.29,45.26-43.95,79.16-43.98c16.67,0.03,32.39,4.96,47.14,14.78
					C434.57,384.78,445.36,397.1,453.26,412.35 M506.04,343.75c-0.7,0.68-1.05,1.5-1.06,2.46v18.65c0.01,0.96,0.36,1.78,1.06,2.46
					c0.68,0.7,1.5,1.05,2.46,1.06h31.31v274.06h-29.9c-0.96,0.01-1.78,0.36-2.46,1.06c-0.7,0.68-1.05,1.5-1.06,2.46v18.65
					c0.01,0.96,0.36,1.78,1.06,2.46c0.68,0.7,1.5,1.05,2.46,1.06h91.12c0.96-0.01,1.78-0.36,2.46-1.06c0.7-0.68,1.05-1.5,1.06-2.46
					v-18.65c-0.01-0.96-0.36-1.78-1.06-2.46c-0.68-0.7-1.5-1.05-2.46-1.06h-39.05V529.15h58.4c25.76-0.01,45.93-8.46,60.51-25.33
					c14.53-16.36,21.81-39.11,21.81-68.25c-0.01-28.9-7.05-51.53-21.11-67.9c-14.12-16.65-33.47-24.98-58.05-24.98H508.5
					C507.54,342.7,506.71,343.05,506.04,343.75 M615.8,503.11h-53.83V368.37h56.29c40.58,0.12,60.86,22.75,60.86,67.9
					C679.12,480.78,658.02,503.06,615.8,503.11 M373.05,122.81c26.4,0,39.65,11.96,39.75,35.88v13.02
					c-7.35,1.66-16.97,3.31-28.85,4.93c-19.2,2.85-33.97,6.25-44.33,10.2l0,0c-10.37,4.35-18.82,10.34-25.33,17.94l0,0
					c-8.71,10.88-13.05,23.08-13.02,36.59c-0.01,11.95,3.51,21.81,10.55,29.55c8.6,10.57,22.2,15.85,40.81,15.83
					c13.75,0.01,25.48-2.46,35.18-7.39c8.12-4.3,16.8-11.33,26.03-21.11c3.43,19.25,13.4,28.75,29.9,28.5
					c7.16,0,14.31-2.11,21.46-6.33c0.53-0.18,0.88-0.53,1.06-1.06c0.45-0.54,0.69-1.13,0.7-1.76v-14.42
					c0.01-0.87-0.35-1.69-1.06-2.46c-0.5-0.58-1.2-0.93-2.11-1.06c-0.9-0.08-1.72,0.16-2.46,0.7c-7.14,5.04-12.76,7.62-16.89,7.74
					c-3.33-0.04-6.15-1.57-8.44-4.57c-2.57-3.41-3.86-7.52-3.87-12.31v-90.06c-0.01-20.64-4.7-35.53-14.07-44.68
					c-8.9-9.39-23.56-14.08-43.98-14.07c-19.48-0.03-35.2,4.78-47.14,14.42l0,0c-11.61,10.04-17.35,20.95-17.24,32.72
					c0.02,5.33,1.66,9.91,4.93,13.72c3.39,3.99,7.61,5.99,12.67,5.98c5.28,0.01,9.62-2.1,13.02-6.33h0.35
					c3.31-4.06,4.95-9.22,4.93-15.48c0.01-6.07-1.75-11.23-5.28-15.48C349.9,125.85,360.81,122.8,373.05,122.81 M412.81,193.88
					v33.77c-17.36,25.9-37.65,38.91-60.86,39.05c-9.36,0-16.98-2.58-22.87-7.74c-5.41-4.85-8.11-11.3-8.09-19.35
					c-0.01-6.89,2.22-13.1,6.68-18.65c5.37-6.21,11.94-10.9,19.7-14.07h0.35c8.26-3.38,21.16-6.31,38.7-8.8L412.81,193.88
					 M592.58,157.99v14.07c0.01,0.96,0.36,1.78,1.06,2.46c0.68,0.7,1.5,1.05,2.46,1.06h26.74v125.95h-24.63
					c-0.96,0.01-1.78,0.36-2.46,1.06c-0.7,0.68-1.05,1.5-1.06,2.46v14.07c0.01,0.96,0.36,1.78,1.06,2.46
					c0.68,0.7,1.5,1.05,2.46,1.06h68.25c0.96-0.01,1.78-0.36,2.46-1.06c0.7-0.68,1.05-1.5,1.06-2.46V304.7
					c-0.01-0.96-0.36-1.78-1.06-2.46c-0.68-0.7-1.5-1.05-2.46-1.06h-23.92V217.1c14.43-29.97,32.25-45.1,53.47-45.38
					c20.17,0.22,30.26,13,30.26,38.35v91.12H703.4c-0.96,0.01-1.78,0.36-2.46,1.06c-0.7,0.68-1.05,1.5-1.06,2.46v14.42
					c0.01,0.96,0.36,1.78,1.06,2.46c0.68,0.7,1.5,1.05,2.46,1.06h65.44c0.96-0.01,1.78-0.36,2.46-1.06c0.7-0.68,1.05-1.5,1.06-2.46
					V304.7c-0.01-0.96-0.36-1.78-1.06-2.46c-0.68-0.7-1.5-1.05-2.46-1.06h-22.87v-92.52c-0.02-18.11-4.36-32.3-13.02-42.57
					c-8.21-10.1-20.06-15.14-35.53-15.13c-12.49,0.02-23.27,3.19-32.37,9.5v-0.35c-7.11,4.96-14.49,12.58-22.16,22.87v-24.98
					c-0.01-0.96-0.36-1.78-1.06-2.46c-0.68-0.7-1.5-1.05-2.46-1.06H596.1c-0.96,0.01-1.78,0.36-2.46,1.06
					C592.94,156.21,592.59,157.03,592.58,157.99 M540.16,123.87c-0.68-0.7-1.5-1.05-2.46-1.06h-65.08
					c-0.96,0.01-1.78,0.36-2.46,1.06c-0.7,0.68-1.05,1.5-1.06,2.46v14.07c0.01,0.96,0.36,1.78,1.06,2.46
					c0.68,0.7,1.5,1.05,2.46,1.06h48.9v125.95h-45.73c-0.96,0.01-1.78,0.36-2.46,1.06c-0.7,0.68-1.05,1.5-1.06,2.46v14.42
					c0.01,0.96,0.36,1.78,1.06,2.46c0.68,0.7,1.5,1.05,2.46,1.06h115.04c0.96-0.01,1.78-0.36,2.46-1.06c0.7-0.68,1.05-1.5,1.06-2.46
					v-14.42c-0.01-0.96-0.36-1.78-1.06-2.46c-0.68-0.7-1.5-1.05-2.46-1.06h-49.6V126.33C541.21,125.37,540.86,124.55,540.16,123.87
					 M540.86,42.95L540.86,42.95c-4.62-4.97-10.13-7.43-16.53-7.39c-6.21-0.02-11.48,2.56-15.83,7.74v0.35
					c-4.23,4.81-6.34,10.67-6.33,17.59c0.04,7.22,2.15,13.32,6.33,18.29c4.6,5.45,9.99,8.15,16.18,8.09
					c6.44,0.04,11.84-2.66,16.18-8.09c4.44-4.97,6.67-11.06,6.68-18.29C547.52,54.27,545.29,48.17,540.86,42.95z"/>
			</g>
		</g>
	</g>
	<g transform="matrix( 1, 0, 0, 1, -18.6,-6.4) ">
		<g>
			<defs>
				<rect id="SVGID_1_" x="734.97" y="354.04" width="57.78" height="77"/>
			</defs>
			<clipPath id="SVGID_2_">
				<use xlink:href="#SVGID_1_"  style="overflow:visible;"/>
			</clipPath>
			<text transform="matrix(2.1429 0 0 2.1429 722.7034 427.5503)" class="st3 st4">®</text>
		</g>
	</g>
</g>
</svg>
