<?xml version="1.0" encoding="utf-8"?>
<!-- Generator: Adobe Illustrator 24.0.0, SVG Export Plug-In . SVG Version: 6.00 Build 0)  -->
<svg version="1.1" id="Layer_1" xmlns="http://www.w3.org/2000/svg" xmlns:xlink="http://www.w3.org/1999/xlink" x="0px" y="0px"
	 viewBox="0 0 2324.21 2324.21" style="enable-background:new 0 0 2324.21 2324.21;" xml:space="preserve">
<style type="text/css">
	.st0{fill:#A6B4C9;}
	.st1{fill:#1A3668;}
</style>
<g transform="translate(-385.82786,-556.4334)">
	<path class="st0" d="M1091.14,2880.62l941.56-0.23c-204.38-60.36-315.51-147.13-288.67-272.96c-44.39-48.17-61.58-101.62,0-170.36
		c-20-52.88-94.37-105.69,10.37-156.65c13.88-215.36,228.81,91.81,296.94-49.96c-80.69-13.84-128.65-64.43-119.17-95.25
		c54.79-178,217.33,71.55,350.53,10.8c-77.48-25.57-175.8-142.76-92.69-179.15c59.79-26.18,155.82,64.41,268.76,10.69
		c-218.01-74.23-76.34-304.59,170.89-227.17c-18.02-39.51-46.11-73.27-75.8-90.58c-94.01-54.84-105.2-83.37-90.19-132.42
		c34.74-113.56,200.93-211.29,246.38-322.38c-153.49,122.23-220.21-19.41-169.69-208.52c26.74-100.11,137.74-203.56,152.49-290.3
		c-184.23,85.22-286.45,341.67-314.79,428.4c-18.47,56.52-112.99-70.91-147.44-111.14c-49.08,154.13,208.98,555.36-77.9,332.77
		c19.92,125.17,57.15,201.62,50.7,264.72c-14.43,141.01-131.29,134.37-142.01,82.08c-20.16,86.01-174.37,291.9-225.1,80.1
		c-47.25,44.98-74.81,172.51-97.6,220.69c-44.49,7.1-61.59-52.26-51.19-102.14c6.14-29.47,53.09-47.24,30.78-73.26
		c-27.51-32.07-8.41-60.18,37.94-81.8c29.74-108.15,65.81-49.54,142.18-70.89c-70.24-44.62-14.94-90.77,85.91-96.29
		c-27.38-50.85-22.17-95.12,62.23-123.36c-33.93-38.54-41.62-86.36,74.48-115.96c-87.81-47.47-155.35,36.56-34.95-109.91
		c-85.86-10.56-121.08,93.91-81.83-108.01c-78.56,73.72-110.96,3.65-64.88-67.54c-0.6-15.29-26.63,13.85-42.55,8.21
		c-30.46-10.8-37.81-62.49,95.22-176.35c-128.46-21.91-196.63,197.43-193.61-33.29c-87.4,144.64-79.38,95.38-79.98-49.73
		c-110.57,51.58-95.4,223.32-138.52-9.53c-122.15,29.04,16.41,280.47-170.45,5.47c-25.14,142.1,82.98,230.9-96.12,54.05
		c13.81,230.91,98.79,154.33-145.44,32.88c99.44,123.26,145.53,218.42,19.47,162.42c24.32,80.43,4.79,111.17-70.88,78.33
		c30.92,143.7,50.66,142.41-81.83,97.25c38.61,61.88,113.55,125.51-18.43,102.49c54.67,49.57,151.63,50.84,36.3,148.82
		c68.96,25.36,175.72,44.75,81.25,95.95c61.28,25.93,177.08,27.63,113.68,107.56c86.07,5.77,152.88,8.52,109.32,84.35
		c58.78,0.21,97.55,20.23,48.4,90.08c100.02,86.39,37.43,177.88-16.21,158.1c-40.15-30.35-32.6-75.83-40.62-101.69
		c-32.66-105.34-61.89-128.68-70.9-128.44c-17.87,0.49-2.92,124.62-102.19,100.5c-63.9-51.71-66.89-96.46-108.9-181.21
		c-138.45,161.82-144.42-71.37-110.63-356.4c-248.94,273.38-89.15-124.7-65.23-316.97c-201.85,352.94-231.14-301.24-504.67-323.1
		c299.03,473.06,263.09,622.81,29.97,523.25c127.84,198.87,84.28,89.65,217.37,249.36c140.34,168.39-156.36,198.73-125.07,267.34
		c214.38-29.08,395.25,124.88,175.21,246.55c-88.78,96.41,171.51-27.56,233.57-28.15c30.89-0.3,130.19,36.21-70.98,203.98
		c132.33,2.8,169.96-69.08,228.44-84.98c100.01-27.19,157.29,6.83,27.74,183.7c85.4-16.5,340.88-139.67,263.34,7.21
		c57.67,22.36,126.92,39.12,12.1,144.91c94.41,64.52,66.54,131.47,3.49,206.27c134.51,82.27-173.75,194.76-289.9,256.86
		L1091.14,2880.62z"/>
	<path class="st1" d="M623.99,1040.19c-1.23-7.96,1.23-15.99,12.64-10.55c83.72,200.95,108.61,465.67,192.03,625.02
		c98.39,209.9,285.71,265.74,457.16,349.06c69.64,34.75,141.01,85.64,176.81,140.65c11.37,17.47,11.26,16.42,6.05,24.29
		c-6.68,10.1-25.06-1.98-33.2-4.37c-117.19-47.79-126.21,15.7-173.36,8.21c-36.37-5.78,3.71-53.34,57.57-69.05
		c-87.71-74.79-138.06-78.13-193.02-88.23c-26.83,4.06-77.29,41-93.99,32.6c-17.66-8.88,18.22-34.84,49.97-63.29l-154.07-90.14
		c-38.06,9.8-72.96,43.35-116.83,44.11c-11.71-41.88,51-62.07,74.5-88.23c-33.27-27.88-66.93-54.68-91.43-107.41l-132.06-23.02
		l108.36-23.02l-99.79-307.09c-20.92-25-129.05-82.85-102.97-105.84c12.19-10.75,90.94,56.66,98.49,37.73
		c9.62-99.37-11.23-196.05-42.82-281.47L623.99,1040.19z"/>
	<path class="st1" d="M2499.33,1028.34c1.11-7.99-1.48-15.96-12.8-10.3c-80.63,202.57-101.48,467.72-182.43,628.71
		c-95.17,211.8-281.6,271.31-451.74,357.98c-69.09,36.11-139.68,88.39-174.63,144.1c-11.1,17.69-11,16.63-5.68,24.41
		c6.83,9.97,25.02-2.48,33.12-5.02c116.44-50.09,126.43,13.22,173.47,4.8c36.28-6.49-4.52-53.26-58.61-67.91
		c86.55-76.5,136.84-80.83,191.64-92c26.88,3.54,77.91,39.48,94.47,30.76c17.52-9.23-18.75-34.48-50.93-62.3l152.67-93.15
		c38.21,9.05,73.61,41.92,117.48,41.82c11.06-42.1-51.94-61.06-75.84-86.75c32.84-28.53,66.08-55.98,89.77-109.18l133.63-41
		l-110.64-5.49l95.08-309c20.53-25.4,145.24-69.97,118.81-92.45c-12.35-10.51-107.53,43.04-115.37,24.26
		C2449.68,1211.45,2469.05,1114.38,2499.33,1028.34L2499.33,1028.34z"/>
	<path class="st1" d="M1554.37,1786.73c-4.09,258.95-4.94,761.57,3.62,1005.19c0.6,17.08,23,26.44,45.28,0
		c9.29-29.43-1.43-41.86-10.87-55.39c-14.07-44.66-4.03-62,0-86.16l38.03-28.72l-30.79-41.03c-36.19-77.72-0.51-128.29,41.65-176.42
		l-34.41-32.82c-43.43-69.56-16.9-118.76,25.35-164.11l-27.17-51.29c-17.3-49.68-20.38-98.69,19.92-145.65
		c3.35-8.55,6.63-17.09-1.81-25.64c-64.14-56.75-11.45-137.16-12.68-197.97c-1.14-21.16-55.81-21.2-56.14,0L1554.37,1786.73z"/>
	<path class="st1" d="M1456.82,1697.27c-29.72-3.77-41.44-27.95-13.15-32.99c51.44,2.57,86.06,24.2,120.36,46.18
		c9.06,4.41,18.12,5.91,27.18,0c37.86-15.74,74.51-49.44,113.79-44.32c16.94,6.41,18.83,28.72,1.34,27.74
		c-73.26,24.58-87.07,36.1-108.39,51.76c-21.51,9.77-28.06,2.91-41.69,0C1515.73,1717.62,1494.11,1712.44,1456.82,1697.27
		L1456.82,1697.27z"/>
	<path class="st1" d="M1444.92,1642.44l39.78-55.94l30.18-0.79c-8.57-40.15-25.16-57.47-38.41-80.03
		C1436.15,1531.98,1434.34,1583.19,1444.92,1642.44L1444.92,1642.44z"/>
	<path class="st1" d="M1570.54,1656.38l47.72-66.09l36.2-0.93c-10.28-47.43-30.18-67.9-46.07-94.54
		c-48.36,31.06-50.54,91.57-37.85,161.55L1570.54,1656.38z"/>
	<path class="st1" d="M1708.96,1648.71l47.72-66.09l36.2-0.93c-10.28-47.43-30.18-67.9-46.07-94.54
		c-48.36,31.06-50.54,91.57-37.85,161.55L1708.96,1648.71z"/>
	<path class="st1" d="M1803.14,1529.05l53.39-60.27l36.1,3.25c-5.98-48.37-23.94-71.02-37.37-99.35
		C1804.36,1398.03,1796.78,1457.97,1803.14,1529.05z"/>
	<path class="st1" d="M1910.82,1425.19l18.53-70.78l26.49-13.05c-19.57-35.68-39.42-45.82-57.88-62.43
		C1870.1,1321.01,1883.78,1371.71,1910.82,1425.19L1910.82,1425.19z"/>
	<path class="st1" d="M1837.43,1319.01l22.27-69.38l27.14-11.21c-17.63-36.95-36.91-48.44-54.45-66.28
		C1802.35,1212.22,1813.3,1263.77,1837.43,1319.01L1837.43,1319.01z"/>
	<path class="st1" d="M1763.34,1423.56l36.33-61.3l28.72-3.5c-9.28-40.67-25.56-57.06-38.81-79.15
		C1751.92,1310.36,1751.61,1363.38,1763.34,1423.56L1763.34,1423.56z"/>
	<path class="st1" d="M1674.85,1522.78l42.75-55.73l28.88,0.56c-4.76-41.66-19.12-60.21-29.85-83.99
		c-40.73,25.23-46.84,77.79-41.78,139.16L1674.85,1522.78z"/>
	<path class="st1" d="M1533.58,1544.85l41.81-69.63l33.01-4.07c-10.63-46.08-29.33-64.62-44.54-89.62
		C1520.56,1416.52,1520.16,1476.63,1533.58,1544.85z"/>
	<path class="st1" d="M1489.87,1467.48l19.95-81.12l30.13-15.82c-23.09-39.81-46.03-50.6-67.51-68.78
		C1441.29,1350.61,1457.89,1407.71,1489.87,1467.48L1489.87,1467.48z"/>
	<path class="st1" d="M1430.52,1367.34l9.78-63.91l23.3-15.35c-22-27.74-41.58-33.43-60.53-44.9
		C1381.58,1283.78,1399.67,1325.39,1430.52,1367.34L1430.52,1367.34z"/>
	<path class="st1" d="M1366.56,1302.28l8.99-51.66l18.59-11.87c-16.69-23.1-31.92-28.22-46.55-38.01
		C1329.89,1233.15,1343.22,1267.42,1366.56,1302.28L1366.56,1302.28z"/>
	<path class="st1" d="M1313.25,1264.64l1.84-52.62l16.75-14.98c-19.64-19.9-35.38-22.29-51.18-29.41
		C1267.59,1202.75,1285.44,1234.27,1313.25,1264.64L1313.25,1264.64z"/>
	<path class="st1" d="M1400.67,1557.4l34.47-60.3l29.95-4.3c-12.19-38.93-30.26-54.22-45.5-75.11
		C1381.89,1448.56,1384.75,1499.71,1400.67,1557.4L1400.67,1557.4z"/>
	<path class="st1" d="M1353.94,1474.68l23.86-59.41l27.36-8.87c-16.74-32.55-35.72-43.1-52.82-59.09
		C1321.4,1381.1,1331.13,1426.09,1353.94,1474.68L1353.94,1474.68z"/>
	<path class="st1" d="M1292.99,1399.17l13.33-52.67l22.77-11.99c-18.73-23.7-36.64-29.03-53.59-39.14
		C1252.76,1328.34,1266.93,1363.41,1292.99,1399.17L1292.99,1399.17z"/>
	<path class="st1" d="M1233.82,1346.66l9.96-44.8l17.01-10.2c-14-20.16-27.38-24.69-40.05-33.29
		C1203.76,1286.41,1214.35,1316.25,1233.82,1346.66L1233.82,1346.66z"/>
	<path class="st1" d="M1201.66,1428.68l3.48-41.83l15.35-11.96c-16.67-15.77-30.52-17.62-44.24-23.24
		C1163.45,1379.62,1178.13,1404.62,1201.66,1428.68L1201.66,1428.68z"/>
	<path class="st1" d="M1251.77,1487.46l3.58-45.19l15.78-12.92c-17.14-17.03-31.37-19.04-45.48-25.11
		C1212.49,1434.45,1227.58,1461.47,1251.77,1487.46L1251.77,1487.46z"/>
	<path class="st1" d="M1296.01,1551.59l11.23-51.73l19.36-11.53c-16-23.58-31.26-29.05-45.72-39.21
		C1261.6,1481.32,1273.75,1516.05,1296.01,1551.59L1296.01,1551.59z"/>
	<path class="st1" d="M1348.43,1633.84l12.62-58.78l21.75-13.1c-17.98-26.78-35.13-33-51.37-44.55
		C1309.76,1554,1323.41,1593.46,1348.43,1633.84L1348.43,1633.84z"/>
	<path class="st1" d="M1707.01,1332.02l30.56-65.22l28.25-6.84c-12.93-39.36-30.62-53.77-45.81-74.19
		C1685.34,1220.75,1689.87,1273.52,1707.01,1332.02L1707.01,1332.02z"/>
	<path class="st1" d="M1632.2,1432.39l31.06-58.06l25.86-4.34c-9.57-37.24-24.77-51.78-37.39-71.69
		C1618.58,1328.17,1619.85,1377.2,1632.2,1432.39L1632.2,1432.39z"/>
	<path class="st1" d="M1594,1364.55l15.1-65.69l23.69-12.54c-18.58-32.58-36.81-41.59-53.93-56.58
		C1554.63,1269.1,1568.22,1315.66,1594,1364.55L1594,1364.55z"/>
	<path class="st1" d="M1521.32,1307.62l9.84-66.96l22.6-14.89c-21.08-30.56-39.96-37.68-58.19-50.87
		C1474.55,1216.56,1491.78,1261.55,1521.32,1307.62L1521.32,1307.62z"/>
	<path class="st1" d="M1448.65,1231.64l9.04-54.45l20.76-12.11c-19.37-24.85-36.71-30.63-53.47-41.36
		C1405.67,1157.6,1421.5,1194.19,1448.65,1231.64L1448.65,1231.64z"/>
	<path class="st1" d="M1385.75,1179.37l1.84-52.62l16.75-14.98c-19.63-19.9-35.38-22.29-51.18-29.41
		C1340.09,1117.48,1357.94,1149,1385.75,1179.37L1385.75,1179.37z"/>
	<path class="st1" d="M1431.06,1065.28l-5.45-45.51l12.85-15.85c-20.1-13.59-34.4-12.83-49.38-16.13
		C1382.21,1020.29,1402.3,1044.17,1431.06,1065.28L1431.06,1065.28z"/>
	<path class="st1" d="M1507.11,1117.79l3.82-55.23l19.5-14.56c-21.62-22.35-39.4-25.99-57.08-34.62
		C1457.36,1049.4,1476.57,1083.86,1507.11,1117.79L1507.11,1117.79z"/>
	<path class="st1" d="M1583.87,1183.08l3.82-65.08l19.5-17.16c-21.62-26.33-39.4-30.62-57.08-40.78
		C1534.12,1102.51,1553.33,1143.1,1583.87,1183.08L1583.87,1183.08z"/>
	<path class="st1" d="M1660.28,1245.58l11.06-64.01l21.26-14.23c-18.5-29.22-35.67-36.02-52.07-48.63
		C1619.92,1158.53,1634.45,1201.54,1660.28,1245.58L1660.28,1245.58z"/>
	<path class="st1" d="M1780.93,1214.68l10.08-57.74l19.37-12.84c-16.87-26.36-32.51-32.5-47.46-43.88
		C1744.15,1136.14,1757.39,1174.95,1780.93,1214.68L1780.93,1214.68z"/>
	<path class="st1" d="M1716.25,1135.22l2.9-49.7l16.81-13.29c-18.93-19.89-34.39-23-49.79-30.59
		C1672.57,1074.19,1689.5,1104.99,1716.25,1135.22L1716.25,1135.22z"/>
	<path class="st1" d="M1639.31,1074.81l2.76-43.94l15.97-11.74c-17.98-17.59-32.66-20.33-47.3-27.04
		C1597.82,1020.87,1613.9,1048.09,1639.31,1074.81L1639.31,1074.81z"/>
	<path class="st1" d="M1567.52,1015.79l2.03-27.46l11.75-7.34c-13.23-10.99-24.04-12.71-34.81-16.9
		C1536.98,982.07,1548.82,999.09,1567.52,1015.79L1567.52,1015.79z"/>
	<path class="st1" d="M1755.16,1677.52c8.25-12.9,15.95-26.87,35.13-27.45c3.84-8.12-0.3-10.35-4.8-12.31
		C1764.29,1636.49,1739.36,1674.89,1755.16,1677.52L1755.16,1677.52z"/>
	<path class="st1" d="M1887.19,1548.1c-10.71,10.33-21.11,21.84-39.87,17.26c-5.43,6.86-1.87,10.13,2.1,13.24
		C1869.75,1585.52,1901.99,1554.9,1887.19,1548.1L1887.19,1548.1z"/>
	<path class="st1" d="M1934.45,1497.45c6.65-11.82,12.87-24.63,28.33-25.16c3.1-7.44-0.24-9.48-3.87-11.28
		C1941.81,1459.85,1921.71,1495.03,1934.45,1497.45L1934.45,1497.45z"/>
	<path class="st1" d="M1992.38,1391.27c6.65-11.82,12.87-24.63,28.33-25.16c3.1-7.44-0.24-9.48-3.87-11.28
		C1999.74,1353.66,1979.64,1388.85,1992.38,1391.27L1992.38,1391.27z"/>
	<path class="st1" d="M2001.08,1311.57c3.45-13.47,6.23-27.74,20.94-33.17c1.12-8.13-2.59-9.03-6.52-9.59
		C1998.81,1273.15,1988.26,1313.31,2001.08,1311.57L2001.08,1311.57z"/>
	<path class="st1" d="M1964.66,1205.62c4.16-8.28,3.49-16.72,7.13-25.02c-1.91-4.97-5.62-4.41-9.41-3.59
		C1948.71,1184.33,1953.58,1210.34,1964.66,1205.62z"/>
	<path class="st1" d="M1895.89,1116.86c4.16-9.7,3.49-19.57,7.13-29.29c-1.91-5.82-5.62-5.16-9.41-4.2
		C1879.94,1091.94,1884.81,1122.38,1895.89,1116.86L1895.89,1116.86z"/>
	<path class="st1" d="M1837.97,1015.33c4.16-12.05,3.48-24.33,7.13-36.41c-1.91-7.23-5.62-6.41-9.41-5.22
		C1822.02,984.35,1826.89,1022.19,1837.97,1015.33L1837.97,1015.33z"/>
	<path class="st1" d="M1677.16,972.11c6.56,10.6,15.97,16.74,22.84,26.87c6.37,2.19,7.82-1.75,9.04-6
		C1708.76,974.19,1678.24,957.86,1677.16,972.11L1677.16,972.11z"/>
	<path class="st1" d="M1741.48,1013c6.56,10.6,11.57,20.06,18.44,30.18C1814.48,1039.75,1744.52,992.13,1741.48,1013z"/>
	<path class="st1" d="M1804.92,1067.84c6.04,14.17,10.32,26.59,16.88,40.29C1893.79,1119.01,1813.84,1044.28,1804.92,1067.84z"/>
	<path class="st1" d="M1873.86,1128.02c10.76,2.15,19.69,49.02,11.44,61.27c-10.58,12.06-13.75,0.4-13.47-25.75
		C1868.22,1147.4,1848.99,1128.12,1873.86,1128.02z"/>
	<path class="st1" d="M1922.01,1202.83c-8.43,8.57-6.79,18.65-8.34,30.69c7.09,13.72,13.9,15.8,21.73,61.37
		c3.77,1.96,7.54,2.84,11.31,0.35c4.8-13.94,5.5-27.88,19.05-41.82c-9.77-25.99-31.96-43-43.76-50.58L1922.01,1202.83z"/>
	<path class="st1" d="M1300.46,1045.77c6.56,19.42,15.97,30.69,22.84,49.25c6.37,4.02,7.82-3.22,9.04-10.99
		C1332.06,1049.57,1301.53,1019.64,1300.46,1045.77L1300.46,1045.77z"/>
	<path class="st1" d="M1245.37,1118.26c6.56,19.43,15.97,30.69,22.84,49.25c6.37,4.03,7.82-3.22,9.04-10.99
		C1276.98,1122.07,1246.45,1092.14,1245.37,1118.26L1245.37,1118.26z"/>
	<path class="st1" d="M1186.56,1173.32c9.97,17.47,12.44,32.72,21.61,49.96c-0.9,8.21-6.91,5.25-13.17,1.77
		C1170.61,1204.46,1167.31,1158.88,1186.56,1173.32L1186.56,1173.32z"/>
	<path class="st1" d="M1136.98,1267.43c11.54,12.7,16.4,25.3,27.23,38c0.75,7.32-4.84,6.21-10.72,4.72
		C1129.29,1298.22,1118.21,1259.58,1136.98,1267.43L1136.98,1267.43z"/>
	<path class="st1" d="M1141.07,1383.14c-14.39-8.17-22.37-18.53-36.08-26.94c-2.66-6.72,2.96-7.58,8.96-8.16
		C1140.2,1351.14,1161.06,1384.2,1141.07,1383.14L1141.07,1383.14z"/>
	<path class="st1" d="M1148,1448.43c15.3,5.66,24.55,14.55,39.21,20.56c3.51,6.2-1.93,7.99-7.79,9.58
		C1153.06,1479.91,1128.09,1450.74,1148,1448.43L1148,1448.43z"/>
	<path class="st1" d="M1204.33,1563.44c13.69-3.64,27.59-8.5,42.43,5.28c7.59-3.29,5.75-8.05,3.47-12.86
		C1234.92,1539.18,1193.9,1549.73,1204.33,1563.44L1204.33,1563.44z"/>
	<path class="st1" d="M1297.43,1656.84c15.03-4.2,30.28-9.81,46.57,6.09c8.34-3.8,6.31-9.28,3.81-14.84
		C1331.02,1628.86,1285.99,1641.03,1297.43,1656.84L1297.43,1656.84z"/>
	<path class="st0" d="M1062.35,740.69c97.2,122.55,136.02,121.11,189.75,151.34C1199.95,751.33,1108.24,742.3,1062.35,740.69z"/>
	<path class="st0" d="M1258.34,799.01c-8.86-35.16-54.57-218.85-66.41-128.03C1104.76,620.16,1229.06,808.19,1258.34,799.01z"/>
	<path class="st0" d="M1360.34,830.15c-37.42-145.87-67.04-160.51-98.65-208.67C1259.94,764.61,1326.29,809.96,1360.34,830.15z"/>
	<path class="st0" d="M1403.52,767.18c31.78-57.09-54.57-259.42-68.83-159.82c-31.94-1.94-43.52,33.91-22.3,37.02
		C1371.83,653.08,1384.66,773.16,1403.52,767.18L1403.52,767.18z"/>
	<path class="st0" d="M1566.1,770.2c9.64-44.56,60.67-276.96-2.2-186.29C1496.56,467.16,1529.05,759.61,1566.1,770.2z"/>
	<path class="st0" d="M1430.88,562.71c11.91,173.06,44.04,199.94,71,264.16C1536.19,671.2,1467.05,597.26,1430.88,562.71z"/>
	<path class="st0" d="M1627.05,818.76c52.82-153.51,38.13-189.35,40.69-255.26C1586.18,683.73,1612.04,774.72,1627.05,818.76z"/>
	<path class="st0" d="M1707.19,780.89c23.47-34.72,146.53-215.5,58.61-162.23C1741.23,490.52,1676.21,756.83,1707.19,780.89z"/>
	<path class="st0" d="M1763.87,843.16c100.31-128.31,96.71-168.65,119.65-231.47C1764.74,696.76,1762.48,794.75,1763.87,843.16z"/>
	<path class="st0" d="M1863.38,805.28c57.83,0.99,162.26-177.24,82.18-141.35c-14.71-30.12-46.81-23.08-38.36-2.17
		C1930.86,720.32,1849.47,791.02,1863.38,805.28L1863.38,805.28z"/>
	<path class="st0" d="M2059.37,714.67c-135.08,61.08-147.28,102.85-190.87,149.56C2003.07,857.31,2042.19,762.9,2059.37,714.67z"/>
</g>
</svg>
