<?xml version="1.0" encoding="utf-8"?>
<!-- Generator: Adobe Illustrator 24.0.0, SVG Export Plug-In . SVG Version: 6.00 Build 0)  -->
<svg version="1.1" id="Layer_1" xmlns="http://www.w3.org/2000/svg" xmlns:xlink="http://www.w3.org/1999/xlink" x="0px" y="0px"
	 viewBox="0 0 1024 1024" style="enable-background:new 0 0 1024 1024;" xml:space="preserve">
<g>
	<path d="M24.54,261.97H88.6V363.1h19.34V261.97h64.87v268.34h-64.87V416.29H88.6v114.02H24.54V261.97z"/>
	<path d="M253.8,261.97v268.34h-63.66V261.97H253.8z"/>
	<path d="M325.92,442.48v21.76c0,16.12,2.82,20.14,8.86,20.14c5.64,0,7.66-5.64,7.66-15.71c0-20.15-2.42-26.19-27-49.15
		c-32.64-30.62-47.95-46.33-47.95-85.42c0-43.11,16.12-76.15,68.09-76.15c57.21,0,67.29,35.05,67.29,71.31v16.52h-56.41v-20.55
		c0-13.7-2.42-17.33-8.46-17.33c-4.84,0-7.66,4.03-7.66,16.12c0,14.1,2.42,19.74,22.56,37.87c36.67,32.64,53.99,49.56,53.99,92.27
		c0,49.15-14.91,80.18-71.72,80.18c-50.77,0-70.11-27.8-70.11-75.75v-16.12H325.92z"/>
	<path d="M439.14,314.75h-31.83v-52.78h127.32v52.78H502.8v215.56h-63.66V314.75z"/>
	<path d="M687.74,332.08V460.2c0,54.39-29.82,74.14-76.55,74.14c-45.13,0-71.72-21.35-71.72-74.14V328.86
		c0-49.56,30.62-70.91,73.33-70.91S687.74,279.7,687.74,332.08z M603.54,324.42v143.44c0,10.07,2.82,16.12,9.67,16.12
		c6.05,0,9.67-5.24,9.67-16.12V324.02c0-12.09-2.82-15.71-10.07-15.71C606.76,308.31,603.54,312.34,603.54,324.42z"/>
	<path d="M766.71,417.09v113.22h-63.66V261.97h79.37c52.38,0,68.9,26.59,68.9,68.9v9.67c0,30.22-10.07,45.53-25.79,53.59
		c19.34,8.86,24.58,23.77,24.58,62.85c0,32.23-0.4,62.85,0.8,73.33h-62.05c-2.82-4.84-3.63-23.37-3.63-84.61
		c0-26.59-2.42-28.61-15.31-28.61H766.71z M767.12,369.55h4.84c10.48,0,14.91-3.63,14.91-20.55v-21.35
		c0-14.91-3.63-18.13-16.12-18.13h-3.63V369.55z"/>
	<path d="M894.04,530.31v-71.72c0-5.64-1.21-15.71-2.42-21.76l-41.5-174.86h68.09c2.01,32.23,5.24,70.51,7.25,110.4h4.03
		c2.01-29.82,6.45-75.34,9.27-110.4h63.26l-42.31,179.7c-1.21,5.64-2.01,8.06-2.01,12.89v75.75H894.04z"/>
</g>
<g>
	<path d="M55.47,603.9H23.64v-52.78h127.32v52.78h-31.83v215.56H55.47V603.9z"/>
	<path d="M304.07,621.23v128.13c0,54.39-29.82,74.13-76.55,74.13c-45.13,0-71.72-21.35-71.72-74.13V618.01
		c0-49.56,30.62-70.91,73.33-70.91S304.07,568.85,304.07,621.23z M219.86,613.57v143.44c0,10.07,2.82,16.12,9.67,16.12
		c6.04,0,9.67-5.24,9.67-16.12V613.17c0-12.09-2.82-15.71-10.07-15.71C223.08,597.46,219.86,601.49,219.86,613.57z"/>
	<path d="M319.38,551.12h70.11c52.78,0,78.16,20.55,78.16,83v98.72c0,56-14.5,86.62-68.9,86.62h-79.37V551.12z M383.44,771.52h5.64
		c10.07,0,13.7-5.64,13.7-17.73V616.39c0-14.1-5.24-17.33-14.1-17.33h-5.24V771.52z"/>
	<path d="M542.99,763.05l-3.22,56.41H474.5l28.61-268.34h101.94l28.2,268.34h-66.08l-3.22-56.41H542.99z M561.13,709.87
		c-1.21-20.55-6.05-90.66-7.25-105.16h-2.82c-0.4,11.69-4.43,78.97-5.64,105.16H561.13z"/>
	<path d="M658.63,819.46v-71.72c0-5.64-1.21-15.71-2.42-21.76l-41.5-174.86h68.09c2.01,32.23,5.24,70.51,7.25,110.4h4.03
		c2.01-29.82,6.45-75.34,9.27-110.4h63.26l-42.31,179.7c-1.21,5.64-2.01,8.06-2.01,12.89v75.75H658.63z"/>
</g>
</svg>
