<?xml version="1.0" encoding="utf-8"?>
<!-- Generator: Adobe Illustrator 22.1.0, SVG Export Plug-In . SVG Version: 6.00 Build 0)  -->
<svg version="1.1" id="Layer_1" xmlns="http://www.w3.org/2000/svg" xmlns:xlink="http://www.w3.org/1999/xlink" x="0px" y="0px"
	 viewBox="0 0 978.4 565.5" style="enable-background:new 0 0 978.4 565.5;" xml:space="preserve">
<g>
	<path d="M0.9,4H65v101.1h19.3V4h64.9v268.3H84.3v-114H65v114H0.9V4z"/>
	<path d="M230.2,4v268.3h-63.7V4H230.2z"/>
	<path d="M302.3,184.5v21.8c0,16.1,2.8,20.1,8.9,20.1c5.6,0,7.7-5.6,7.7-15.7c0-20.1-2.4-26.2-27-49.1
		c-32.6-30.6-47.9-46.3-47.9-85.4C243.8,33,260,0,311.9,0c57.2,0,67.3,35,67.3,71.3v16.5h-56.4V67.3c0-13.7-2.4-17.3-8.5-17.3
		c-4.8,0-7.7,4-7.7,16.1c0,14.1,2.4,19.7,22.6,37.9c36.7,32.6,54,49.6,54,92.3c0,49.1-14.9,80.2-71.7,80.2
		c-50.8,0-70.1-27.8-70.1-75.8v-16.1L302.3,184.5L302.3,184.5z"/>
	<path d="M415.5,56.8h-31.8V4H511v52.8h-31.8v215.6h-63.7V56.8L415.5,56.8z"/>
	<path d="M664.1,74.1v128.1c0,54.4-29.8,74.1-76.5,74.1c-45.1,0-71.7-21.3-71.7-74.1V70.9c0-49.6,30.6-70.9,73.3-70.9
		S664.1,21.8,664.1,74.1z M579.9,66.5v143.4c0,10.1,2.8,16.1,9.7,16.1c6,0,9.7-5.2,9.7-16.1V66.1c0-12.1-2.8-15.7-10.1-15.7
		C583.1,50.4,579.9,54.4,579.9,66.5z"/>
	<path d="M743.1,159.1v113.2h-63.7V4h79.4c52.4,0,68.9,26.6,68.9,68.9v9.7c0,30.2-10.1,45.5-25.8,53.6c19.3,8.9,24.6,23.8,24.6,62.9
		c0,32.2-0.4,62.9,0.8,73.3h-62c-2.8-4.8-3.6-23.4-3.6-84.6c0-26.6-2.4-28.6-15.3-28.6L743.1,159.1L743.1,159.1z M743.5,111.6h4.8
		c10.5,0,14.9-3.6,14.9-20.5V69.7c0-14.9-3.6-18.1-16.1-18.1h-3.6V111.6z"/>
	<path d="M870.4,272.4v-71.7c0-5.6-1.2-15.7-2.4-21.8L826.5,4h68.1c2,32.2,5.2,70.5,7.2,110.4h4c2-29.8,6.5-75.3,9.3-110.4h63.3
		l-42.3,179.7c-1.2,5.6-2,8.1-2,12.9v75.8H870.4z"/>
</g>
<g>
	<path d="M31.8,346H0v-52.8h127.3V346H95.5v215.6H31.8V346z"/>
	<path d="M280.4,363.3v128.1c0,54.4-29.8,74.1-76.5,74.1c-45.1,0-71.7-21.3-71.7-74.1V360.1c0-49.6,30.6-70.9,73.3-70.9
		S280.4,310.9,280.4,363.3z M196.2,355.6v143.4c0,10.1,2.8,16.1,9.7,16.1c6,0,9.7-5.2,9.7-16.1V355.2c0-12.1-2.8-15.7-10.1-15.7
		C199.4,339.5,196.2,343.5,196.2,355.6z"/>
	<path d="M295.7,293.2h70.1c52.8,0,78.2,20.5,78.2,83v98.7c0,56-14.5,86.6-68.9,86.6h-79.4V293.2z M359.8,513.6h5.6
		c10.1,0,13.7-5.6,13.7-17.7V358.4c0-14.1-5.2-17.3-14.1-17.3h-5.2L359.8,513.6L359.8,513.6z"/>
	<path d="M519.3,505.1l-3.2,56.4h-65.3l28.6-268.3h101.9l28.2,268.3h-66.1l-3.2-56.4H519.3z M537.5,451.9
		c-1.2-20.5-6-90.7-7.2-105.2h-2.8c-0.4,11.7-4.4,79-5.6,105.2H537.5z"/>
	<path d="M635,561.5v-71.7c0-5.6-1.2-15.7-2.4-21.8l-41.5-174.9h68.1c2,32.2,5.2,70.5,7.2,110.4h4c2-29.8,6.5-75.3,9.3-110.4H743
		l-42.3,179.7c-1.2,5.6-2,8.1-2,12.9v75.7H635z"/>
</g>
</svg>
