<?xml version="1.0" encoding="utf-8"?>
<!-- Generator: Adobe Illustrator 24.0.0, SVG Export Plug-In . SVG Version: 6.00 Build 0)  -->
<svg version="1.1" id="Layer_1" xmlns="http://www.w3.org/2000/svg" xmlns:xlink="http://www.w3.org/1999/xlink" x="0px" y="0px"
	 viewBox="0 0 303.1 303.1" style="enable-background:new 0 0 303.1 303.1;" xml:space="preserve">
<style type="text/css">
	.st0{fill:#14BF96;}
	.st1{fill:#FFFFFF;}
</style>
<path class="st0" d="M28.4,62.8c-10.5,6.6-17.1,17.9-17.9,30.3V210c0.7,12.4,7.4,23.7,17.9,30.3L133.3,299c11.3,5.5,24.5,5.5,35.7,0
	l105-58.7c10.5-6.6,17.1-17.9,17.9-30.3V93.1c-0.7-12.4-7.4-23.7-17.9-30.3L169.1,4.1c-11.3-5.5-24.5-5.5-35.7,0L28.4,62.8z"/>
<path class="st1" d="M259,122.6c-58.2,0-101.7,48.3-101.7,107.5v2.5h-11.7V230c0-59.2-43.3-107.3-102-107.5c0,3.7,0,7.5,0,10.8
	c-0.2,44.8,27.4,85,69.3,100.9c12.4,4.6,25.6,6.9,38.9,6.9c13.4,0,26.6-2.4,39.2-6.9c41.8-15.9,69.4-56.1,69.2-100.9
	C259.5,129.9,259.3,126.2,259,122.6z"/>
<circle class="st1" cx="151.3" cy="94.6" r="32.5"/>
</svg>
