<?xml version="1.0" encoding="utf-8"?>
<!-- Generator: Adobe Illustrator 22.1.0, SVG Export Plug-In . SVG Version: 6.00 Build 0)  -->
<svg version="1.1" id="Layer_1" xmlns="http://www.w3.org/2000/svg" xmlns:xlink="http://www.w3.org/1999/xlink" x="0px" y="0px"
	 viewBox="0 0 24 24" style="enable-background:new 0 0 24 24;" xml:space="preserve">
<style type="text/css">
	.st0{fill:none;}
	.st1{fill:#0364B8;}
	.st2{fill:#0A2767;}
	.st3{fill:#28A8EA;}
	.st4{fill:#35B8F1;}
	.st5{fill:#50D9FF;}
	.st6{fill:#0078D4;}
	.st7{opacity:0.5;fill:#0A2767;enable-background:new    ;}
	.st8{fill:#1490DF;}
	.st9{opacity:0.1;enable-background:new    ;}
	.st10{opacity:0.5;enable-background:new    ;}
	.st11{fill:#FFFFFF;}
</style>
<title>Outlook_24x</title>
<g id="Outlook">
	<g id="_24">
		<rect class="st0" width="24" height="24"/>
		<path class="st1" d="M21,1H8C7.4,1,7,1.4,7,2v1l8,2.4L22,3V2C22,1.4,21.6,1,21,1z"/>
		<path class="st2" d="M24,11.9c0-0.2-0.1-0.4-0.3-0.5l0,0l-8.6-4.9c0,0-0.1-0.1-0.1-0.1c-0.3-0.2-0.7-0.2-1.1,0l0,0
			c0,0-0.1,0-0.1,0.1l-8.6,4.9l0,0c-0.3,0.2-0.3,0.5-0.2,0.7c0,0.1,0.1,0.1,0.2,0.2l0,0l8.6,4.9l0.1,0.1l0,0c0.3,0.2,0.7,0.2,1.1,0
			l0.1-0.1l8.6-4.9l0,0C23.9,12.3,24,12.1,24,11.9z"/>
		<polygon class="st3" points="15,3 7,3 7,10 15,18 22,18 22,10 		"/>
		<polyline class="st4" points="23.6,22.8 5.3,12.4 5.3,12.4 		"/>
		<rect x="15" y="3" class="st5" width="7" height="7"/>
		<rect x="7" y="10" class="st6" width="8" height="10"/>
		<path class="st7" d="M14.5,19.5l-9.2-7.1l0.5-0.9l8.6,4.9c0.1,0,0.2,0,0.2,0l8.5-4.9l0.5,0.9L14.5,19.5z"/>
		<polygon class="st8" points="13.9,17.3 13.9,17.3 13.9,17.3 		"/>
		<path class="st8" d="M23.7,12.4L23.7,12.4l-8.5,4.9L15,17.3c-0.2,0.1-0.4,0.1-0.5,0.1c-0.2,0-0.4,0-0.5-0.1l2.8,3.9l6.8,1.6
			c0.3-0.2,0.4-0.5,0.4-0.8V11.9C24,12.1,23.9,12.3,23.7,12.4z"/>
		<path class="st9" d="M24,22L24,22l-8.5-4.9l-0.3,0.2L15,17.4c-0.2,0.1-0.3,0.1-0.5,0.1h-0.1c-0.1,0-0.3,0-0.4-0.1l0,0l4,3.6
			l5.6,1.8C23.8,22.6,24,22.3,24,22z"/>
		<path class="st3" d="M13.9,17.3L7,13.2l0,0l-1.7-0.8l0,0C5.1,12.3,5,12.1,5,11.9V22c0,0.6,0.4,1,1,1h16.8c0.3,0,0.5,0,0.8-0.2
			L13.9,17.3z"/>
		<path class="st10" d="M13.6,20c0.7,0,1.3-0.6,1.4-1.4V7.2C15,6.5,14.5,6,13.8,6H7v4.5l-1.7,1l0,0C5.1,11.5,5,11.7,5,11.9l0,0l0,0
			V20H13.6z"/>
		<path id="Back_Plate" class="st6" d="M1.2,5h11.7C13.5,5,14,5.5,14,6.2v11.7c0,0.6-0.5,1.2-1.2,1.2H1.2C0.5,19,0,18.5,0,17.8V6.2
			C0,5.5,0.5,5,1.2,5z"/>
		<path class="st11" d="M3.5,9.8c0.3-0.6,0.8-1.2,1.4-1.6c0.7-0.4,1.4-0.6,2.2-0.6c0.7,0,1.4,0.2,2.1,0.5c0.6,0.4,1.1,0.9,1.4,1.5
			c0.3,0.7,0.5,1.4,0.5,2.2c0,0.8-0.1,1.6-0.5,2.3c-0.3,0.6-0.8,1.2-1.4,1.5c-0.6,0.4-1.4,0.6-2.1,0.6c-0.7,0-1.5-0.2-2.1-0.5
			c-0.6-0.3-1.1-0.9-1.4-1.5C3.2,13.6,3,12.8,3,12.1C3,11.3,3.1,10.5,3.5,9.8z M5,13.5c0.2,0.4,0.4,0.7,0.8,1
			c0.4,0.3,0.8,0.4,1.2,0.4c0.5,0,0.9-0.1,1.3-0.4c0.3-0.3,0.6-0.6,0.8-1c0.2-0.5,0.3-1,0.2-1.5c0-0.5-0.1-1-0.2-1.4
			c-0.1-0.4-0.4-0.8-0.8-1.1C8,9.2,7.5,9.1,7,9.1c-0.5,0-0.9,0.1-1.3,0.4c-0.4,0.3-0.6,0.6-0.8,1c-0.2,0.5-0.3,1-0.2,1.5
			C4.7,12.5,4.8,13,5,13.5z"/>
	</g>
</g>
</svg>
