<?xml version="1.0" encoding="utf-8"?>
<!-- Generator: Adobe Illustrator 24.0.0, SVG Export Plug-In . SVG Version: 6.00 Build 0)  -->
<svg version="1.1" id="Layer_1" xmlns="http://www.w3.org/2000/svg" xmlns:xlink="http://www.w3.org/1999/xlink" x="0px" y="0px"
	 viewBox="0 0 28 36" style="enable-background:new 0 0 28 36;" xml:space="preserve">
<style type="text/css">
	.st0{fill-rule:evenodd;clip-rule:evenodd;}
</style>
<title>PowerSchool</title>
<g id="PowerSchool">
	<path id="P" class="st0" d="M15,0H8.9C8.7,0,8.6,0.1,8.5,0.1C8.3,0.3,8.1,0.5,8.1,0.8v33.8H5.5V0.8C5.5,0.4,5.2,0,4.8,0h-4
		C0.3,0,0,0.4,0,0.8v34.5C0,35.6,0.3,36,0.7,36c0.4,0,0.8-0.3,0.8-0.7V1.5H4v33.8C4,35.7,4.4,36,4.8,36h4.1c0.4,0,0.7-0.3,0.7-0.7V2
		c0-0.3,0.2-0.5,0.6-0.5H15c6.5,0,11.5,5.1,11.5,11.7S21.5,24.8,15,24.8h-1.4v-2.2h0.7c5.2,0,9.5-4.2,9.5-9.3
		c0.1-5.3-4.4-9.6-9.7-9.6h-1.2c-0.4,0-0.7,0.3-0.7,0.7v3.8c0,0.3,0.1,0.5,0.4,0.6C12.6,9,12.8,9,13,9h0.7c2.1,0,4,1.7,4.1,3.8
		c0.1,2.2-1.7,4.1-4,4.1h-0.9c-0.4,0-0.7,0.3-0.8,0.7c0,0.4,0.3,0.8,0.7,0.8h0.8c3,0,5.5-2.3,5.5-5.2c0.1-3-2.4-5.6-5.4-5.6h-0.2
		V5.1h0.5c4.5,0,8.3,3.7,8.2,8.1c-0.1,4.3-3.7,7.9-8.1,7.9h-1.4c-0.4,0-0.7,0.3-0.7,0.7v3.7c0,0.4,0.3,0.7,0.7,0.7H15
		c7.3,0,13-5.8,13-13.1C28,5.8,22.3,0,15,0"/>
</g>
</svg>
