<?xml version="1.0" encoding="utf-8"?>
<!-- Generator: Adobe Illustrator 24.0.0, SVG Export Plug-In . SVG Version: 6.00 Build 0)  -->
<svg version="1.1" id="Layer_1" xmlns="http://www.w3.org/2000/svg" xmlns:xlink="http://www.w3.org/1999/xlink" x="0px" y="0px"
	 viewBox="0 0 1024 1024" style="enable-background:new 0 0 1024 1024;" xml:space="preserve">
<style type="text/css">
	.st0{fill:#FFFFFF;}
</style>
<path d="M63.73,550.68c1.59-7.27,3.37-14.51,4.75-21.82c3.37-17.84,6.31-35.75,7.44-53.89c0.47-7.59,0.32-15.23,0.66-22.83
	c0.08-1.7,0.59-4.32,1.67-4.8c1.41-0.62,3.73,0.12,5.38,0.88c3.72,1.71,5.73,4.53,6.44,8.91c3.17,19.64,6.83,39.21,10.15,58.83
	c1.72,10.2,3.08,20.45,4.62,30.68c0.14,0.93,0.39,1.84,1.24,2.75c1.53-10.29,3.14-20.57,4.59-30.87
	c1.71-12.18,3.49-24.35,4.85-36.56c1.2-10.76,1.8-21.59,2.76-32.38c0.9-10.11,1.91-20.2,2.89-30.3c0.31-3.17,2.79-5.4,5.87-5.36
	c3.2,0.04,5.95,2.43,5.96,5.63c0.01,3.79-0.29,7.6-0.62,11.38c-1.52,17.3-2.88,34.62-4.74,51.89c-1.36,12.7-3.14,25.38-5.2,37.99
	c-3.73,22.81-7.73,45.57-11.82,68.32c-0.92,5.11-5.16,7.89-9.44,10.08c-2.05,1.05-4.07,0.08-4.68-2.48
	c-0.25-1.03-0.37-2.11-0.42-3.17c-0.39-8.47-0.28-17-1.21-25.41c-1.73-15.71-4.02-31.35-6.17-47.01
	c-0.79-5.76-1.82-11.49-2.75-17.24c-0.24,0.01-0.48,0.01-0.73,0.02c-0.99,5.15-1.93,10.32-2.98,15.46
	c-3.86,18.92-7.76,37.83-11.64,56.74c-0.88,4.3-1.79,8.59-2.67,12.89c-0.52,2.57-2.12,3.55-4.65,3.33
	c-5.28-0.45-7.19-2.84-7.81-8.05c-1.17-9.88-2.74-19.71-4.23-29.54c-2.3-15.24-4.87-30.44-6.96-45.71
	c-2.09-15.27-3.34-30.66-5.71-45.88c-1.49-9.6-4.35-18.99-6.59-28.48c-0.51-2.17-1.26-4.33-1.45-6.53
	c-0.28-3.33,1.75-5.71,4.86-6.28c2.76-0.51,5.7,1.19,6.55,4.18c1.9,6.65,3.65,13.35,5.38,20.06c4.29,16.69,5.75,33.83,8.06,50.83
	c2.36,17.3,4.81,34.58,7.23,51.87c0.09,0.62,0.31,1.22,0.46,1.83C63.3,550.65,63.51,550.66,63.73,550.68z"/>
<path d="M186.14,435.43c0.44,5.08,1.04,10.1,1.28,15.14c0.67,14.14,1.19,28.29,1.77,42.44c0.33,8.1,0.68,16.2,0.99,24.3
	c0.05,1.36,0,2.74-0.08,4.1c-0.3,4.89-0.04,5.17,5.02,4.72c2.04-0.18,4.07-0.55,6.11-0.61c3.43-0.12,6.02,2.07,6.35,5.16
	c0.33,3.11-1.64,5.92-5.04,6.47c-4.29,0.7-8.64,1.03-13.56,1.58c-0.67,15.96-1.36,32.29-2.06,48.88c2.55,0.22,4.37,0.54,6.18,0.52
	c7.31-0.09,14.63-0.18,21.94-0.46c4.29-0.16,7.24,1.63,7.59,5.05c0.39,3.83-2.12,6.91-6.46,7.09c-7.7,0.31-15.42,0.32-23.13,0.29
	c-3.01-0.01-6.06-0.28-9.01-0.83c-5.49-1-8.3-3.78-8.32-9.33c-0.04-12.58,0.16-25.16,0.72-37.73c0.78-17.65,2.21-35.26,1.12-52.97
	c-0.92-15.01-1.02-30.07-1.84-45.08c-0.42-7.68-1.61-15.33-2.48-22.98c-0.45-3.99,1.45-6.39,5.35-7.36c4.8-1.19,9.42-0.6,14.16,0.38
	c5.63,1.16,11.33,1.99,17.01,2.87c4.67,0.72,7.15,3.62,6.38,7.66c-0.64,3.42-4.33,5.07-8.62,4.27
	C200.46,437.69,193.37,436.63,186.14,435.43z"/>
<path d="M275.88,435.42c0.42,4.98,0.98,9.9,1.21,14.84c0.65,13.46,1.17,26.92,1.72,40.38c0.38,9.17,0.74,18.34,1.08,27.51
	c0.05,1.27,0,2.54-0.08,3.81c-0.26,4.34-0.13,4.51,4.4,4.21c2.24-0.15,4.46-0.56,6.69-0.64c3.4-0.13,6.02,2.05,6.42,5.13
	c0.39,2.99-1.69,5.95-5.04,6.5c-4.29,0.71-8.65,1.04-13.61,1.6c-0.68,15.91-1.37,32.23-2.08,48.91c2.73,0.21,4.74,0.53,6.74,0.5
	c7.22-0.09,14.43-0.23,21.64-0.49c4.08-0.15,6.96,1.69,7.34,5.02c0.41,3.63-1.86,6.94-5.81,7.01c-10.71,0.17-21.45,0.24-32.13-0.43
	c-6.31-0.39-8.96-3.76-9.05-10.14c-0.18-13.36-0.21-26.68,0.93-40.07c1.53-17.97,2.06-36.04,0.81-54.14
	c-0.96-13.92-0.95-27.91-1.72-41.85c-0.4-7.2-1.57-14.35-2.34-21.53c-0.5-4.7,1.31-6.79,5.81-7.82c4.73-1.09,9.24-0.38,13.87,0.54
	c5.83,1.15,11.73,1.95,17.59,2.93c3.49,0.58,5.39,2.55,5.62,5.73c0.21,2.85-1.2,5.24-4.03,6.04c-1.41,0.4-3.07,0.23-4.57,0
	C290.21,437.85,283.14,436.63,275.88,435.42z"/>
<path d="M604.59,493.55c0.71,25.9-4.15,50.95-11.85,75.45c-2.1,6.69-5.3,13.37-9.44,18.99c-5.69,7.71-13.8,12.09-23.96,10.23
	c-4.79-0.87-8.61-3.66-11.48-7.55c-4.59-6.21-7.8-13.05-8.72-20.82c-1.31-11.04-3.18-22.05-3.78-33.14
	c-1.22-22.52-1.68-45.08-2.62-67.61c-0.35-8.38-1.36-16.74-1.65-25.12c-0.19-5.33,0.14-10.72,0.73-16.02c0.4-3.66,4.3-6.04,7.8-5.44
	c3.76,0.65,6.46,3.74,5.82,7.52c-1.68,9.88,0.23,19.65,0.57,29.47c0.38,10.92,0.75,21.85,1.23,32.77
	c0.72,16.58,1.21,33.18,2.42,49.73c0.73,10,2.21,20,4.23,29.82c0.84,4.07,3.76,7.82,6.16,11.43c1.28,1.93,3.63,1.99,5.86,1.08
	c4.49-1.83,7.45-5.1,9.55-9.41c5.36-10.99,7.59-22.9,10.47-34.64c4.98-20.34,5.36-40.98,4.22-61.7
	c-0.78-14.03-2.02-28.03-3.29-42.02c-0.45-4.94-1.66-9.81-2.38-14.72c-0.31-2.11-0.48-4.29-0.35-6.41c0.21-3.28,2.98-5.71,6.26-5.85
	c3.35-0.14,6.64,2.23,7.14,5.33C601.75,440.97,603.59,467.24,604.59,493.55z M600.88,493.57c0.26,0,0.51,0,0.77-0.01
	c-1.14-14.4-2.1-28.81-3.47-43.18c-1.08-11.25-2.73-22.44-4-33.68c-0.28-2.46-1.54-3.62-3.78-3.47c-2.29,0.16-3.02,1.85-2.85,3.98
	c0.11,1.36,0.16,2.73,0.37,4.07c0.79,4.91,1.96,9.78,2.41,14.72c1.25,13.7,2.41,27.41,3.23,41.14c1.27,21.5,0.9,42.91-4.23,64.02
	c-2.9,11.94-5.27,24.01-10.64,35.2c-2.52,5.25-6.21,9.17-11.67,11.3c-3.5,1.37-6.93,1.03-9.43-1.79c-3.44-3.88-6.39-8.19-7.37-13.45
	c-0.93-4.98-1.94-9.98-2.4-15.02c-1.02-11.36-1.94-22.74-2.49-34.14c-0.9-18.43-1.42-36.87-2.22-55.31
	c-0.31-7.11-1.13-14.2-1.4-21.31c-0.21-5.33-0.03-10.69,0.22-16.02c0.1-2.25-0.29-3.9-2.62-4.52c-2.04-0.54-4.05,0.84-4.24,3.32
	c-0.36,4.65-0.7,9.35-0.49,14c0.37,8.19,1.39,16.34,1.71,24.53c1.32,33.34,1.04,66.77,6.12,99.89c1.18,7.71,3.72,14.71,8.42,20.9
	c4.08,5.37,10.81,7.71,16.9,5.8c7-2.2,12.56-6.35,15.87-12.99c2.22-4.44,4.45-8.96,5.89-13.69
	C596.85,543.69,601.7,519.07,600.88,493.57z"/>
<path d="M776.6,586.47c5.19,0,10.06-0.07,14.93,0.03c3.2,0.06,5.4,1.79,6.39,4.69c0.99,2.91,0.43,5.7-2.02,7.35
	c-1.72,1.15-4.14,1.56-6.29,1.73c-7.48,0.59-14.99,0.92-22.48,1.38c-0.87,0.05-1.71,0.35-2.58,0.51c-3.83,0.67-7.26-1.34-8.26-4.84
	c-1.04-3.62,0.64-7,4.27-8.54c0.62-0.26,1.27-0.47,1.64-0.61c1.49-53.16-0.84-106.27,2.61-160c-3.12,0-6.47-0.02-9.83,0.01
	c-3.53,0.03-6.32-1.77-7.32-4.77c-0.88-2.64,0.02-6.03,2.44-7.56c1.41-0.89,3.26-1.56,4.9-1.54c12.38,0.14,24.82-0.01,36.6,4.78
	c4.16,1.69,6.16,5.44,4.78,9.28c-1.27,3.55-5.01,5.18-9.21,3.89c-2.48-0.76-4.91-1.71-7.82-2.73c-0.51,3.48-1.29,6.52-1.35,9.57
	c-0.49,27.63-0.89,55.26-1.24,82.89c-0.25,19.82-0.4,39.64-0.56,59.46C776.22,583.08,776.47,584.71,776.6,586.47z M773.33,589.94
	c-0.19-2.69-0.59-5.69-0.57-8.69c0.12-19.33,0.33-38.67,0.51-58c0.23-23.63,0.32-47.27,0.77-70.89c0.17-8.92,1.17-17.83,1.84-27.4
	c4.77,1.52,8.64,2.81,12.54,3.98c1.96,0.59,3.88,0.3,4.63-1.82c0.76-2.16-0.17-3.91-2.41-4.58c-4.09-1.22-8.17-2.85-12.36-3.33
	c-7.64-0.87-15.37-1.11-23.06-1.42c-2.28-0.09-4.33,0.82-4.24,3.71c0.07,2.15,1.85,3.18,4.74,3.13c4.46-0.08,8.92-0.02,13.49-0.02
	c0,1.39,0.09,2.07-0.01,2.71c-2.49,15.97-2.55,32.09-2.79,48.19c-0.17,11.52,0.32,23.05,0.28,34.57
	c-0.05,13.77-0.38,27.53-0.53,41.3c-0.14,13.24-0.21,26.49-0.31,39.77c-1.52,0.31-2.49,0.43-3.4,0.72c-2,0.63-3.23,1.93-2.77,4.14
	c0.47,2.23,2.15,2.83,4.22,2.68c8.84-0.66,17.67-1.36,26.52-1.96c2.23-0.15,4.18-0.49,4.34-3.23c0.13-2.26-1.45-3.55-4.33-3.56
	C784.86,589.92,779.31,589.94,773.33,589.94z"/>
<path d="M375.18,426.57c-2.93,4.22-4.33,8.6-4.02,13.01c0.43,6.08,1.87,12.09,2.87,18.14c1.47,8.86,5.31,16.88,8.81,25.03
	c4.5,10.47,9.74,20.73,13.11,31.56c3.16,10.17,5.45,20.91,6.06,31.51c0.77,13.3-0.45,26.72-5.5,39.41
	c-3.94,9.91-15.02,16.2-25.37,13.67c-5.43-1.33-10.69-3.52-15.84-5.73c-2.82-1.21-3.99-3.95-3.47-7.09
	c0.81-4.88,5.27-7.01,10.01-5.02c3.4,1.43,6.84,2.86,10.39,3.85c6,1.67,10-0.37,11.86-6.25c4.02-12.71,5.48-25.71,3.23-38.96
	c-1.08-6.34-1.95-12.77-3.74-18.93c-1.78-6.14-4.48-12.03-6.97-17.95c-4.42-10.51-9.54-20.77-13.32-31.5
	c-2.59-7.36-3.53-15.32-5-23.05c-1.17-6.17-1.89-12.49,0.36-18.51c1.62-4.33,3.61-8.66,6.24-12.43c3.33-4.78,8.3-5.55,14.76-3.35
	c5.28,1.8,9.71,7.15,9.9,11.97c0.13,3.06-2.01,6.12-4.83,6.94c-2.98,0.86-6.46-0.59-8.01-3.35
	C376.23,428.71,375.84,427.85,375.18,426.57z M392.69,550.33c-0.23,0.06-0.46,0.11-0.69,0.17c-0.41,5.15-0.49,10.36-1.34,15.44
	c-0.85,5.16-2.22,10.28-3.8,15.27c-1.63,5.12-6.48,8.43-11.78,7.56c-4.73-0.77-9.32-2.56-13.89-4.15c-2.08-0.73-4.06-1.57-5.39,0.74
	c-1.32,2.3-0.31,4.31,1.98,5.27c4.03,1.69,8.07,3.49,12.28,4.54c10.79,2.71,19.84-2.42,23.72-12.79c4.35-11.65,5.44-23.91,4.73-36
	c-0.62-10.5-2.86-21.13-5.98-31.21c-3.23-10.46-8.33-20.34-12.68-30.45c-3.65-8.5-7.72-16.85-9.22-26.11
	c-0.82-5.08-1.51-10.19-2.56-15.22c-1.34-6.42,0.37-12.18,3.4-17.65c2.01-3.62,5.45-3.38,7.51,0.35c0.38,0.68,0.52,1.73,1.08,2.02
	c1.18,0.62,2.83,1.49,3.8,1.09c1-0.41,2.19-2.36,1.99-3.38c-0.94-4.68-3.9-7.66-8.62-8.91c-4.53-1.2-7.71-0.52-10.24,3.37
	c-2.05,3.14-3.63,6.66-4.93,10.19c-2.13,5.78-1.39,11.77-0.2,17.62c1.64,8.08,2.8,16.37,5.53,24.09c3.7,10.44,8.62,20.46,13.16,30.6
	c3.27,7.31,6.41,14.61,7.66,22.62C389.52,533.72,391.18,542.01,392.69,550.33z"/>
<path d="M471.15,432.61c0.62,8.84,1.23,16.99,1.76,25.14c1.39,21.32,2.92,42.63,4.06,63.97c0.99,18.61,1.55,37.25,2.23,55.87
	c0.18,4.97,0.14,9.96,0.13,14.93c-0.01,4.57-2.88,7.68-6.99,7.69c-3.98,0.01-6.68-3-6.81-7.53c-0.48-16.09-0.94-32.19-1.49-48.28
	c-0.56-16.48-0.88-32.99-1.91-49.44c-1.01-16.26-2.86-32.46-4.13-48.7c-0.38-4.93-0.06-9.91-0.06-14.93
	c-3.91-0.73-7.35-1.36-10.78-2c-4.71-0.87-7.3-4.2-6.51-8.37c0.78-4.08,4.47-5.93,9.24-5.21c10.41,1.57,20.85,2.86,31.28,4.3
	c1.83,0.25,3.67,0.56,5.47,0.98c4.13,0.96,6.6,4.43,5.83,8.08c-0.84,3.95-4.33,6.11-8.66,5.42
	C479.88,433.88,475.94,433.33,471.15,432.61z M461.38,428.23c0,5.81-0.33,11.28,0.06,16.69c1.48,20.92,3.67,41.81,4.71,62.75
	c1.41,28.26,2.01,56.57,2.94,84.85c0.07,2.18,0.6,4.01,3.15,4.05c2.54,0.04,3.61-1.54,3.59-3.98c-0.05-5.17,0.04-10.35-0.14-15.52
	c-0.68-19.21-1.33-38.43-2.24-57.64c-0.76-15.98-1.81-31.95-2.83-47.92c-0.74-11.58-1.62-23.15-2.52-34.72
	c-0.2-2.54-0.75-5.06-1.17-7.8c0.19,0,1.04-0.09,1.88,0.01c5.22,0.66,10.44,1.33,15.65,2.06c2.26,0.32,4.01-0.36,4.47-2.66
	c0.45-2.19-0.9-3.49-2.98-3.94c-1.81-0.39-3.64-0.71-5.47-0.97c-10.33-1.41-20.67-2.75-31-4.22c-3.16-0.45-4.89,0.18-5.34,2.42
	c-0.45,2.2,0.95,3.66,4.07,4.21C452.7,426.72,457.2,427.5,461.38,428.23z"/>
<path d="M654.5,584.07c1.4-14.77,0.98-29.39,0.35-44.02c-0.48-11.12-0.92-22.25-1.6-33.36c-1.19-19.49-2.59-38.97-3.79-58.46
	c-0.29-4.67-0.21-9.37-0.2-14.06c0-1.6-0.21-2.58-2.07-3.18c-2.95-0.95-4.38-3.85-4.06-7.02c0.32-3.14,2.33-5.81,5.37-6.12
	c3.64-0.36,7.47-0.75,10.98-0.01c11.71,2.47,22.34,7.58,31.66,15.1c2.75,2.22,5.13,5.15,7.02,8.17
	c7.54,12.11,11.75,25.18,10.83,39.69c-0.36,5.74,0.09,11.53-0.15,17.28c-0.55,13.24-1.09,26.47-3.35,39.6
	c-2.13,12.33-4.35,24.58-8.91,36.28c-4.24,10.87-19,25.44-35.58,24.28c-2.33-0.16-4.69,0.02-7.03-0.04
	c-3.96-0.1-6.87-2.51-7.21-5.91c-0.38-3.84,1.9-6.81,5.95-7.74C653.18,584.46,653.64,584.31,654.5,584.07z M652.74,427.56
	c0,1.49-0.01,2.65,0,3.81c0.08,5.66-0.03,11.33,0.31,16.97c1.15,19.38,2.54,38.75,3.69,58.14c0.6,10.13,1.15,20.28,1.28,30.42
	c0.2,15.19,0.02,30.39-0.04,45.59c-0.01,1.55,0.27,3.52-0.54,4.53c-0.71,0.89-2.95,0.4-4.16,1.12c-1.24,0.74-2.69,2.14-2.82,3.38
	c-0.1,0.94,1.68,2.93,2.72,3c9.13,0.64,18.08,0.44,26.09-5.19c10.01-7.04,15.41-16.84,17.9-28.49c1.87-8.76,3.71-17.54,5.2-26.37
	c1.07-6.33,1.92-12.75,2.22-19.16c0.54-11.59,0.35-23.21,0.9-34.79c0.57-11.97-2.39-22.94-7.83-33.45
	c-3.36-6.5-7.98-11.73-14.27-15.5c-7.48-4.48-15.26-8.35-23.83-10.13c-3.16-0.66-6.55-0.41-9.82-0.23
	c-2.36,0.13-3.41,1.86-3.03,4.13c0.38,2.26,1.95,2.97,4.13,2.48C651.31,427.72,651.8,427.69,652.74,427.56z"/>
<path d="M836.57,527.67c1.01-14.61,1.5-29.27,3.15-43.81c1.96-17.23,4.86-34.37,7.49-51.52c0.51-3.34,1.45-6.67,2.66-9.82
	c0.74-1.91,2.2-3.65,3.67-5.15c7.77-7.96,17.52-7.87,24.8,0.49c9.76,11.22,15.76,24.42,18.52,38.94
	c5.73,30.11,9.31,60.42,5.89,91.12c-1.44,12.92-5.5,25.16-11.42,36.69c-4.56,8.88-11.87,14.71-21.82,16.6
	c-8.98,1.71-16.35-1.14-21.79-8.62c-4.96-6.82-7.15-14.68-8.36-22.86C837.32,555.8,836.29,541.79,836.57,527.67z M839.76,527.54
	c0.24,0.02,0.48,0.04,0.72,0.07c-0.75,13.6,0.35,27.12,2.19,40.57c1.07,7.77,2.99,15.31,7.59,21.91c4.57,6.56,11.28,9.33,19.11,7.59
	c8.52-1.9,14.87-6.9,18.79-14.59c5.84-11.45,9.86-23.58,11.18-36.42c1.82-17.83,1.7-35.66-0.62-53.46c-1.87-14.3-3-28.72-7.01-42.67
	c-3.45-12-9-22.83-17.57-31.99c-2.88-3.08-6.72-4.57-10.64-2.94c-4.83,2.01-9.01,4.41-10.9,10.53c-4.29,13.93-6.15,28.2-7.69,42.52
	C842.82,488.25,841.44,507.92,839.76,527.54z"/>
<path class="st0" d="M600.88,493.57c0.82,25.5-4.03,50.13-11.4,74.32c-1.44,4.72-3.67,9.25-5.89,13.69
	c-3.31,6.64-8.86,10.78-15.87,12.99c-6.09,1.91-12.83-0.42-16.9-5.8c-4.7-6.2-7.23-13.19-8.42-20.9
	c-5.09-33.12-4.81-66.55-6.12-99.89c-0.32-8.19-1.35-16.34-1.71-24.53c-0.21-4.65,0.13-9.35,0.49-14c0.19-2.49,2.2-3.87,4.24-3.32
	c2.33,0.62,2.72,2.27,2.62,4.52c-0.24,5.33-0.42,10.69-0.22,16.02c0.27,7.11,1.09,14.2,1.4,21.31c0.8,18.43,1.32,36.88,2.22,55.31
	c0.56,11.39,1.47,22.77,2.49,34.14c0.45,5.04,1.47,10.03,2.4,15.02c0.98,5.26,3.93,9.57,7.37,13.45c2.5,2.82,5.93,3.16,9.43,1.79
	c5.46-2.13,9.15-6.04,11.67-11.3c5.37-11.19,7.74-23.26,10.64-35.2c5.13-21.11,5.5-42.52,4.23-64.02
	c-0.81-13.73-1.98-27.44-3.23-41.14c-0.45-4.94-1.62-9.81-2.41-14.72c-0.22-1.34-0.26-2.71-0.37-4.07
	c-0.18-2.13,0.55-3.83,2.85-3.98c2.24-0.15,3.5,1.01,3.78,3.47c1.28,11.23,2.93,22.43,4,33.68c1.38,14.37,2.34,28.79,3.47,43.18
	C601.39,493.56,601.14,493.57,600.88,493.57z"/>
<path class="st0" d="M773.33,589.94c5.98,0,11.53-0.02,17.08,0.01c2.88,0.02,4.46,1.31,4.33,3.56c-0.15,2.74-2.11,3.07-4.34,3.23
	c-8.84,0.6-17.68,1.3-26.52,1.96c-2.07,0.15-3.75-0.45-4.22-2.68c-0.46-2.21,0.77-3.52,2.77-4.14c0.91-0.29,1.88-0.4,3.4-0.72
	c0.1-13.29,0.17-26.53,0.31-39.77c0.15-13.77,0.48-27.53,0.53-41.3c0.04-11.52-0.45-23.05-0.28-34.57
	c0.24-16.09,0.3-32.22,2.79-48.19c0.1-0.65,0.01-1.33,0.01-2.71c-4.57,0-9.03-0.06-13.49,0.02c-2.89,0.05-4.66-0.98-4.74-3.13
	c-0.1-2.89,1.96-3.81,4.24-3.71c7.7,0.31,15.42,0.55,23.06,1.42c4.19,0.48,8.27,2.1,12.36,3.33c2.24,0.67,3.18,2.42,2.41,4.58
	c-0.75,2.13-2.67,2.41-4.63,1.82c-3.9-1.18-7.77-2.46-12.54-3.98c-0.67,9.57-1.67,18.48-1.84,27.4
	c-0.45,23.63-0.54,47.26-0.77,70.89c-0.19,19.33-0.39,38.67-0.51,58C772.74,584.25,773.14,587.25,773.33,589.94z"/>
<path d="M992.7,545.76c-0.99-15.07-4.23-29.93-10.46-43.91c-4.24-9.53-8.66-18.99-12.81-28.55c-4.63-10.66-6.62-22-7.57-33.48
	c-0.38-4.55,1.06-8.95,3.97-13.27c0.67,1.33,1.06,2.2,1.53,3.03c1.56,2.74,5.1,4.17,8.05,3.3c2.88-0.86,4.9-3.83,4.75-6.98
	c-0.24-4.95-4.72-10.24-10.2-12.05c-6.35-2.09-11.34-1.16-14.66,3.74c-2.58,3.81-4.53,8.16-6.1,12.5
	c-2.14,5.94-1.42,12.14-0.22,18.22c1.5,7.63,2.39,15.47,4.86,22.78c3.26,9.67,7.27,19.18,11.9,28.28
	c6.09,11.99,9.65,24.6,11.92,37.75c2.46,14.24,1.39,28.17-3.03,41.85c-1.73,5.35-5.74,7.51-11.22,6.09
	c-3.47-0.9-6.85-2.23-10.14-3.67c-4.31-1.89-8.04-1.18-9.95,2.25c-1.99,3.59-1.01,7.79,3.19,9.85c4.59,2.25,9.5,4.08,14.47,5.26
	c11.75,2.78,22.37-3.34,26.61-14.65C992.25,571.69,993.55,558.66,992.7,545.76z M989.45,553.04c-0.96,9.91-1.38,19.83-4.99,29.31
	c-3.99,10.48-13.19,15.63-23.99,12.76c-4.11-1.09-8.07-2.81-12-4.47c-2.29-0.96-3.3-2.96-2-5.27c1.31-2.33,3.28-1.5,5.37-0.76
	c4.46,1.59,8.96,3.39,13.59,4.13c5.7,0.91,10.4-2.35,12.24-7.78c4.89-14.49,6.07-29.27,3.48-44.39c-2.29-13.33-5.81-26.15-12-38.31
	c-4.67-9.18-8.67-18.78-12.09-28.5c-2.97-8.42-4.3-17.32-5.25-26.28c-0.87-8.28,0.82-15.66,5.25-22.53c2.25-3.5,5.4-5.31,9.7-4.39
	c4.98,1.07,8.61,3.8,9.7,8.92c0.24,1.11-0.85,3.11-1.89,3.69c-0.83,0.47-2.63-0.4-3.78-1.05c-0.63-0.35-0.78-1.52-1.22-2.27
	c-2.05-3.46-5.47-3.62-7.39-0.15c-3.08,5.57-4.79,11.41-3.36,17.94c1.05,4.83,1.64,9.76,2.42,14.65c1.52,9.46,5.65,17.99,9.4,26.66
	c4.29,9.92,9.29,19.63,12.47,29.91c3.11,10.09,4.39,20.75,6.29,31.19C989.81,548.3,989.45,550.7,989.45,553.04z"/>
<path class="st0" d="M392.69,550.33c-1.5-8.31-3.16-16.6-4.47-24.95c-1.25-8.02-4.4-15.31-7.66-22.62
	c-4.54-10.14-9.46-20.15-13.16-30.6c-2.73-7.72-3.89-16.01-5.53-24.09c-1.19-5.85-1.93-11.84,0.2-17.62
	c1.3-3.53,2.88-7.05,4.93-10.19c2.53-3.89,5.72-4.57,10.24-3.37c4.72,1.25,7.68,4.23,8.62,8.91c0.2,1.01-0.98,2.97-1.99,3.38
	c-0.98,0.4-2.62-0.46-3.8-1.09c-0.56-0.29-0.7-1.34-1.08-2.02c-2.06-3.73-5.5-3.97-7.51-0.35c-3.03,5.48-4.74,11.24-3.4,17.65
	c1.05,5.03,1.74,10.14,2.56,15.22c1.49,9.26,5.56,17.61,9.22,26.11c4.34,10.11,9.45,19.99,12.68,30.45
	c3.11,10.08,5.36,20.71,5.98,31.21c0.71,12.09-0.38,24.35-4.73,36c-3.87,10.37-12.93,15.5-23.72,12.79
	c-4.21-1.06-8.26-2.85-12.28-4.54c-2.29-0.96-3.3-2.97-1.98-5.27c1.33-2.31,3.3-1.47,5.39-0.74c4.56,1.6,9.15,3.38,13.89,4.15
	c5.3,0.87,10.16-2.44,11.78-7.56c1.59-4.99,2.95-10.11,3.8-15.27c0.84-5.08,0.92-10.29,1.34-15.44
	C392.23,550.44,392.46,550.38,392.69,550.33z"/>
<path class="st0" d="M461.38,428.23c-4.17-0.73-8.67-1.51-13.17-2.32c-3.13-0.56-4.52-2.01-4.07-4.21c0.45-2.24,2.19-2.87,5.34-2.42
	c10.32,1.47,20.67,2.8,31,4.22c1.83,0.25,3.66,0.58,5.47,0.97c2.08,0.45,3.43,1.75,2.98,3.94c-0.47,2.3-2.21,2.97-4.47,2.66
	c-5.21-0.73-10.43-1.4-15.65-2.06c-0.83-0.1-1.69-0.01-1.88-0.01c0.42,2.74,0.97,5.26,1.17,7.8c0.9,11.57,1.78,23.14,2.52,34.72
	c1.02,15.97,2.07,31.94,2.83,47.92c0.91,19.2,1.55,38.42,2.24,57.64c0.18,5.17,0.1,10.35,0.14,15.52c0.02,2.44-1.05,4.02-3.59,3.98
	c-2.55-0.04-3.08-1.87-3.15-4.05c-0.93-28.29-1.53-56.59-2.94-84.85c-1.04-20.94-3.22-41.83-4.71-62.75
	C461.05,439.51,461.38,434.04,461.38,428.23z"/>
<path class="st0" d="M652.74,427.56c-0.94,0.13-1.43,0.16-1.89,0.27c-2.18,0.49-3.75-0.22-4.13-2.48c-0.38-2.27,0.67-4.01,3.03-4.13
	c3.27-0.18,6.66-0.43,9.82,0.23c8.57,1.79,16.35,5.66,23.83,10.13c6.29,3.76,10.91,9,14.27,15.5c5.44,10.51,8.4,21.48,7.83,33.45
	c-0.55,11.59-0.37,23.21-0.9,34.79c-0.3,6.41-1.14,12.82-2.22,19.16c-1.49,8.83-3.33,17.61-5.2,26.37
	c-2.49,11.65-7.89,21.45-17.9,28.49c-8.01,5.64-16.96,5.83-26.09,5.19c-1.04-0.07-2.82-2.06-2.72-3c0.13-1.24,1.58-2.64,2.82-3.38
	c1.21-0.72,3.45-0.23,4.16-1.12c0.81-1.02,0.53-2.98,0.54-4.53c0.05-15.2,0.23-30.4,0.04-45.59c-0.13-10.14-0.68-20.29-1.28-30.42
	c-1.15-19.38-2.53-38.75-3.69-58.14c-0.34-5.64-0.22-11.32-0.31-16.97C652.72,430.21,652.74,429.05,652.74,427.56z M664.58,588.02
	c6.36-1.34,11.73-4.17,16.32-8.99c5.6-5.88,7.77-13.2,9.78-20.62c5.52-20.36,7.56-41.17,7.79-62.2c0.05-4.98-0.12-9.96,0.13-14.93
	c0.46-9.01-0.62-17.76-4.55-25.92c-2.53-5.23-4.82-10.76-9.56-14.54c-7.32-5.83-15.68-9.65-25.08-12.6
	c0.31,8.93,0.45,17.59,0.93,26.24c0.76,13.64,1.92,27.25,2.6,40.89C664.46,526.11,667.26,556.85,664.58,588.02z"/>
<path class="st0" d="M839.76,527.54c1.68-19.63,3.06-39.29,5.15-58.88c1.53-14.32,3.4-28.6,7.69-42.52
	c1.89-6.12,6.07-8.52,10.9-10.53c3.92-1.63,7.76-0.14,10.64,2.94c8.56,9.16,14.12,19.99,17.57,31.99
	c4.01,13.96,5.14,28.37,7.01,42.67c2.32,17.8,2.44,35.63,0.62,53.46c-1.31,12.85-5.33,24.97-11.18,36.42
	c-3.92,7.68-10.26,12.69-18.79,14.59c-7.83,1.74-14.54-1.04-19.11-7.59c-4.6-6.6-6.52-14.13-7.59-21.91
	c-1.84-13.46-2.95-26.97-2.19-40.57C840.24,527.59,840,527.57,839.76,527.54z M894.14,522.33c-0.82-10.5-1.25-21.04-2.57-31.48
	c-1.52-11.98-3.46-23.93-5.91-35.75c-2.3-11.12-7.39-21.16-14.64-29.94c-3.48-4.22-4.99-4.2-9.22-0.79c-0.86,0.69-1.67,1.71-2,2.74
	c-1.38,4.26-3.09,8.5-3.72,12.88c-2.44,17.08-4.97,34.16-6.62,51.33c-2.38,24.69-3.64,49.47-0.43,74.21
	c0.94,7.26,2.27,14.47,6.69,20.65c2.97,4.16,7.34,5.9,12.28,4.7c6.54-1.59,11.47-5.32,14.35-11.45c1.9-4.05,3.65-8.19,5.24-12.37
	C893.05,552.64,893.58,537.54,894.14,522.33z"/>
<path d="M664.58,588.02c2.69-31.17-0.12-61.91-1.65-92.67c-0.68-13.64-1.84-27.25-2.6-40.89c-0.48-8.64-0.63-17.31-0.93-26.24
	c9.4,2.96,17.76,6.77,25.08,12.6c4.74,3.78,7.04,9.31,9.56,14.54c3.94,8.15,5.01,16.9,4.55,25.92c-0.25,4.97-0.08,9.95-0.13,14.93
	c-0.23,21.03-2.26,41.85-7.79,62.2c-2.01,7.42-4.17,14.73-9.78,20.62C676.31,583.85,670.94,586.68,664.58,588.02z M662.79,433.12
	c2.38,50.38,7.56,99.95,6.07,150.64c3.03-2.2,5.91-3.96,8.41-6.15c5.96-5.23,7.99-12.56,9.96-19.82c5.3-19.61,7.37-39.65,7.72-59.9
	c0.1-5.76-0.09-11.53,0.14-17.28c0.33-8.42-1.15-16.38-4.31-24.24C685.71,443.78,675.47,437.78,662.79,433.12z"/>
<path d="M894.14,522.33c-0.55,15.21-1.09,30.32-6.57,44.73c-1.59,4.19-3.33,8.32-5.24,12.37c-2.88,6.13-7.81,9.86-14.35,11.45
	c-4.94,1.2-9.31-0.54-12.28-4.7c-4.41-6.18-5.74-13.39-6.69-20.65c-3.21-24.75-1.95-49.52,0.43-74.21
	c1.65-17.16,4.18-34.25,6.62-51.33c0.63-4.38,2.34-8.63,3.72-12.88c0.33-1.03,1.14-2.05,2-2.74c4.23-3.4,5.74-3.42,9.22,0.79
	c7.25,8.78,12.34,18.82,14.64,29.94c2.45,11.82,4.39,23.77,5.91,35.75C892.89,501.28,893.32,511.83,894.14,522.33z M850.94,524.78
	c-0.91,13.17,0,26.9,1.62,40.58c0.76,6.38,1.94,12.76,5.68,18.27c2.61,3.86,5.38,4.77,9.83,3.55c4.91-1.35,8.53-4.23,10.82-8.72
	c5-9.8,8.66-20.09,9.89-31.05c2.06-18.3,1.93-36.64-0.5-54.91c-1.81-13.62-2.95-27.36-7.06-40.58c-2.75-8.85-6.88-16.98-12.65-24.23
	c-2.07-2.6-3.92-2.28-5.5,0.67c-0.45,0.86-0.89,1.77-1.09,2.71c-1.86,8.86-4.06,17.68-5.4,26.62
	C853.29,479.71,851.66,501.9,850.94,524.78z"/>
<path class="st0" d="M662.79,433.12c12.68,4.65,22.92,10.65,27.98,23.24c3.16,7.85,4.64,15.82,4.31,24.24
	c-0.22,5.75-0.04,11.52-0.14,17.28c-0.35,20.25-2.42,40.29-7.72,59.9c-1.96,7.26-4,14.59-9.96,19.82c-2.5,2.19-5.38,3.96-8.41,6.15
	C670.35,533.07,665.17,483.5,662.79,433.12z"/>
<path class="st0" d="M850.94,524.78c0.71-22.87,2.35-45.06,5.64-67.09c1.34-8.94,3.54-17.76,5.4-26.62c0.2-0.94,0.63-1.85,1.09-2.71
	c1.57-2.96,3.43-3.27,5.5-0.67c5.77,7.25,9.9,15.38,12.65,24.23c4.11,13.22,5.25,26.96,7.06,40.58c2.42,18.27,2.55,36.6,0.5,54.91
	c-1.23,10.96-4.89,21.25-9.89,31.05c-2.29,4.49-5.91,7.38-10.82,8.72c-4.45,1.22-7.21,0.31-9.83-3.55
	c-3.74-5.51-4.92-11.89-5.68-18.27C850.94,551.68,850.04,537.95,850.94,524.78z"/>
</svg>
