<svg xmlns="http://www.w3.org/2000/svg" viewBox="0 0 24 24"><defs><style>.cls-1{fill:#28a8ea;}.cls-2{fill:#0078d4;}.cls-3{fill:#0358a7;}.cls-4{opacity:0.5;}.cls-5{fill:#fff;}.cls-6{fill:none;}</style></defs><title>Yammer_24x</title><g id="Yammer"><g id="_24" data-name="24"><path class="cls-1" d="M10.43,10.2a7.13,7.13,0,0,0-.32-1A7,7,0,0,0,8.8,7.16a.28.28,0,0,1-.09-.22.32.32,0,0,1,.09-.22L15.34.19a.63.63,0,0,1,.92,0,17.2,17.2,0,0,1,3.26,5,19.61,19.61,0,0,1,.81,2.38l-4,4Z"/><path class="cls-2" d="M23.41,7.48A.63.63,0,0,0,22.63,7l-12.2,3.16A6.87,6.87,0,0,1,10.67,12a6.74,6.74,0,0,1-.24,1.8L15,17.18l5.33-.8,2.29.6a.63.63,0,0,0,.79-.45A19.62,19.62,0,0,0,23.94,12,19.47,19.47,0,0,0,23.41,7.48Z"/><path class="cls-3" d="M10.43,13.8a7.13,7.13,0,0,1-.32,1A6.9,6.9,0,0,1,8.8,16.84a.29.29,0,0,0-.09.22.36.36,0,0,0,.09.23l6.54,6.52a.64.64,0,0,0,.92,0,17.2,17.2,0,0,0,3.26-5,20.36,20.36,0,0,0,.81-2.39Z"/><path class="cls-4" d="M15,18.65V7.17A1.18,1.18,0,0,0,13.83,6H9.52l-.73.74,0,.06a.33.33,0,0,0,0,.38,7.22,7.22,0,0,1,1.34,2.07,8.1,8.1,0,0,1,.31.95,6.87,6.87,0,0,1,0,3.6,7.13,7.13,0,0,1-.32,1A6.9,6.9,0,0,1,8.8,16.84a.29.29,0,0,0-.09.22.36.36,0,0,0,.09.23L11.52,20H13.6A1.5,1.5,0,0,0,15,18.65Z"/><rect id="Back_Plate" data-name="Back Plate" class="cls-2" y="5" width="14" height="14" rx="1.17"/><path class="cls-5" d="M6.85,11.36a3.14,3.14,0,0,1,.19.52h0a2.63,2.63,0,0,1,.19-.51L9,8a.78.78,0,0,1,.69-.41h0a.79.79,0,0,1,.68,1.17L7.94,13.06a.74.74,0,0,0-.11.39v2.16a.78.78,0,0,1-.78.78H6.89a.78.78,0,0,1-.78-.78V13.47a.75.75,0,0,0-.1-.38L3.6,8.77a.78.78,0,0,1,.68-1.16h.16A.77.77,0,0,1,5.13,8Z"/><rect class="cls-6" width="24" height="24"/></g></g></svg>