<?xml version="1.0" encoding="utf-8"?>
<!-- Generator: Adobe Illustrator 24.0.0, SVG Export Plug-In . SVG Version: 6.00 Build 0)  -->
<svg version="1.1" id="Layer_1" xmlns="http://www.w3.org/2000/svg" xmlns:xlink="http://www.w3.org/1999/xlink" x="0px" y="0px"
	 viewBox="0 0 1024 1024" style="enable-background:new 0 0 1024 1024;" xml:space="preserve">
<style type="text/css">
	.st0{fill:#5CB531;}
	.st1{fill:#EDAA00;}
</style>
<g>
	<path class="st0" d="M974.63,986.69v-393.5c-4.18,7.57-16.74,10.11-24.69,11.63c-6.84,1.33-14.27-0.52-14.27-0.52v344.32
		c0,0-244.44-1-260.79,0c-17.46,1.03-27-4.77-27-4.77c-51.27-33.29-66.1-110.99-63.35-124.82c3.5-17.56-4.65-52.72-10.55-84.27
		c-5.83-31.67,19.95-124.12,24.62-142.85c4.67-18.72,33.92-35.16,35.07-39.83c1.16-4.72-6.97-2.36-6.97-5.81
		c0-3.53,19.89-17.58,32.74-17.58c12.91,0,39.87-23.42,40.96-31.63c1.17-8.19,26.94-42.12,35.15-49.15
		c8.22-7.01,19.9-31.62,21.07-37.47c1.17-5.88-5.89,5.85-14,18.77c-8.24,12.82-67.97,74.88-110.1,94.77
		c-42.13,19.9-58.54,91.36-67.87,102.26c-9.32,10.92-24.61-124.49-25.83-152.59c-1.12-28.08-15.18-49.16-15.18-55.04
		c0-5.84,1.56-44.52,1.56-44.52s-4.59-6.49-3-0.64c1.5,5.85-3.23,31.1-4.39,53.36c-1.18,22.25,15.23,78.5,21.01,114.76
		c5.93,36.29,3.55,49.16-2.32,67.91c-5.83,18.75,7.08,60.84,11.74,76.11c4.67,15.19-7.04,76.1-8.2,80.73
		c-1.16,4.71-45.68-29.25-44.15-43.93c1.56-14.68-14.42-30.95-19.07-43.84c-4.67-12.95-24.62-59.69-29.28-69.08
		c-4.74-9.33-5.84-56.2-1.17-69.08c4.67-12.88-4.67-30.43-14.09-35.1c-9.34-4.67-24.55-34.02-27.97-30.82
		c-3.38,3.22,43.23,53.04,33.83,65.92c-9.37,12.88-10.49,21.07-7.01,37.46c3.5,16.39,11.65,39.78,8.18,46.88
		c-3.5,7.01-14.05-3.57-15.21,0c-1.17,3.49,19.93,21.02,29.28,31.56c9.4,10.51,15.22,52.7,15.22,52.7s-31.57-5.9-42.17-5.9
		c-10.5,0-37.48-13.99-50.31-21c-12.93-7.04-21.1,0-33.98-9.37c-12.85-9.42-37.47-16.44-42.15-28.13
		c-4.7-11.7-22.23-16.44-28.09-24.61c-5.86-8.19-12.87-16.38-12.87-12.86s11.7,23.43,21.05,33.94
		c9.41,10.54,22.26,17.64,19.92,21.06c-2.32,3.48-17.61-1.16-22.23-1.16c-4.68,0-24.59,0-30.44,1.16
		c-5.85,1.18,5.85,4.67,17.54,4.67c11.69,0,32.8,0,43.32,3.52c10.54,3.54,16.36,7.08,35.12,16.45
		c18.75,9.31,35.15,16.33,48.03,18.73c12.82,2.34,37.42,8.18,45.68,8.18c8.16,0,24.55,8.2,32.75,17.56
		c8.21,9.33,7.03,21.08,8.21,29.22c1.12,8.22,25.76,27,33.89,30.5c8.26,3.5,12.91,7.02,29.3,26.92c16.35,19.9,10.52,55.04-4.7,91.31
		c-15.19,36.29-105.19,77.5-105.19,77.5H974.63z"/>
	<path class="st0" d="M68.34,482.57c0,0-8.89-10.12-38.1-9.44V73.8h411.19c0,0-14.64,16.24-18.66,38.5l-354.13-0.05L68.34,482.57z"
		/>
	<path class="st0" d="M30.11,606c0,0,26.28,25.7,38.53,24.39v317.6h352.59l-47.6,38.77H30.24L30.11,606z"/>
	<path class="st0" d="M574.24,112.4c0,0-14.43-37.52-23.09-38.95h423.61v408.01c0,0-18.23-11.33-38.32-5.53l-0.39-363.5
		L574.24,112.4z"/>
	<path class="st1" d="M787.49,485.81c0,0-51.01,7.15-65.38,66.95c-14.37,59.77,48.63,94.81,100.46,80.52
		c51.81-14.41,55.76-112.41,7.98-136.36C830.56,496.93,811.4,483.42,787.49,485.81z"/>
	<path class="st1" d="M539.94,206.82c0,0-44.2,6.17-56.66,57.98c-12.41,51.84,42.15,82.22,87.05,69.78
		c44.92-12.49,48.34-97.39,6.87-118.07C577.21,216.51,560.71,204.73,539.94,206.82z"/>
	<path class="st1" d="M158.28,566.04c-29.57,4.86-57.17,31.55-65.51,66.44C63.62,753.95,314.4,725.1,217.61,592.93
		C200.81,569.95,179.03,562.63,158.28,566.04z"/>
	<path class="st0" d="M488.19,207.31c0,0,32.24-21.41,51.93-16.08c0,0,21.48-64.47-3.55-100.29c-25.09-35.77-51.94-53.7-51.94-53.7
		s-53.7,78.78-39.39,119.99C459.53,198.39,488.19,207.31,488.19,207.31z"/>
	<path class="st0" d="M274.32,161.31c0,0-11.11,92.08,27.02,123.82c38.1,31.79,95.25,19.07,95.25,19.07s4.34-69.3-19.02-95.25
		C334.7,161.31,274.32,161.31,274.32,161.31z"/>
	<path class="st0" d="M604.76,514.41c0,0,82.27-48.24,88.21-94.91c5.93-46.62-33.33-85.84-33.33-85.84s-63.81,31.87-72.68,63.84
		C570.78,455.99,604.76,514.41,604.76,514.41z"/>
	<path class="st0" d="M770.8,395.53c0,0,71.26-39.41,79.48-85.55c8.25-46.11-14.28-90.37-14.28-90.37s-68.59,26.68-80.04,64.79
		C734.98,354.25,770.8,395.53,770.8,395.53z"/>
	<path class="st0" d="M593.32,709.12c0,0,78.35,11.85,106.25-22.2c27.87-34.05,18.18-86.25,18.18-86.25s-58.99-5.29-81.64,15.49
		C594.56,654.24,593.32,709.12,593.32,709.12z"/>
	<path class="st0" d="M745.23,460.5c0,0,64.6,33.13,98.44,13.3c33.71-19.83,40.05-65.93,40.05-65.93s-49.75-21.93-75.2-11.46
		C761.74,415.53,745.23,460.5,745.23,460.5z"/>
	<path class="st0" d="M893.19,723.33c0,0-28.72-66.73-67.41-72.95c-38.68-6.17-72.85,25.25-72.85,25.25s24.37,48.61,50.64,56.81
		C851.85,747.47,893.19,723.33,893.19,723.33z"/>
	<path class="st0" d="M462.53,256.54c-4.35-3.21-7.11-4.8-7.11-4.8s-42.41,64.64-26.58,108.62c15.92,43.93,69.16,50.81,69.16,50.81
		s19.39-25.08,12.47-63.3c0,0-28.73-4.54-41.87-28.24C455.5,295.92,462.53,256.54,462.53,256.54z"/>
	<path class="st0" d="M186.69,769.8c0,0,65.61,14.46,90.21-6.34c24.55-20.75,31.76-63.53,31.76-63.53s-55.04-9.15-74.34,2.9
		C198.94,724.92,186.69,769.8,186.69,769.8z"/>
	<path class="st0" d="M148.67,305.77c0,0-9.41,77.98,22.89,104.84c32.26,26.89,80.62,16.14,80.62,16.14s3.65-58.65-16.16-80.62
		C199.75,305.77,148.67,305.77,148.67,305.77z"/>
	<path class="st0" d="M341.26,491.2c0,0-39.55,73.2-16.76,112.55c22.72,39.41,76.39,48.02,76.39,48.02s26.24-56.47,14.38-86.02
		C393.61,511.47,341.26,491.2,341.26,491.2z"/>
	<path class="st0" d="M283.13,371.11c0,0,14.86,82.86,57.31,96.25c42.36,13.41,99.12-19.03,99.12-19.03s-20.25-63.99-48.3-77.51
		C339.86,346.08,283.13,371.11,283.13,371.11z"/>
	<path class="st0" d="M6,499.48c0,0,3.17,87.36,68.27,107.94c0,0,25.41-47.63,49.25-46.03C123.52,561.4,82.26,474.09,6,499.48z"/>
	<path class="st0" d="M177.49,548.71c0,0,47.32,11.43,57.15,39.7c8.1,23.28,6.38,30.18,6.38,30.18s22.19-44.47,20.65-79.42
		c-1.62-34.92-30.19-58.74-30.19-58.74S185.43,504.25,177.49,548.71z"/>
	<path class="st0" d="M617.31,240.7c0,0,25.53,19.57,9.04,56.43l7.61,12.69c0,0,94.53-31.03,105.62-96.14
		c11.11-65.11,0-76.22,0-76.22S649.19,132.55,617.31,240.7z"/>
	<path class="st0" d="M878.55,517.63c0,0,18.03,15.49,10.29,43.89c0,0,38.79,36.14,77.48,10.35c38.74-25.87,51.68-46.52,51.68-46.52
		S937.93,458.23,878.55,517.63z"/>
</g>
</svg>
