<svg enable-background="new 0 0 1024 1024" viewBox="0 0 1024 1024" xmlns="http://www.w3.org/2000/svg"><path d="m974.63 986.69v-393.5c-4.18 7.57-16.74 10.11-24.69 11.63-6.84 1.33-14.27-.52-14.27-.52v344.32s-244.44-1-260.79 0c-17.46 1.03-27-4.77-27-4.77-51.27-33.29-66.1-110.99-63.35-124.82 3.5-17.56-4.65-52.72-10.55-84.27-5.83-31.67 19.95-124.12 24.62-142.85 4.67-18.72 33.92-35.16 35.07-39.83 1.16-4.72-6.97-2.36-6.97-5.81 0-3.53 19.89-17.58 32.74-17.58 12.91 0 39.87-23.42 40.96-31.63 1.17-8.19 26.94-42.12 35.15-49.15 8.22-7.01 19.9-31.62 21.07-37.47 1.17-5.88-5.89 5.85-14 18.77-8.24 12.82-67.97 74.88-110.1 94.77-42.13 19.9-58.54 91.36-67.87 102.26-9.32 10.92-24.61-124.49-25.83-152.59-1.12-28.08-15.18-49.16-15.18-55.04 0-5.84 1.56-44.52 1.56-44.52s-4.59-6.49-3-.64c1.5 5.85-3.23 31.1-4.39 53.36-1.18 22.25 15.23 78.5 21.01 114.76 5.93 36.29 3.55 49.16-2.32 67.91-5.83 18.75 7.08 60.84 11.74 76.11 4.67 15.19-7.04 76.1-8.2 80.73-1.16 4.71-45.68-29.25-44.15-43.93 1.56-14.68-14.42-30.95-19.07-43.84-4.67-12.95-24.62-59.69-29.28-69.08-4.74-9.33-5.84-56.2-1.17-69.08s-4.67-30.43-14.09-35.1c-9.34-4.67-24.55-34.02-27.97-30.82-3.38 3.22 43.23 53.04 33.83 65.92-9.37 12.88-10.49 21.07-7.01 37.46 3.5 16.39 11.65 39.78 8.18 46.88-3.5 7.01-14.05-3.57-15.21 0-1.17 3.49 19.93 21.02 29.28 31.56 9.4 10.51 15.22 52.7 15.22 52.7s-31.57-5.9-42.17-5.9c-10.5 0-37.48-13.99-50.31-21-12.93-7.04-21.1 0-33.98-9.37-12.85-9.42-37.47-16.44-42.15-28.13-4.7-11.7-22.23-16.44-28.09-24.61-5.86-8.19-12.87-16.38-12.87-12.86s11.7 23.43 21.05 33.94c9.41 10.54 22.26 17.64 19.92 21.06-2.32 3.48-17.61-1.16-22.23-1.16-4.68 0-24.59 0-30.44 1.16-5.85 1.18 5.85 4.67 17.54 4.67s32.8 0 43.32 3.52c10.54 3.54 16.36 7.08 35.12 16.45 18.75 9.31 35.15 16.33 48.03 18.73 12.82 2.34 37.42 8.18 45.68 8.18 8.16 0 24.55 8.2 32.75 17.56 8.21 9.33 7.03 21.08 8.21 29.22 1.12 8.22 25.76 27 33.89 30.5 8.26 3.5 12.91 7.02 29.3 26.92 16.35 19.9 10.52 55.04-4.7 91.31-15.19 36.29-105.19 77.5-105.19 77.5h543.35z" fill="#5cb531"/><path d="m68.34 482.57s-8.89-10.12-38.1-9.44v-399.33h411.19s-14.64 16.24-18.66 38.5l-354.13-.05z" fill="#5cb531"/><path d="m30.11 606s26.28 25.7 38.53 24.39v317.6h352.59l-47.6 38.77h-343.39z" fill="#5cb531"/><path d="m574.24 112.4s-14.43-37.52-23.09-38.95h423.61v408.01s-18.23-11.33-38.32-5.53l-.39-363.5z" fill="#5cb531"/><path d="m787.49 485.81s-51.01 7.15-65.38 66.95c-14.37 59.77 48.63 94.81 100.46 80.52 51.81-14.41 55.76-112.41 7.98-136.36.01.01-19.15-13.5-43.06-11.11z" fill="#edaa00"/><path d="m539.94 206.82s-44.2 6.17-56.66 57.98c-12.41 51.84 42.15 82.22 87.05 69.78 44.92-12.49 48.34-97.39 6.87-118.07.01 0-16.49-11.78-37.26-9.69z" fill="#edaa00"/><path d="m158.28 566.04c-29.57 4.86-57.17 31.55-65.51 66.44-29.15 121.47 221.63 92.62 124.84-39.55-16.8-22.98-38.58-30.3-59.33-26.89z" fill="#edaa00"/><g fill="#5cb531"><path d="m488.19 207.31s32.24-21.41 51.93-16.08c0 0 21.48-64.47-3.55-100.29-25.09-35.77-51.94-53.7-51.94-53.7s-53.7 78.78-39.39 119.99c14.29 41.16 42.95 50.08 42.95 50.08z"/><path d="m274.32 161.31s-11.11 92.08 27.02 123.82c38.1 31.79 95.25 19.07 95.25 19.07s4.34-69.3-19.02-95.25c-42.87-47.64-103.25-47.64-103.25-47.64z"/><path d="m604.76 514.41s82.27-48.24 88.21-94.91c5.93-46.62-33.33-85.84-33.33-85.84s-63.81 31.87-72.68 63.84c-16.18 58.49 17.8 116.91 17.8 116.91z"/><path d="m770.8 395.53s71.26-39.41 79.48-85.55c8.25-46.11-14.28-90.37-14.28-90.37s-68.59 26.68-80.04 64.79c-20.98 69.85 14.84 111.13 14.84 111.13z"/><path d="m593.32 709.12s78.35 11.85 106.25-22.2c27.87-34.05 18.18-86.25 18.18-86.25s-58.99-5.29-81.64 15.49c-41.55 38.08-42.79 92.96-42.79 92.96z"/><path d="m745.23 460.5s64.6 33.13 98.44 13.3c33.71-19.83 40.05-65.93 40.05-65.93s-49.75-21.93-75.2-11.46c-46.78 19.12-63.29 64.09-63.29 64.09z"/><path d="m893.19 723.33s-28.72-66.73-67.41-72.95c-38.68-6.17-72.85 25.25-72.85 25.25s24.37 48.61 50.64 56.81c48.28 15.03 89.62-9.11 89.62-9.11z"/><path d="m462.53 256.54c-4.35-3.21-7.11-4.8-7.11-4.8s-42.41 64.64-26.58 108.62c15.92 43.93 69.16 50.81 69.16 50.81s19.39-25.08 12.47-63.3c0 0-28.73-4.54-41.87-28.24-13.1-23.71-6.07-63.09-6.07-63.09z"/><path d="m186.69 769.8s65.61 14.46 90.21-6.34c24.55-20.75 31.76-63.53 31.76-63.53s-55.04-9.15-74.34 2.9c-35.38 22.09-47.63 66.97-47.63 66.97z"/><path d="m148.67 305.77s-9.41 77.98 22.89 104.84c32.26 26.89 80.62 16.14 80.62 16.14s3.65-58.65-16.16-80.62c-36.27-40.36-87.35-40.36-87.35-40.36z"/><path d="m341.26 491.2s-39.55 73.2-16.76 112.55c22.72 39.41 76.39 48.02 76.39 48.02s26.24-56.47 14.38-86.02c-21.66-54.28-74.01-74.55-74.01-74.55z"/><path d="m283.13 371.11s14.86 82.86 57.31 96.25c42.36 13.41 99.12-19.03 99.12-19.03s-20.25-63.99-48.3-77.51c-51.4-24.74-108.13.29-108.13.29z"/><path d="m6 499.48s3.17 87.36 68.27 107.94c0 0 25.41-47.63 49.25-46.03 0 .01-41.26-87.3-117.52-61.91z"/><path d="m177.49 548.71s47.32 11.43 57.15 39.7c8.1 23.28 6.38 30.18 6.38 30.18s22.19-44.47 20.65-79.42c-1.62-34.92-30.19-58.74-30.19-58.74s-46.05 23.82-53.99 68.28z"/><path d="m617.31 240.7s25.53 19.57 9.04 56.43l7.61 12.69s94.53-31.03 105.62-96.14c11.11-65.11 0-76.22 0-76.22s-90.39-4.91-122.27 103.24z"/><path d="m878.55 517.63s18.03 15.49 10.29 43.89c0 0 38.79 36.14 77.48 10.35 38.74-25.87 51.68-46.52 51.68-46.52s-80.07-67.12-139.45-7.72z"/></g></svg>